<?xml version="1.0" encoding="utf-8" standalone="no"?>
<!DOCTYPE svg PUBLIC "-//W3C//DTD SVG 1.1//EN"
  "http://www.w3.org/Graphics/SVG/1.1/DTD/svg11.dtd">
<svg xmlns:xlink="http://www.w3.org/1999/xlink" width="77.76pt" height="44.64pt" viewBox="0 0 77.76 44.64" xmlns="http://www.w3.org/2000/svg" version="1.1">
 <metadata>
  <rdf:RDF xmlns:dc="http://purl.org/dc/elements/1.1/" xmlns:cc="http://creativecommons.org/ns#" xmlns:rdf="http://www.w3.org/1999/02/22-rdf-syntax-ns#">
   <cc:Work>
    <dc:type rdf:resource="http://purl.org/dc/dcmitype/StillImage"/>
    <dc:date>2024-09-01T12:28:29.070152</dc:date>
    <dc:format>image/svg+xml</dc:format>
    <dc:creator>
     <cc:Agent>
      <dc:title>Matplotlib v3.9.0, https://matplotlib.org/</dc:title>
     </cc:Agent>
    </dc:creator>
   </cc:Work>
  </rdf:RDF>
 </metadata>
 <defs>
  <style type="text/css">*{stroke-linejoin: round; stroke-linecap: butt}</style>
 </defs>
 <g id="figure_1">
  <g id="patch_1">
   <path d="M 0 44.64 
L 77.76 44.64 
L 77.76 0 
L 0 0 
L 0 44.64 
z
" style="fill: none"/>
  </g>
  <g id="axes_1">
   <g id="line2d_1">
    <path d="M 17.28 39.96 
L 36.822857 39.893878 
L 38.88 39.6 
L 40.937143 39.07102 
L 42.994286 38.306939 
L 45.051429 37.307755 
L 47.108571 36.073469 
L 49.165714 34.604082 
L 51.222857 32.899592 
L 53.794286 30.438367 
L 56.365714 27.609796 
L 58.937143 24.413878 
L 60.48 22.32 
L 60.48 22.32 
L 57.908571 18.903673 
L 55.337143 15.854694 
L 52.765714 13.173061 
L 50.194286 10.858776 
L 48.137143 9.271837 
L 46.08 7.92 
L 44.022857 6.803265 
L 41.965714 5.921633 
L 39.908571 5.275102 
L 37.851429 4.863673 
L 35.794286 4.687347 
L 35.28 4.68 
L 17.28 4.68 
L 17.28 4.68 
L 19.2672 6.84 
L 20.9952 9 
L 22.464 11.16 
L 23.6736 13.32 
L 24.624 15.48 
L 25.3152 17.64 
L 25.7472 19.8 
L 25.92 21.96 
L 25.8336 24.12 
L 25.488 26.28 
L 24.8832 28.44 
L 24.0192 30.6 
L 22.896 32.76 
L 21.5136 34.92 
L 19.872 37.08 
L 17.9712 39.24 
L 17.28 39.96 
L 17.28 39.96 
" clip-path="url(#p0ece3a57ea)" style="fill: none; stroke: #000000; stroke-width: 2; stroke-linecap: round"/>
   </g>
   <g id="line2d_2">
    <path d="M 4.68 31.32 
L 23.6736 31.32 
" clip-path="url(#p0ece3a57ea)" style="fill: none; stroke: #000000; stroke-width: 2; stroke-linecap: round"/>
   </g>
   <g id="line2d_3">
    <path d="M 4.68 13.32 
L 23.6736 13.32 
" clip-path="url(#p0ece3a57ea)" style="fill: none; stroke: #000000; stroke-width: 2; stroke-linecap: round"/>
   </g>
   <g id="line2d_4">
    <path d="M 60.48 22.32 
L 73.08 22.32 
" clip-path="url(#p0ece3a57ea)" style="fill: none; stroke: #000000; stroke-width: 2; stroke-linecap: round"/>
   </g>
  </g>
 </g>
 <defs>
  <clipPath id="p0ece3a57ea">
   <rect x="0" y="0" width="77.76" height="44.64"/>
  </clipPath>
 </defs>
</svg>
