<?xml version="1.0" encoding="utf-8" standalone="no"?>
<!DOCTYPE svg PUBLIC "-//W3C//DTD SVG 1.1//EN"
  "http://www.w3.org/Graphics/SVG/1.1/DTD/svg11.dtd">
<svg xmlns:xlink="http://www.w3.org/1999/xlink" width="238.86pt" height="45.36pt" viewBox="0 0 238.86 45.36" xmlns="http://www.w3.org/2000/svg" version="1.1">
 <metadata>
  <rdf:RDF xmlns:dc="http://purl.org/dc/elements/1.1/" xmlns:cc="http://creativecommons.org/ns#" xmlns:rdf="http://www.w3.org/1999/02/22-rdf-syntax-ns#">
   <cc:Work>
    <dc:type rdf:resource="http://purl.org/dc/dcmitype/StillImage"/>
    <dc:date>2024-09-01T12:28:28.595754</dc:date>
    <dc:format>image/svg+xml</dc:format>
    <dc:creator>
     <cc:Agent>
      <dc:title>Matplotlib v3.9.0, https://matplotlib.org/</dc:title>
     </cc:Agent>
    </dc:creator>
   </cc:Work>
  </rdf:RDF>
 </metadata>
 <defs>
  <style type="text/css">*{stroke-linejoin: round; stroke-linecap: butt}</style>
 </defs>
 <g id="figure_1">
  <g id="patch_1">
   <path d="M 0 45.36 
L 238.86 45.36 
L 238.86 0 
L 0 0 
L 0 45.36 
z
" style="fill: none"/>
  </g>
  <g id="axes_1">
   <g id="patch_2">
    <path d="M 52.38 27 
C 53.525677 27 54.624585 26.544818 55.434701 25.734701 
C 56.244818 24.924585 56.7 23.825677 56.7 22.68 
C 56.7 21.534323 56.244818 20.435415 55.434701 19.625299 
C 54.624585 18.815182 53.525677 18.36 52.38 18.36 
C 51.234323 18.36 50.135415 18.815182 49.325299 19.625299 
C 48.515182 20.435415 48.06 21.534323 48.06 22.68 
C 48.06 23.825677 48.515182 24.924585 49.325299 25.734701 
C 50.135415 26.544818 51.234323 27 52.38 27 
L 52.38 27 
z
" clip-path="url(#p4a5d356733)" style="fill: none; stroke: #000000; stroke-width: 2; stroke-linejoin: miter"/>
   </g>
   <g id="line2d_1">
    <path d="M 118.08 40.68 
L 119.233264 40.643017 
L 120.381789 40.53222 
L 121.520855 40.348065 
L 122.645783 40.091308 
L 123.751948 39.763003 
L 124.834806 39.364502 
L 125.889907 38.89744 
L 126.912916 38.363737 
L 127.899628 37.765586 
L 128.84599 37.105445 
L 129.748111 36.386027 
L 130.602286 35.610288 
L 131.405004 34.781416 
L 132.152967 33.902816 
L 132.843101 32.9781 
L 133.47257 32.011066 
L 134.038788 31.005689 
L 134.539427 29.9661 
L 134.972432 28.896571 
L 135.336021 27.801497 
L 135.628702 26.685377 
L 135.849272 25.552798 
L 135.996824 24.408414 
L 136.070752 23.256928 
L 136.070752 22.103072 
L 135.996824 20.951586 
L 135.849272 19.807202 
L 135.628702 18.674623 
L 135.336021 17.558503 
L 134.972432 16.463429 
L 134.539427 15.3939 
L 134.038788 14.354311 
L 133.47257 13.348934 
L 132.843101 12.3819 
L 132.152967 11.457184 
L 131.405004 10.578584 
L 130.602286 9.749712 
L 129.748111 8.973973 
L 128.84599 8.254555 
L 127.899628 7.594414 
L 126.912916 6.996263 
L 125.889907 6.46256 
L 124.834806 5.995498 
L 123.751948 5.596997 
L 122.645783 5.268692 
L 121.520855 5.011935 
L 120.381789 4.82778 
L 119.233264 4.716983 
L 118.08 4.68 
L 118.08 4.68 
L 94.68 4.68 
L 94.68 22.68 
L 94.68 40.68 
L 118.08 40.68 
" clip-path="url(#p4a5d356733)" style="fill: none; stroke: #000000; stroke-width: 2; stroke-linecap: round"/>
   </g>
   <g id="line2d_2">
    <path d="M 82.08 22.68 
L 94.68 22.68 
" clip-path="url(#p4a5d356733)" style="fill: none; stroke: #000000; stroke-width: 2; stroke-linecap: round"/>
   </g>
   <g id="line2d_3">
    <path d="M 136.08 22.68 
L 148.68 22.68 
" clip-path="url(#p4a5d356733)" style="fill: none; stroke: #000000; stroke-width: 2; stroke-linecap: round"/>
   </g>
   <g id="line2d_4">
    <path d="M 4.68 22.68 
L 24.66 22.68 
M 56.7 22.68 
L 76.68 22.68 
" clip-path="url(#p4a5d356733)" style="fill: none; stroke: #000000; stroke-width: 2; stroke-linecap: round"/>
   </g>
   <g id="line2d_5">
    <path d="M 24.66 4.68 
L 48.06 22.68 
L 24.66 40.68 
L 24.66 4.68 
" clip-path="url(#p4a5d356733)" style="fill: none; stroke: #000000; stroke-width: 2; stroke-linecap: round"/>
   </g>
   <g id="line2d_6">
    <path d="M 82.08 22.68 
L 76.68 22.68 
L 76.68 22.68 
" clip-path="url(#p4a5d356733)" style="fill: none; stroke: #000000; stroke-width: 2; stroke-linecap: round"/>
   </g>
   <g id="text_1">
    <!-- $\text{Output}$ -->
    <g transform="translate(152.28 26.514688) scale(0.14 -0.14)">
     <defs>
      <path id="DejaVuSans-4f" d="M 2522 4238 
Q 1834 4238 1429 3725 
Q 1025 3213 1025 2328 
Q 1025 1447 1429 934 
Q 1834 422 2522 422 
Q 3209 422 3611 934 
Q 4013 1447 4013 2328 
Q 4013 3213 3611 3725 
Q 3209 4238 2522 4238 
z
M 2522 4750 
Q 3503 4750 4090 4092 
Q 4678 3434 4678 2328 
Q 4678 1225 4090 567 
Q 3503 -91 2522 -91 
Q 1538 -91 948 565 
Q 359 1222 359 2328 
Q 359 3434 948 4092 
Q 1538 4750 2522 4750 
z
" transform="scale(0.015625)"/>
      <path id="DejaVuSans-75" d="M 544 1381 
L 544 3500 
L 1119 3500 
L 1119 1403 
Q 1119 906 1312 657 
Q 1506 409 1894 409 
Q 2359 409 2629 706 
Q 2900 1003 2900 1516 
L 2900 3500 
L 3475 3500 
L 3475 0 
L 2900 0 
L 2900 538 
Q 2691 219 2414 64 
Q 2138 -91 1772 -91 
Q 1169 -91 856 284 
Q 544 659 544 1381 
z
M 1991 3584 
L 1991 3584 
z
" transform="scale(0.015625)"/>
      <path id="DejaVuSans-74" d="M 1172 4494 
L 1172 3500 
L 2356 3500 
L 2356 3053 
L 1172 3053 
L 1172 1153 
Q 1172 725 1289 603 
Q 1406 481 1766 481 
L 2356 481 
L 2356 0 
L 1766 0 
Q 1100 0 847 248 
Q 594 497 594 1153 
L 594 3053 
L 172 3053 
L 172 3500 
L 594 3500 
L 594 4494 
L 1172 4494 
z
" transform="scale(0.015625)"/>
      <path id="DejaVuSans-70" d="M 1159 525 
L 1159 -1331 
L 581 -1331 
L 581 3500 
L 1159 3500 
L 1159 2969 
Q 1341 3281 1617 3432 
Q 1894 3584 2278 3584 
Q 2916 3584 3314 3078 
Q 3713 2572 3713 1747 
Q 3713 922 3314 415 
Q 2916 -91 2278 -91 
Q 1894 -91 1617 61 
Q 1341 213 1159 525 
z
M 3116 1747 
Q 3116 2381 2855 2742 
Q 2594 3103 2138 3103 
Q 1681 3103 1420 2742 
Q 1159 2381 1159 1747 
Q 1159 1113 1420 752 
Q 1681 391 2138 391 
Q 2594 391 2855 752 
Q 3116 1113 3116 1747 
z
" transform="scale(0.015625)"/>
     </defs>
     <use xlink:href="#DejaVuSans-4f" transform="translate(0 0.78125)"/>
     <use xlink:href="#DejaVuSans-75" transform="translate(78.710938 0.78125)"/>
     <use xlink:href="#DejaVuSans-74" transform="translate(142.089844 0.78125)"/>
     <use xlink:href="#DejaVuSans-70" transform="translate(181.298828 0.78125)"/>
     <use xlink:href="#DejaVuSans-75" transform="translate(244.775391 0.78125)"/>
     <use xlink:href="#DejaVuSans-74" transform="translate(308.154297 0.78125)"/>
    </g>
   </g>
  </g>
 </g>
 <defs>
  <clipPath id="p4a5d356733">
   <rect x="0" y="0" width="238.86" height="45.36"/>
  </clipPath>
 </defs>
</svg>
