<?xml version="1.0" encoding="utf-8" standalone="no"?>
<!DOCTYPE svg PUBLIC "-//W3C//DTD SVG 1.1//EN"
  "http://www.w3.org/Graphics/SVG/1.1/DTD/svg11.dtd">
<svg xmlns:xlink="http://www.w3.org/1999/xlink" width="246pt" height="99pt" viewBox="0 0 246 99" xmlns="http://www.w3.org/2000/svg" version="1.1">
 <metadata>
  <rdf:RDF xmlns:dc="http://purl.org/dc/elements/1.1/" xmlns:cc="http://creativecommons.org/ns#" xmlns:rdf="http://www.w3.org/1999/02/22-rdf-syntax-ns#">
   <cc:Work>
    <dc:type rdf:resource="http://purl.org/dc/dcmitype/StillImage"/>
    <dc:date>2024-09-01T12:28:26.687781</dc:date>
    <dc:format>image/svg+xml</dc:format>
    <dc:creator>
     <cc:Agent>
      <dc:title>Matplotlib v3.9.0, https://matplotlib.org/</dc:title>
     </cc:Agent>
    </dc:creator>
   </cc:Work>
  </rdf:RDF>
 </metadata>
 <defs>
  <style type="text/css">*{stroke-linejoin: round; stroke-linecap: butt}</style>
 </defs>
 <g id="figure_1">
  <g id="patch_1">
   <path d="M 0 99 
L 246 99 
L 246 0 
L 0 0 
L 0 99 
z
" style="fill: none"/>
  </g>
  <g id="axes_1">
   <g id="patch_2">
    <path d="M 75.54 80.64 
C 76.685677 80.64 77.784585 80.184818 78.594701 79.374701 
C 79.404818 78.564585 79.86 77.465677 79.86 76.32 
C 79.86 75.174323 79.404818 74.075415 78.594701 73.265299 
C 77.784585 72.455182 76.685677 72 75.54 72 
C 74.394323 72 73.295415 72.455182 72.485299 73.265299 
C 71.675182 74.075415 71.22 75.174323 71.22 76.32 
C 71.22 77.465677 71.675182 78.564585 72.485299 79.374701 
C 73.295415 80.184818 74.394323 80.64 75.54 80.64 
L 75.54 80.64 
z
" clip-path="url(#p8d82ca2c06)" style="fill: none; stroke: #000000; stroke-width: 2; stroke-linejoin: miter"/>
   </g>
   <g id="line2d_1">
    <path d="M 100.02 66.96 
L 119.562857 66.893878 
L 121.62 66.6 
L 123.677143 66.07102 
L 125.734286 65.306939 
L 127.791429 64.307755 
L 129.848571 63.073469 
L 131.905714 61.604082 
L 133.962857 59.899592 
L 136.534286 57.438367 
L 139.105714 54.609796 
L 141.677143 51.413878 
L 143.22 49.32 
L 143.22 49.32 
L 140.648571 45.903673 
L 138.077143 42.854694 
L 135.505714 40.173061 
L 132.934286 37.858776 
L 130.877143 36.271837 
L 128.82 34.92 
L 126.762857 33.803265 
L 124.705714 32.921633 
L 122.648571 32.275102 
L 120.591429 31.863673 
L 118.534286 31.687347 
L 118.02 31.68 
L 100.02 31.68 
L 100.02 31.68 
L 102.0072 33.84 
L 103.7352 36 
L 105.204 38.16 
L 106.4136 40.32 
L 107.364 42.48 
L 108.0552 44.64 
L 108.4872 46.8 
L 108.66 48.96 
L 108.5736 51.12 
L 108.228 53.28 
L 107.6232 55.44 
L 106.7592 57.6 
L 105.636 59.76 
L 104.2536 61.92 
L 102.612 64.08 
L 100.7112 66.24 
L 100.02 66.96 
L 100.02 66.96 
" clip-path="url(#p8d82ca2c06)" style="fill: none; stroke: #000000; stroke-width: 2; stroke-linecap: round"/>
   </g>
   <g id="line2d_2">
    <path d="M 87.42 58.32 
L 106.4136 58.32 
" clip-path="url(#p8d82ca2c06)" style="fill: none; stroke: #000000; stroke-width: 2; stroke-linecap: round"/>
   </g>
   <g id="line2d_3">
    <path d="M 87.42 40.32 
L 106.4136 40.32 
" clip-path="url(#p8d82ca2c06)" style="fill: none; stroke: #000000; stroke-width: 2; stroke-linecap: round"/>
   </g>
   <g id="line2d_4">
    <path d="M 143.22 49.32 
L 155.82 49.32 
" clip-path="url(#p8d82ca2c06)" style="fill: none; stroke: #000000; stroke-width: 2; stroke-linecap: round"/>
   </g>
   <g id="line2d_5">
    <path d="M 28.02 39.96 
L 47.562857 39.893878 
L 49.62 39.6 
L 51.677143 39.07102 
L 53.734286 38.306939 
L 55.791429 37.307755 
L 57.848571 36.073469 
L 59.905714 34.604082 
L 61.962857 32.899592 
L 64.534286 30.438367 
L 67.105714 27.609796 
L 69.677143 24.413878 
L 71.22 22.32 
L 71.22 22.32 
L 68.648571 18.903673 
L 66.077143 15.854694 
L 63.505714 13.173061 
L 60.934286 10.858776 
L 58.877143 9.271837 
L 56.82 7.92 
L 54.762857 6.803265 
L 52.705714 5.921633 
L 50.648571 5.275102 
L 48.591429 4.863673 
L 46.534286 4.687347 
L 46.02 4.68 
L 28.02 4.68 
L 28.02 4.68 
L 30.0072 6.84 
L 31.7352 9 
L 33.204 11.16 
L 34.4136 13.32 
L 35.364 15.48 
L 36.0552 17.64 
L 36.4872 19.8 
L 36.66 21.96 
L 36.5736 24.12 
L 36.228 26.28 
L 35.6232 28.44 
L 34.7592 30.6 
L 33.636 32.76 
L 32.2536 34.92 
L 30.612 37.08 
L 28.7112 39.24 
L 28.02 39.96 
L 28.02 39.96 
" clip-path="url(#p8d82ca2c06)" style="fill: none; stroke: #000000; stroke-width: 2; stroke-linecap: round"/>
   </g>
   <g id="line2d_6">
    <path d="M 15.42 31.32 
L 34.4136 31.32 
" clip-path="url(#p8d82ca2c06)" style="fill: none; stroke: #000000; stroke-width: 2; stroke-linecap: round"/>
   </g>
   <g id="line2d_7">
    <path d="M 15.42 13.32 
L 34.4136 13.32 
" clip-path="url(#p8d82ca2c06)" style="fill: none; stroke: #000000; stroke-width: 2; stroke-linecap: round"/>
   </g>
   <g id="line2d_8">
    <path d="M 71.22 22.32 
L 83.82 22.32 
" clip-path="url(#p8d82ca2c06)" style="fill: none; stroke: #000000; stroke-width: 2; stroke-linecap: round"/>
   </g>
   <g id="line2d_9">
    <path d="M 87.42 40.32 
L 83.82 40.32 
L 83.82 22.32 
" clip-path="url(#p8d82ca2c06)" style="fill: none; stroke: #000000; stroke-width: 2; stroke-linecap: round"/>
   </g>
   <g id="line2d_10">
    <path d="M 53.22 94.32 
L 54.373264 94.283017 
L 55.521789 94.17222 
L 56.660855 93.988065 
L 57.785783 93.731308 
L 58.891948 93.403003 
L 59.974806 93.004502 
L 61.029907 92.53744 
L 62.052916 92.003737 
L 63.039628 91.405586 
L 63.98599 90.745445 
L 64.888111 90.026027 
L 65.742286 89.250288 
L 66.545004 88.421416 
L 67.292967 87.542816 
L 67.983101 86.6181 
L 68.61257 85.651066 
L 69.178788 84.645689 
L 69.679427 83.6061 
L 70.112432 82.536571 
L 70.476021 81.441497 
L 70.768702 80.325377 
L 70.989272 79.192798 
L 71.136824 78.048414 
L 71.210752 76.896928 
L 71.210752 75.743072 
L 71.136824 74.591586 
L 70.989272 73.447202 
L 70.768702 72.314623 
L 70.476021 71.198503 
L 70.112432 70.103429 
L 69.679427 69.0339 
L 69.178788 67.994311 
L 68.61257 66.988934 
L 67.983101 66.0219 
L 67.292967 65.097184 
L 66.545004 64.218584 
L 65.742286 63.389712 
L 64.888111 62.613973 
L 63.98599 61.894555 
L 63.039628 61.234414 
L 62.052916 60.636263 
L 61.029907 60.10256 
L 59.974806 59.635498 
L 58.891948 59.236997 
L 57.785783 58.908692 
L 56.660855 58.651935 
L 55.521789 58.46778 
L 54.373264 58.356983 
L 53.22 58.32 
L 53.22 58.32 
L 29.82 58.32 
L 29.82 76.32 
L 29.82 94.32 
L 53.22 94.32 
" clip-path="url(#p8d82ca2c06)" style="fill: none; stroke: #000000; stroke-width: 2; stroke-linecap: round"/>
   </g>
   <g id="line2d_11">
    <path d="M 17.22 85.32 
L 29.82 85.32 
" clip-path="url(#p8d82ca2c06)" style="fill: none; stroke: #000000; stroke-width: 2; stroke-linecap: round"/>
   </g>
   <g id="line2d_12">
    <path d="M 17.22 67.32 
L 29.82 67.32 
" clip-path="url(#p8d82ca2c06)" style="fill: none; stroke: #000000; stroke-width: 2; stroke-linecap: round"/>
   </g>
   <g id="line2d_13">
    <path d="M 79.86 76.32 
L 83.82 76.32 
" clip-path="url(#p8d82ca2c06)" style="fill: none; stroke: #000000; stroke-width: 2; stroke-linecap: round"/>
   </g>
   <g id="line2d_14">
    <path d="M 87.42 58.32 
L 83.82 58.32 
L 83.82 76.32 
" clip-path="url(#p8d82ca2c06)" style="fill: none; stroke: #000000; stroke-width: 2; stroke-linecap: round"/>
   </g>
   <g id="text_1">
    <!-- $\text{Output}$ -->
    <g transform="translate(159.42 53.154688) scale(0.14 -0.14)">
     <defs>
      <path id="DejaVuSans-4f" d="M 2522 4238 
Q 1834 4238 1429 3725 
Q 1025 3213 1025 2328 
Q 1025 1447 1429 934 
Q 1834 422 2522 422 
Q 3209 422 3611 934 
Q 4013 1447 4013 2328 
Q 4013 3213 3611 3725 
Q 3209 4238 2522 4238 
z
M 2522 4750 
Q 3503 4750 4090 4092 
Q 4678 3434 4678 2328 
Q 4678 1225 4090 567 
Q 3503 -91 2522 -91 
Q 1538 -91 948 565 
Q 359 1222 359 2328 
Q 359 3434 948 4092 
Q 1538 4750 2522 4750 
z
" transform="scale(0.015625)"/>
      <path id="DejaVuSans-75" d="M 544 1381 
L 544 3500 
L 1119 3500 
L 1119 1403 
Q 1119 906 1312 657 
Q 1506 409 1894 409 
Q 2359 409 2629 706 
Q 2900 1003 2900 1516 
L 2900 3500 
L 3475 3500 
L 3475 0 
L 2900 0 
L 2900 538 
Q 2691 219 2414 64 
Q 2138 -91 1772 -91 
Q 1169 -91 856 284 
Q 544 659 544 1381 
z
M 1991 3584 
L 1991 3584 
z
" transform="scale(0.015625)"/>
      <path id="DejaVuSans-74" d="M 1172 4494 
L 1172 3500 
L 2356 3500 
L 2356 3053 
L 1172 3053 
L 1172 1153 
Q 1172 725 1289 603 
Q 1406 481 1766 481 
L 2356 481 
L 2356 0 
L 1766 0 
Q 1100 0 847 248 
Q 594 497 594 1153 
L 594 3053 
L 172 3053 
L 172 3500 
L 594 3500 
L 594 4494 
L 1172 4494 
z
" transform="scale(0.015625)"/>
      <path id="DejaVuSans-70" d="M 1159 525 
L 1159 -1331 
L 581 -1331 
L 581 3500 
L 1159 3500 
L 1159 2969 
Q 1341 3281 1617 3432 
Q 1894 3584 2278 3584 
Q 2916 3584 3314 3078 
Q 3713 2572 3713 1747 
Q 3713 922 3314 415 
Q 2916 -91 2278 -91 
Q 1894 -91 1617 61 
Q 1341 213 1159 525 
z
M 3116 1747 
Q 3116 2381 2855 2742 
Q 2594 3103 2138 3103 
Q 1681 3103 1420 2742 
Q 1159 2381 1159 1747 
Q 1159 1113 1420 752 
Q 1681 391 2138 391 
Q 2594 391 2855 752 
Q 3116 1113 3116 1747 
z
" transform="scale(0.015625)"/>
     </defs>
     <use xlink:href="#DejaVuSans-4f" transform="translate(0 0.78125)"/>
     <use xlink:href="#DejaVuSans-75" transform="translate(78.710938 0.78125)"/>
     <use xlink:href="#DejaVuSans-74" transform="translate(142.089844 0.78125)"/>
     <use xlink:href="#DejaVuSans-70" transform="translate(181.298828 0.78125)"/>
     <use xlink:href="#DejaVuSans-75" transform="translate(244.775391 0.78125)"/>
     <use xlink:href="#DejaVuSans-74" transform="translate(308.154297 0.78125)"/>
    </g>
   </g>
   <g id="text_2">
    <!-- c -->
    <g transform="translate(4.122187 17.183125) scale(0.14 -0.14)">
     <defs>
      <path id="DejaVuSans-63" d="M 3122 3366 
L 3122 2828 
Q 2878 2963 2633 3030 
Q 2388 3097 2138 3097 
Q 1578 3097 1268 2742 
Q 959 2388 959 1747 
Q 959 1106 1268 751 
Q 1578 397 2138 397 
Q 2388 397 2633 464 
Q 2878 531 3122 666 
L 3122 134 
Q 2881 22 2623 -34 
Q 2366 -91 2075 -91 
Q 1284 -91 818 406 
Q 353 903 353 1747 
Q 353 2603 823 3093 
Q 1294 3584 2113 3584 
Q 2378 3584 2631 3529 
Q 2884 3475 3122 3366 
z
" transform="scale(0.015625)"/>
     </defs>
     <use xlink:href="#DejaVuSans-63"/>
    </g>
   </g>
   <g id="text_3">
    <!-- c -->
    <g transform="translate(4.122187 35.183125) scale(0.14 -0.14)">
     <use xlink:href="#DejaVuSans-63"/>
    </g>
   </g>
   <g id="text_4">
    <!-- b -->
    <g transform="translate(4.732187 71.183125) scale(0.14 -0.14)">
     <defs>
      <path id="DejaVuSans-62" d="M 3116 1747 
Q 3116 2381 2855 2742 
Q 2594 3103 2138 3103 
Q 1681 3103 1420 2742 
Q 1159 2381 1159 1747 
Q 1159 1113 1420 752 
Q 1681 391 2138 391 
Q 2594 391 2855 752 
Q 3116 1113 3116 1747 
z
M 1159 2969 
Q 1341 3281 1617 3432 
Q 1894 3584 2278 3584 
Q 2916 3584 3314 3078 
Q 3713 2572 3713 1747 
Q 3713 922 3314 415 
Q 2916 -91 2278 -91 
Q 1894 -91 1617 61 
Q 1341 213 1159 525 
L 1159 0 
L 581 0 
L 581 4863 
L 1159 4863 
L 1159 2969 
z
" transform="scale(0.015625)"/>
     </defs>
     <use xlink:href="#DejaVuSans-62"/>
    </g>
   </g>
   <g id="text_5">
    <!-- c -->
    <g transform="translate(5.922187 89.183125) scale(0.14 -0.14)">
     <use xlink:href="#DejaVuSans-63"/>
    </g>
   </g>
  </g>
 </g>
 <defs>
  <clipPath id="p8d82ca2c06">
   <rect x="0" y="0" width="246" height="99"/>
  </clipPath>
 </defs>
</svg>
