<?xml version="1.0" encoding="utf-8" standalone="no"?>
<!DOCTYPE svg PUBLIC "-//W3C//DTD SVG 1.1//EN"
  "http://www.w3.org/Graphics/SVG/1.1/DTD/svg11.dtd">
<svg xmlns:xlink="http://www.w3.org/1999/xlink" width="322.44pt" height="193.86pt" viewBox="0 0 322.44 193.86" xmlns="http://www.w3.org/2000/svg" version="1.1">
 <metadata>
  <rdf:RDF xmlns:dc="http://purl.org/dc/elements/1.1/" xmlns:cc="http://creativecommons.org/ns#" xmlns:rdf="http://www.w3.org/1999/02/22-rdf-syntax-ns#">
   <cc:Work>
    <dc:type rdf:resource="http://purl.org/dc/dcmitype/StillImage"/>
    <dc:date>2024-09-01T12:28:29.760983</dc:date>
    <dc:format>image/svg+xml</dc:format>
    <dc:creator>
     <cc:Agent>
      <dc:title>Matplotlib v3.9.0, https://matplotlib.org/</dc:title>
     </cc:Agent>
    </dc:creator>
   </cc:Work>
  </rdf:RDF>
 </metadata>
 <defs>
  <style type="text/css">*{stroke-linejoin: round; stroke-linecap: butt}</style>
 </defs>
 <g id="figure_1">
  <g id="patch_1">
   <path d="M 0 193.86 
L 322.44 193.86 
L 322.44 0 
L 0 0 
L 0 193.86 
z
" style="fill: none"/>
  </g>
  <g id="axes_1">
   <g id="patch_2">
    <path d="M 223.98 104.625 
C 225.125677 104.625 226.224585 104.169818 227.034701 103.359701 
C 227.844818 102.549585 228.3 101.450677 228.3 100.305 
C 228.3 99.159323 227.844818 98.060415 227.034701 97.250299 
C 226.224585 96.440182 225.125677 95.985 223.98 95.985 
C 222.834323 95.985 221.735415 96.440182 220.925299 97.250299 
C 220.115182 98.060415 219.66 99.159323 219.66 100.305 
C 219.66 101.450677 220.115182 102.549585 220.925299 103.359701 
C 221.735415 104.169818 222.834323 104.625 223.98 104.625 
L 223.98 104.625 
z
" clip-path="url(#pc1dbaf77bc)" style="fill: none; stroke: #000000; stroke-width: 2; stroke-linejoin: miter"/>
   </g>
   <g id="patch_3">
    <path d="M 151.98 155.25 
C 153.125677 155.25 154.224585 154.794818 155.034701 153.984701 
C 155.844818 153.174585 156.3 152.075677 156.3 150.93 
C 156.3 149.784323 155.844818 148.685415 155.034701 147.875299 
C 154.224585 147.065182 153.125677 146.61 151.98 146.61 
C 150.834323 146.61 149.735415 147.065182 148.925299 147.875299 
C 148.115182 148.685415 147.66 149.784323 147.66 150.93 
C 147.66 152.075677 148.115182 153.174585 148.925299 153.984701 
C 149.735415 154.794818 150.834323 155.25 151.98 155.25 
L 151.98 155.25 
z
" clip-path="url(#pc1dbaf77bc)" style="fill: none; stroke: #000000; stroke-width: 2; stroke-linejoin: miter"/>
   </g>
   <g id="patch_4">
    <path d="M 79.98 135 
C 81.125677 135 82.224585 134.544818 83.034701 133.734701 
C 83.844818 132.924585 84.3 131.825677 84.3 130.68 
C 84.3 129.534323 83.844818 128.435415 83.034701 127.625299 
C 82.224585 126.815182 81.125677 126.36 79.98 126.36 
C 78.834323 126.36 77.735415 126.815182 76.925299 127.625299 
C 76.115182 128.435415 75.66 129.534323 75.66 130.68 
C 75.66 131.825677 76.115182 132.924585 76.925299 133.734701 
C 77.735415 134.544818 78.834323 135 79.98 135 
L 79.98 135 
z
" clip-path="url(#pc1dbaf77bc)" style="fill: none; stroke: #000000; stroke-width: 2; stroke-linejoin: miter"/>
   </g>
   <g id="patch_5">
    <path d="M 63.96 175.5 
C 65.105677 175.5 66.204585 175.044818 67.014701 174.234701 
C 67.824818 173.424585 68.28 172.325677 68.28 171.18 
C 68.28 170.034323 67.824818 168.935415 67.014701 168.125299 
C 66.204585 167.315182 65.105677 166.86 63.96 166.86 
C 62.814323 166.86 61.715415 167.315182 60.905299 168.125299 
C 60.095182 168.935415 59.64 170.034323 59.64 171.18 
C 59.64 172.325677 60.095182 173.424585 60.905299 174.234701 
C 61.715415 175.044818 62.814323 175.5 63.96 175.5 
L 63.96 175.5 
z
" clip-path="url(#pc1dbaf77bc)" style="fill: none; stroke: #000000; stroke-width: 2; stroke-linejoin: miter"/>
   </g>
   <g id="line2d_1">
    <path d="M 176.46 117.945 
L 196.002857 117.878878 
L 198.06 117.585 
L 200.117143 117.05602 
L 202.174286 116.291939 
L 204.231429 115.292755 
L 206.288571 114.058469 
L 208.345714 112.589082 
L 210.402857 110.884592 
L 212.974286 108.423367 
L 215.545714 105.594796 
L 218.117143 102.398878 
L 219.66 100.305 
L 219.66 100.305 
L 217.088571 96.888673 
L 214.517143 93.839694 
L 211.945714 91.158061 
L 209.374286 88.843776 
L 207.317143 87.256837 
L 205.26 85.905 
L 203.202857 84.788265 
L 201.145714 83.906633 
L 199.088571 83.260102 
L 197.031429 82.848673 
L 194.974286 82.672347 
L 194.46 82.665 
L 176.46 82.665 
L 176.46 82.665 
L 178.4472 84.825 
L 180.1752 86.985 
L 181.644 89.145 
L 182.8536 91.305 
L 183.804 93.465 
L 184.4952 95.625 
L 184.9272 97.785 
L 185.1 99.945 
L 185.0136 102.105 
L 184.668 104.265 
L 184.0632 106.425 
L 183.1992 108.585 
L 182.076 110.745 
L 180.6936 112.905 
L 179.052 115.065 
L 177.1512 117.225 
L 176.46 117.945 
L 176.46 117.945 
" clip-path="url(#pc1dbaf77bc)" style="fill: none; stroke: #000000; stroke-width: 2; stroke-linecap: round"/>
   </g>
   <g id="line2d_2">
    <path d="M 163.86 109.305 
L 182.8536 109.305 
" clip-path="url(#pc1dbaf77bc)" style="fill: none; stroke: #000000; stroke-width: 2; stroke-linecap: round"/>
   </g>
   <g id="line2d_3">
    <path d="M 163.86 91.305 
L 182.8536 91.305 
" clip-path="url(#pc1dbaf77bc)" style="fill: none; stroke: #000000; stroke-width: 2; stroke-linecap: round"/>
   </g>
   <g id="line2d_4">
    <path d="M 228.3 100.305 
L 232.26 100.305 
" clip-path="url(#pc1dbaf77bc)" style="fill: none; stroke: #000000; stroke-width: 2; stroke-linecap: round"/>
   </g>
   <g id="line2d_5">
    <path d="M 104.46 67.32 
L 124.002857 67.253878 
L 126.06 66.96 
L 128.117143 66.43102 
L 130.174286 65.666939 
L 132.231429 64.667755 
L 134.288571 63.433469 
L 136.345714 61.964082 
L 138.402857 60.259592 
L 140.974286 57.798367 
L 143.545714 54.969796 
L 146.117143 51.773878 
L 147.66 49.68 
L 147.66 49.68 
L 145.088571 46.263673 
L 142.517143 43.214694 
L 139.945714 40.533061 
L 137.374286 38.218776 
L 135.317143 36.631837 
L 133.26 35.28 
L 131.202857 34.163265 
L 129.145714 33.281633 
L 127.088571 32.635102 
L 125.031429 32.223673 
L 122.974286 32.047347 
L 122.46 32.04 
L 104.46 32.04 
L 104.46 32.04 
L 106.4472 34.2 
L 108.1752 36.36 
L 109.644 38.52 
L 110.8536 40.68 
L 111.804 42.84 
L 112.4952 45 
L 112.9272 47.16 
L 113.1 49.32 
L 113.0136 51.48 
L 112.668 53.64 
L 112.0632 55.8 
L 111.1992 57.96 
L 110.076 60.12 
L 108.6936 62.28 
L 107.052 64.44 
L 105.1512 66.6 
L 104.46 67.32 
L 104.46 67.32 
" clip-path="url(#pc1dbaf77bc)" style="fill: none; stroke: #000000; stroke-width: 2; stroke-linecap: round"/>
   </g>
   <g id="line2d_6">
    <path d="M 91.86 58.68 
L 110.8536 58.68 
" clip-path="url(#pc1dbaf77bc)" style="fill: none; stroke: #000000; stroke-width: 2; stroke-linecap: round"/>
   </g>
   <g id="line2d_7">
    <path d="M 91.86 40.68 
L 110.8536 40.68 
" clip-path="url(#pc1dbaf77bc)" style="fill: none; stroke: #000000; stroke-width: 2; stroke-linecap: round"/>
   </g>
   <g id="line2d_8">
    <path d="M 147.66 49.68 
L 160.26 49.68 
" clip-path="url(#pc1dbaf77bc)" style="fill: none; stroke: #000000; stroke-width: 2; stroke-linecap: round"/>
   </g>
   <g id="line2d_9">
    <path d="M 57.66 40.68 
L 58.813264 40.643017 
L 59.961789 40.53222 
L 61.100855 40.348065 
L 62.225783 40.091308 
L 63.331948 39.763003 
L 64.414806 39.364502 
L 65.469907 38.89744 
L 66.492916 38.363737 
L 67.479628 37.765586 
L 68.42599 37.105445 
L 69.328111 36.386027 
L 70.182286 35.610288 
L 70.985004 34.781416 
L 71.732967 33.902816 
L 72.423101 32.9781 
L 73.05257 32.011066 
L 73.618788 31.005689 
L 74.119427 29.9661 
L 74.552432 28.896571 
L 74.916021 27.801497 
L 75.208702 26.685377 
L 75.429272 25.552798 
L 75.576824 24.408414 
L 75.650752 23.256928 
L 75.650752 22.103072 
L 75.576824 20.951586 
L 75.429272 19.807202 
L 75.208702 18.674623 
L 74.916021 17.558503 
L 74.552432 16.463429 
L 74.119427 15.3939 
L 73.618788 14.354311 
L 73.05257 13.348934 
L 72.423101 12.3819 
L 71.732967 11.457184 
L 70.985004 10.578584 
L 70.182286 9.749712 
L 69.328111 8.973973 
L 68.42599 8.254555 
L 67.479628 7.594414 
L 66.492916 6.996263 
L 65.469907 6.46256 
L 64.414806 5.995498 
L 63.331948 5.596997 
L 62.225783 5.268692 
L 61.100855 5.011935 
L 59.961789 4.82778 
L 58.813264 4.716983 
L 57.66 4.68 
L 57.66 4.68 
L 34.26 4.68 
L 34.26 22.68 
L 34.26 40.68 
L 57.66 40.68 
" clip-path="url(#pc1dbaf77bc)" style="fill: none; stroke: #000000; stroke-width: 2; stroke-linecap: round"/>
   </g>
   <g id="line2d_10">
    <path d="M 21.66 31.68 
L 34.26 31.68 
" clip-path="url(#pc1dbaf77bc)" style="fill: none; stroke: #000000; stroke-width: 2; stroke-linecap: round"/>
   </g>
   <g id="line2d_11">
    <path d="M 21.66 13.68 
L 34.26 13.68 
" clip-path="url(#pc1dbaf77bc)" style="fill: none; stroke: #000000; stroke-width: 2; stroke-linecap: round"/>
   </g>
   <g id="line2d_12">
    <path d="M 75.66 22.68 
L 88.26 22.68 
" clip-path="url(#pc1dbaf77bc)" style="fill: none; stroke: #000000; stroke-width: 2; stroke-linecap: round"/>
   </g>
   <g id="line2d_13">
    <path d="M 91.86 40.68 
L 88.26 40.68 
L 88.26 22.68 
" clip-path="url(#pc1dbaf77bc)" style="fill: none; stroke: #000000; stroke-width: 2; stroke-linecap: round"/>
   </g>
   <g id="line2d_14">
    <path d="M 32.46 94.32 
L 52.002857 94.253878 
L 54.06 93.96 
L 56.117143 93.43102 
L 58.174286 92.666939 
L 60.231429 91.667755 
L 62.288571 90.433469 
L 64.345714 88.964082 
L 66.402857 87.259592 
L 68.974286 84.798367 
L 71.545714 81.969796 
L 74.117143 78.773878 
L 75.66 76.68 
L 75.66 76.68 
L 73.088571 73.263673 
L 70.517143 70.214694 
L 67.945714 67.533061 
L 65.374286 65.218776 
L 63.317143 63.631837 
L 61.26 62.28 
L 59.202857 61.163265 
L 57.145714 60.281633 
L 55.088571 59.635102 
L 53.031429 59.223673 
L 50.974286 59.047347 
L 50.46 59.04 
L 32.46 59.04 
L 32.46 59.04 
L 34.4472 61.2 
L 36.1752 63.36 
L 37.644 65.52 
L 38.8536 67.68 
L 39.804 69.84 
L 40.4952 72 
L 40.9272 74.16 
L 41.1 76.32 
L 41.0136 78.48 
L 40.668 80.64 
L 40.0632 82.8 
L 39.1992 84.96 
L 38.076 87.12 
L 36.6936 89.28 
L 35.052 91.44 
L 33.1512 93.6 
L 32.46 94.32 
L 32.46 94.32 
" clip-path="url(#pc1dbaf77bc)" style="fill: none; stroke: #000000; stroke-width: 2; stroke-linecap: round"/>
   </g>
   <g id="line2d_15">
    <path d="M 19.86 85.68 
L 38.8536 85.68 
" clip-path="url(#pc1dbaf77bc)" style="fill: none; stroke: #000000; stroke-width: 2; stroke-linecap: round"/>
   </g>
   <g id="line2d_16">
    <path d="M 19.86 67.68 
L 38.8536 67.68 
" clip-path="url(#pc1dbaf77bc)" style="fill: none; stroke: #000000; stroke-width: 2; stroke-linecap: round"/>
   </g>
   <g id="line2d_17">
    <path d="M 75.66 76.68 
L 88.26 76.68 
" clip-path="url(#pc1dbaf77bc)" style="fill: none; stroke: #000000; stroke-width: 2; stroke-linecap: round"/>
   </g>
   <g id="line2d_18">
    <path d="M 91.86 58.68 
L 88.26 58.68 
L 88.26 76.68 
" clip-path="url(#pc1dbaf77bc)" style="fill: none; stroke: #000000; stroke-width: 2; stroke-linecap: round"/>
   </g>
   <g id="line2d_19">
    <path d="M 163.86 91.305 
L 160.26 91.305 
L 160.26 49.68 
" clip-path="url(#pc1dbaf77bc)" style="fill: none; stroke: #000000; stroke-width: 2; stroke-linecap: round"/>
   </g>
   <g id="line2d_20">
    <path d="M 129.66 168.93 
L 130.813264 168.893017 
L 131.961789 168.78222 
L 133.100855 168.598065 
L 134.225783 168.341308 
L 135.331948 168.013003 
L 136.414806 167.614502 
L 137.469907 167.14744 
L 138.492916 166.613737 
L 139.479628 166.015586 
L 140.42599 165.355445 
L 141.328111 164.636027 
L 142.182286 163.860288 
L 142.985004 163.031416 
L 143.732967 162.152816 
L 144.423101 161.2281 
L 145.05257 160.261066 
L 145.618788 159.255689 
L 146.119427 158.2161 
L 146.552432 157.146571 
L 146.916021 156.051497 
L 147.208702 154.935377 
L 147.429272 153.802798 
L 147.576824 152.658414 
L 147.650752 151.506928 
L 147.650752 150.353072 
L 147.576824 149.201586 
L 147.429272 148.057202 
L 147.208702 146.924623 
L 146.916021 145.808503 
L 146.552432 144.713429 
L 146.119427 143.6439 
L 145.618788 142.604311 
L 145.05257 141.598934 
L 144.423101 140.6319 
L 143.732967 139.707184 
L 142.985004 138.828584 
L 142.182286 137.999712 
L 141.328111 137.223973 
L 140.42599 136.504555 
L 139.479628 135.844414 
L 138.492916 135.246263 
L 137.469907 134.71256 
L 136.414806 134.245498 
L 135.331948 133.846997 
L 134.225783 133.518692 
L 133.100855 133.261935 
L 131.961789 133.07778 
L 130.813264 132.966983 
L 129.66 132.93 
L 129.66 132.93 
L 106.26 132.93 
L 106.26 150.93 
L 106.26 168.93 
L 129.66 168.93 
" clip-path="url(#pc1dbaf77bc)" style="fill: none; stroke: #000000; stroke-width: 2; stroke-linecap: round"/>
   </g>
   <g id="line2d_21">
    <path d="M 93.66 159.93 
L 106.26 159.93 
" clip-path="url(#pc1dbaf77bc)" style="fill: none; stroke: #000000; stroke-width: 2; stroke-linecap: round"/>
   </g>
   <g id="line2d_22">
    <path d="M 93.66 141.93 
L 106.26 141.93 
" clip-path="url(#pc1dbaf77bc)" style="fill: none; stroke: #000000; stroke-width: 2; stroke-linecap: round"/>
   </g>
   <g id="line2d_23">
    <path d="M 156.3 150.93 
L 160.26 150.93 
" clip-path="url(#pc1dbaf77bc)" style="fill: none; stroke: #000000; stroke-width: 2; stroke-linecap: round"/>
   </g>
   <g id="line2d_24">
    <path d="M 57.66 148.68 
L 58.813264 148.643017 
L 59.961789 148.53222 
L 61.100855 148.348065 
L 62.225783 148.091308 
L 63.331948 147.763003 
L 64.414806 147.364502 
L 65.469907 146.89744 
L 66.492916 146.363737 
L 67.479628 145.765586 
L 68.42599 145.105445 
L 69.328111 144.386027 
L 70.182286 143.610288 
L 70.985004 142.781416 
L 71.732967 141.902816 
L 72.423101 140.9781 
L 73.05257 140.011066 
L 73.618788 139.005689 
L 74.119427 137.9661 
L 74.552432 136.896571 
L 74.916021 135.801497 
L 75.208702 134.685377 
L 75.429272 133.552798 
L 75.576824 132.408414 
L 75.650752 131.256928 
L 75.650752 130.103072 
L 75.576824 128.951586 
L 75.429272 127.807202 
L 75.208702 126.674623 
L 74.916021 125.558503 
L 74.552432 124.463429 
L 74.119427 123.3939 
L 73.618788 122.354311 
L 73.05257 121.348934 
L 72.423101 120.3819 
L 71.732967 119.457184 
L 70.985004 118.578584 
L 70.182286 117.749712 
L 69.328111 116.973973 
L 68.42599 116.254555 
L 67.479628 115.594414 
L 66.492916 114.996263 
L 65.469907 114.46256 
L 64.414806 113.995498 
L 63.331948 113.596997 
L 62.225783 113.268692 
L 61.100855 113.011935 
L 59.961789 112.82778 
L 58.813264 112.716983 
L 57.66 112.68 
L 57.66 112.68 
L 34.26 112.68 
L 34.26 130.68 
L 34.26 148.68 
L 57.66 148.68 
" clip-path="url(#pc1dbaf77bc)" style="fill: none; stroke: #000000; stroke-width: 2; stroke-linecap: round"/>
   </g>
   <g id="line2d_25">
    <path d="M 21.66 139.68 
L 34.26 139.68 
" clip-path="url(#pc1dbaf77bc)" style="fill: none; stroke: #000000; stroke-width: 2; stroke-linecap: round"/>
   </g>
   <g id="line2d_26">
    <path d="M 21.66 121.68 
L 34.26 121.68 
" clip-path="url(#pc1dbaf77bc)" style="fill: none; stroke: #000000; stroke-width: 2; stroke-linecap: round"/>
   </g>
   <g id="line2d_27">
    <path d="M 84.3 130.68 
L 88.26 130.68 
" clip-path="url(#pc1dbaf77bc)" style="fill: none; stroke: #000000; stroke-width: 2; stroke-linecap: round"/>
   </g>
   <g id="line2d_28">
    <path d="M 93.66 141.93 
L 88.26 141.93 
L 88.26 130.68 
" clip-path="url(#pc1dbaf77bc)" style="fill: none; stroke: #000000; stroke-width: 2; stroke-linecap: round"/>
   </g>
   <g id="line2d_29">
    <path d="M 16.26 171.18 
L 36.24 171.18 
M 68.28 171.18 
L 88.26 171.18 
" clip-path="url(#pc1dbaf77bc)" style="fill: none; stroke: #000000; stroke-width: 2; stroke-linecap: round"/>
   </g>
   <g id="line2d_30">
    <path d="M 36.24 153.18 
L 59.64 171.18 
L 36.24 189.18 
L 36.24 153.18 
" clip-path="url(#pc1dbaf77bc)" style="fill: none; stroke: #000000; stroke-width: 2; stroke-linecap: round"/>
   </g>
   <g id="line2d_31">
    <path d="M 93.66 159.93 
L 88.26 159.93 
L 88.26 171.18 
" clip-path="url(#pc1dbaf77bc)" style="fill: none; stroke: #000000; stroke-width: 2; stroke-linecap: round"/>
   </g>
   <g id="line2d_32">
    <path d="M 163.86 109.305 
L 160.26 109.305 
L 160.26 150.93 
" clip-path="url(#pc1dbaf77bc)" style="fill: none; stroke: #000000; stroke-width: 2; stroke-linecap: round"/>
   </g>
   <g id="text_1">
    <!-- $\text{Output}$ -->
    <g transform="translate(235.86 104.139687) scale(0.14 -0.14)">
     <defs>
      <path id="DejaVuSans-4f" d="M 2522 4238 
Q 1834 4238 1429 3725 
Q 1025 3213 1025 2328 
Q 1025 1447 1429 934 
Q 1834 422 2522 422 
Q 3209 422 3611 934 
Q 4013 1447 4013 2328 
Q 4013 3213 3611 3725 
Q 3209 4238 2522 4238 
z
M 2522 4750 
Q 3503 4750 4090 4092 
Q 4678 3434 4678 2328 
Q 4678 1225 4090 567 
Q 3503 -91 2522 -91 
Q 1538 -91 948 565 
Q 359 1222 359 2328 
Q 359 3434 948 4092 
Q 1538 4750 2522 4750 
z
" transform="scale(0.015625)"/>
      <path id="DejaVuSans-75" d="M 544 1381 
L 544 3500 
L 1119 3500 
L 1119 1403 
Q 1119 906 1312 657 
Q 1506 409 1894 409 
Q 2359 409 2629 706 
Q 2900 1003 2900 1516 
L 2900 3500 
L 3475 3500 
L 3475 0 
L 2900 0 
L 2900 538 
Q 2691 219 2414 64 
Q 2138 -91 1772 -91 
Q 1169 -91 856 284 
Q 544 659 544 1381 
z
M 1991 3584 
L 1991 3584 
z
" transform="scale(0.015625)"/>
      <path id="DejaVuSans-74" d="M 1172 4494 
L 1172 3500 
L 2356 3500 
L 2356 3053 
L 1172 3053 
L 1172 1153 
Q 1172 725 1289 603 
Q 1406 481 1766 481 
L 2356 481 
L 2356 0 
L 1766 0 
Q 1100 0 847 248 
Q 594 497 594 1153 
L 594 3053 
L 172 3053 
L 172 3500 
L 594 3500 
L 594 4494 
L 1172 4494 
z
" transform="scale(0.015625)"/>
      <path id="DejaVuSans-70" d="M 1159 525 
L 1159 -1331 
L 581 -1331 
L 581 3500 
L 1159 3500 
L 1159 2969 
Q 1341 3281 1617 3432 
Q 1894 3584 2278 3584 
Q 2916 3584 3314 3078 
Q 3713 2572 3713 1747 
Q 3713 922 3314 415 
Q 2916 -91 2278 -91 
Q 1894 -91 1617 61 
Q 1341 213 1159 525 
z
M 3116 1747 
Q 3116 2381 2855 2742 
Q 2594 3103 2138 3103 
Q 1681 3103 1420 2742 
Q 1159 2381 1159 1747 
Q 1159 1113 1420 752 
Q 1681 391 2138 391 
Q 2594 391 2855 752 
Q 3116 1113 3116 1747 
z
" transform="scale(0.015625)"/>
     </defs>
     <use xlink:href="#DejaVuSans-4f" transform="translate(0 0.78125)"/>
     <use xlink:href="#DejaVuSans-75" transform="translate(78.710938 0.78125)"/>
     <use xlink:href="#DejaVuSans-74" transform="translate(142.089844 0.78125)"/>
     <use xlink:href="#DejaVuSans-70" transform="translate(181.298828 0.78125)"/>
     <use xlink:href="#DejaVuSans-75" transform="translate(244.775391 0.78125)"/>
     <use xlink:href="#DejaVuSans-74" transform="translate(308.154297 0.78125)"/>
    </g>
   </g>
   <g id="text_2">
    <!-- c -->
    <g transform="translate(10.362187 17.543125) scale(0.14 -0.14)">
     <defs>
      <path id="DejaVuSans-63" d="M 3122 3366 
L 3122 2828 
Q 2878 2963 2633 3030 
Q 2388 3097 2138 3097 
Q 1578 3097 1268 2742 
Q 959 2388 959 1747 
Q 959 1106 1268 751 
Q 1578 397 2138 397 
Q 2388 397 2633 464 
Q 2878 531 3122 666 
L 3122 134 
Q 2881 22 2623 -34 
Q 2366 -91 2075 -91 
Q 1284 -91 818 406 
Q 353 903 353 1747 
Q 353 2603 823 3093 
Q 1294 3584 2113 3584 
Q 2378 3584 2631 3529 
Q 2884 3475 3122 3366 
z
" transform="scale(0.015625)"/>
     </defs>
     <use xlink:href="#DejaVuSans-63"/>
    </g>
   </g>
   <g id="text_3">
    <!-- c -->
    <g transform="translate(10.362187 35.543125) scale(0.14 -0.14)">
     <use xlink:href="#DejaVuSans-63"/>
    </g>
   </g>
   <g id="text_4">
    <!-- b -->
    <g transform="translate(7.372187 71.543125) scale(0.14 -0.14)">
     <defs>
      <path id="DejaVuSans-62" d="M 3116 1747 
Q 3116 2381 2855 2742 
Q 2594 3103 2138 3103 
Q 1681 3103 1420 2742 
Q 1159 2381 1159 1747 
Q 1159 1113 1420 752 
Q 1681 391 2138 391 
Q 2594 391 2855 752 
Q 3116 1113 3116 1747 
z
M 1159 2969 
Q 1341 3281 1617 3432 
Q 1894 3584 2278 3584 
Q 2916 3584 3314 3078 
Q 3713 2572 3713 1747 
Q 3713 922 3314 415 
Q 2916 -91 2278 -91 
Q 1894 -91 1617 61 
Q 1341 213 1159 525 
L 1159 0 
L 581 0 
L 581 4863 
L 1159 4863 
L 1159 2969 
z
" transform="scale(0.015625)"/>
     </defs>
     <use xlink:href="#DejaVuSans-62"/>
    </g>
   </g>
   <g id="text_5">
    <!-- b -->
    <g transform="translate(7.372187 89.543125) scale(0.14 -0.14)">
     <use xlink:href="#DejaVuSans-62"/>
    </g>
   </g>
   <g id="text_6">
    <!-- a -->
    <g transform="translate(9.480625 125.543125) scale(0.14 -0.14)">
     <defs>
      <path id="DejaVuSans-61" d="M 2194 1759 
Q 1497 1759 1228 1600 
Q 959 1441 959 1056 
Q 959 750 1161 570 
Q 1363 391 1709 391 
Q 2188 391 2477 730 
Q 2766 1069 2766 1631 
L 2766 1759 
L 2194 1759 
z
M 3341 1997 
L 3341 0 
L 2766 0 
L 2766 531 
Q 2569 213 2275 61 
Q 1981 -91 1556 -91 
Q 1019 -91 701 211 
Q 384 513 384 1019 
Q 384 1609 779 1909 
Q 1175 2209 1959 2209 
L 2766 2209 
L 2766 2266 
Q 2766 2663 2505 2880 
Q 2244 3097 1772 3097 
Q 1472 3097 1187 3025 
Q 903 2953 641 2809 
L 641 3341 
Q 956 3463 1253 3523 
Q 1550 3584 1831 3584 
Q 2591 3584 2966 3190 
Q 3341 2797 3341 1997 
z
" transform="scale(0.015625)"/>
     </defs>
     <use xlink:href="#DejaVuSans-61"/>
    </g>
   </g>
   <g id="text_7">
    <!-- a -->
    <g transform="translate(9.480625 143.543125) scale(0.14 -0.14)">
     <use xlink:href="#DejaVuSans-61"/>
    </g>
   </g>
   <g id="text_8">
    <!-- a -->
    <g transform="translate(4.080625 175.043125) scale(0.14 -0.14)">
     <use xlink:href="#DejaVuSans-61"/>
    </g>
   </g>
  </g>
 </g>
 <defs>
  <clipPath id="pc1dbaf77bc">
   <rect x="0" y="-0" width="322.44" height="193.86"/>
  </clipPath>
 </defs>
</svg>
