<?xml version="1.0" encoding="utf-8" standalone="no"?>
<!DOCTYPE svg PUBLIC "-//W3C//DTD SVG 1.1//EN"
  "http://www.w3.org/Graphics/SVG/1.1/DTD/svg11.dtd">
<svg xmlns:xlink="http://www.w3.org/1999/xlink" width="245.04pt" height="99.36pt" viewBox="0 0 245.04 99.36" xmlns="http://www.w3.org/2000/svg" version="1.1">
 <metadata>
  <rdf:RDF xmlns:dc="http://purl.org/dc/elements/1.1/" xmlns:cc="http://creativecommons.org/ns#" xmlns:rdf="http://www.w3.org/1999/02/22-rdf-syntax-ns#">
   <cc:Work>
    <dc:type rdf:resource="http://purl.org/dc/dcmitype/StillImage"/>
    <dc:date>2024-08-14T09:22:27.781743</dc:date>
    <dc:format>image/svg+xml</dc:format>
    <dc:creator>
     <cc:Agent>
      <dc:title>Matplotlib v3.9.0, https://matplotlib.org/</dc:title>
     </cc:Agent>
    </dc:creator>
   </cc:Work>
  </rdf:RDF>
 </metadata>
 <defs>
  <style type="text/css">*{stroke-linejoin: round; stroke-linecap: butt}</style>
 </defs>
 <g id="figure_1">
  <g id="patch_1">
   <path d="M 0 99.36 
L 245.04 99.36 
L 245.04 0 
L 0 0 
L 0 99.36 
z
" style="fill: none"/>
  </g>
  <g id="axes_1">
   <g id="patch_2">
    <path d="M 146.58 54 
C 147.725677 54 148.824585 53.544818 149.634701 52.734701 
C 150.444818 51.924585 150.9 50.825677 150.9 49.68 
C 150.9 48.534323 150.444818 47.435415 149.634701 46.625299 
C 148.824585 45.815182 147.725677 45.36 146.58 45.36 
C 145.434323 45.36 144.335415 45.815182 143.525299 46.625299 
C 142.715182 47.435415 142.26 48.534323 142.26 49.68 
C 142.26 50.825677 142.715182 51.924585 143.525299 52.734701 
C 144.335415 53.544818 145.434323 54 146.58 54 
L 146.58 54 
z
" clip-path="url(#pc0f4627c6d)" style="fill: none; stroke: #000000; stroke-width: 2; stroke-linejoin: miter"/>
   </g>
   <g id="patch_3">
    <path d="M 74.58 27 
C 75.725677 27 76.824585 26.544818 77.634701 25.734701 
C 78.444818 24.924585 78.9 23.825677 78.9 22.68 
C 78.9 21.534323 78.444818 20.435415 77.634701 19.625299 
C 76.824585 18.815182 75.725677 18.36 74.58 18.36 
C 73.434323 18.36 72.335415 18.815182 71.525299 19.625299 
C 70.715182 20.435415 70.26 21.534323 70.26 22.68 
C 70.26 23.825677 70.715182 24.924585 71.525299 25.734701 
C 72.335415 26.544818 73.434323 27 74.58 27 
L 74.58 27 
z
" clip-path="url(#pc0f4627c6d)" style="fill: none; stroke: #000000; stroke-width: 2; stroke-linejoin: miter"/>
   </g>
   <g id="line2d_1">
    <path d="M 99.06 67.32 
L 118.602857 67.253878 
L 120.66 66.96 
L 122.717143 66.43102 
L 124.774286 65.666939 
L 126.831429 64.667755 
L 128.888571 63.433469 
L 130.945714 61.964082 
L 133.002857 60.259592 
L 135.574286 57.798367 
L 138.145714 54.969796 
L 140.717143 51.773878 
L 142.26 49.68 
L 142.26 49.68 
L 139.688571 46.263673 
L 137.117143 43.214694 
L 134.545714 40.533061 
L 131.974286 38.218776 
L 129.917143 36.631837 
L 127.86 35.28 
L 125.802857 34.163265 
L 123.745714 33.281633 
L 121.688571 32.635102 
L 119.631429 32.223673 
L 117.574286 32.047347 
L 117.06 32.04 
L 99.06 32.04 
L 99.06 32.04 
L 101.0472 34.2 
L 102.7752 36.36 
L 104.244 38.52 
L 105.4536 40.68 
L 106.404 42.84 
L 107.0952 45 
L 107.5272 47.16 
L 107.7 49.32 
L 107.6136 51.48 
L 107.268 53.64 
L 106.6632 55.8 
L 105.7992 57.96 
L 104.676 60.12 
L 103.2936 62.28 
L 101.652 64.44 
L 99.7512 66.6 
L 99.06 67.32 
L 99.06 67.32 
" clip-path="url(#pc0f4627c6d)" style="fill: none; stroke: #000000; stroke-width: 2; stroke-linecap: round"/>
   </g>
   <g id="line2d_2">
    <path d="M 93.66 67.32 
L 94.3512 66.6 
L 95.0136 65.88 
L 95.6472 65.16 
L 96.252 64.44 
L 96.828 63.72 
L 97.3752 63 
L 97.8936 62.28 
L 98.3832 61.56 
L 98.844 60.84 
L 99.276 60.12 
L 99.6792 59.4 
L 100.0536 58.68 
L 100.3992 57.96 
L 100.716 57.24 
L 101.004 56.52 
L 101.2632 55.8 
L 101.4936 55.08 
L 101.6952 54.36 
L 101.868 53.64 
L 102.012 52.92 
L 102.1272 52.2 
L 102.2136 51.48 
L 102.2712 50.76 
L 102.3 50.04 
L 102.3 49.32 
L 102.2712 48.6 
L 102.2136 47.88 
L 102.1272 47.16 
L 102.012 46.44 
L 101.868 45.72 
L 101.6952 45 
L 101.4936 44.28 
L 101.2632 43.56 
L 101.004 42.84 
L 100.716 42.12 
L 100.3992 41.4 
L 100.0536 40.68 
L 99.6792 39.96 
L 99.276 39.24 
L 98.844 38.52 
L 98.3832 37.8 
L 97.8936 37.08 
L 97.3752 36.36 
L 96.828 35.64 
L 96.252 34.92 
L 95.6472 34.2 
L 95.0136 33.48 
L 94.3512 32.76 
L 93.66 32.04 
" clip-path="url(#pc0f4627c6d)" style="fill: none; stroke: #000000; stroke-width: 2; stroke-linecap: round"/>
   </g>
   <g id="line2d_3">
    <path d="M 86.46 58.68 
L 100.0536 58.68 
" clip-path="url(#pc0f4627c6d)" style="fill: none; stroke: #000000; stroke-width: 2; stroke-linecap: round"/>
   </g>
   <g id="line2d_4">
    <path d="M 86.46 40.68 
L 100.0536 40.68 
" clip-path="url(#pc0f4627c6d)" style="fill: none; stroke: #000000; stroke-width: 2; stroke-linecap: round"/>
   </g>
   <g id="line2d_5">
    <path d="M 150.9 49.68 
L 154.86 49.68 
" clip-path="url(#pc0f4627c6d)" style="fill: none; stroke: #000000; stroke-width: 2; stroke-linecap: round"/>
   </g>
   <g id="line2d_6">
    <path d="M 52.26 40.68 
L 53.413264 40.643017 
L 54.561789 40.53222 
L 55.700855 40.348065 
L 56.825783 40.091308 
L 57.931948 39.763003 
L 59.014806 39.364502 
L 60.069907 38.89744 
L 61.092916 38.363737 
L 62.079628 37.765586 
L 63.02599 37.105445 
L 63.928111 36.386027 
L 64.782286 35.610288 
L 65.585004 34.781416 
L 66.332967 33.902816 
L 67.023101 32.9781 
L 67.65257 32.011066 
L 68.218788 31.005689 
L 68.719427 29.9661 
L 69.152432 28.896571 
L 69.516021 27.801497 
L 69.808702 26.685377 
L 70.029272 25.552798 
L 70.176824 24.408414 
L 70.250752 23.256928 
L 70.250752 22.103072 
L 70.176824 20.951586 
L 70.029272 19.807202 
L 69.808702 18.674623 
L 69.516021 17.558503 
L 69.152432 16.463429 
L 68.719427 15.3939 
L 68.218788 14.354311 
L 67.65257 13.348934 
L 67.023101 12.3819 
L 66.332967 11.457184 
L 65.585004 10.578584 
L 64.782286 9.749712 
L 63.928111 8.973973 
L 63.02599 8.254555 
L 62.079628 7.594414 
L 61.092916 6.996263 
L 60.069907 6.46256 
L 59.014806 5.995498 
L 57.931948 5.596997 
L 56.825783 5.268692 
L 55.700855 5.011935 
L 54.561789 4.82778 
L 53.413264 4.716983 
L 52.26 4.68 
L 52.26 4.68 
L 28.86 4.68 
L 28.86 22.68 
L 28.86 40.68 
L 52.26 40.68 
" clip-path="url(#pc0f4627c6d)" style="fill: none; stroke: #000000; stroke-width: 2; stroke-linecap: round"/>
   </g>
   <g id="line2d_7">
    <path d="M 16.26 31.68 
L 28.86 31.68 
" clip-path="url(#pc0f4627c6d)" style="fill: none; stroke: #000000; stroke-width: 2; stroke-linecap: round"/>
   </g>
   <g id="line2d_8">
    <path d="M 16.26 13.68 
L 28.86 13.68 
" clip-path="url(#pc0f4627c6d)" style="fill: none; stroke: #000000; stroke-width: 2; stroke-linecap: round"/>
   </g>
   <g id="line2d_9">
    <path d="M 78.9 22.68 
L 82.86 22.68 
" clip-path="url(#pc0f4627c6d)" style="fill: none; stroke: #000000; stroke-width: 2; stroke-linecap: round"/>
   </g>
   <g id="line2d_10">
    <path d="M 86.46 40.68 
L 82.86 40.68 
L 82.86 22.68 
" clip-path="url(#pc0f4627c6d)" style="fill: none; stroke: #000000; stroke-width: 2; stroke-linecap: round"/>
   </g>
   <g id="line2d_11">
    <path d="M 52.26 94.68 
L 53.413264 94.643017 
L 54.561789 94.53222 
L 55.700855 94.348065 
L 56.825783 94.091308 
L 57.931948 93.763003 
L 59.014806 93.364502 
L 60.069907 92.89744 
L 61.092916 92.363737 
L 62.079628 91.765586 
L 63.02599 91.105445 
L 63.928111 90.386027 
L 64.782286 89.610288 
L 65.585004 88.781416 
L 66.332967 87.902816 
L 67.023101 86.9781 
L 67.65257 86.011066 
L 68.218788 85.005689 
L 68.719427 83.9661 
L 69.152432 82.896571 
L 69.516021 81.801497 
L 69.808702 80.685377 
L 70.029272 79.552798 
L 70.176824 78.408414 
L 70.250752 77.256928 
L 70.250752 76.103072 
L 70.176824 74.951586 
L 70.029272 73.807202 
L 69.808702 72.674623 
L 69.516021 71.558503 
L 69.152432 70.463429 
L 68.719427 69.3939 
L 68.218788 68.354311 
L 67.65257 67.348934 
L 67.023101 66.3819 
L 66.332967 65.457184 
L 65.585004 64.578584 
L 64.782286 63.749712 
L 63.928111 62.973973 
L 63.02599 62.254555 
L 62.079628 61.594414 
L 61.092916 60.996263 
L 60.069907 60.46256 
L 59.014806 59.995498 
L 57.931948 59.596997 
L 56.825783 59.268692 
L 55.700855 59.011935 
L 54.561789 58.82778 
L 53.413264 58.716983 
L 52.26 58.68 
L 52.26 58.68 
L 28.86 58.68 
L 28.86 76.68 
L 28.86 94.68 
L 52.26 94.68 
" clip-path="url(#pc0f4627c6d)" style="fill: none; stroke: #000000; stroke-width: 2; stroke-linecap: round"/>
   </g>
   <g id="line2d_12">
    <path d="M 16.26 85.68 
L 28.86 85.68 
" clip-path="url(#pc0f4627c6d)" style="fill: none; stroke: #000000; stroke-width: 2; stroke-linecap: round"/>
   </g>
   <g id="line2d_13">
    <path d="M 16.26 67.68 
L 28.86 67.68 
" clip-path="url(#pc0f4627c6d)" style="fill: none; stroke: #000000; stroke-width: 2; stroke-linecap: round"/>
   </g>
   <g id="line2d_14">
    <path d="M 70.26 76.68 
L 82.86 76.68 
" clip-path="url(#pc0f4627c6d)" style="fill: none; stroke: #000000; stroke-width: 2; stroke-linecap: round"/>
   </g>
   <g id="line2d_15">
    <path d="M 86.46 58.68 
L 82.86 58.68 
L 82.86 76.68 
" clip-path="url(#pc0f4627c6d)" style="fill: none; stroke: #000000; stroke-width: 2; stroke-linecap: round"/>
   </g>
   <g id="text_1">
    <!-- $\text{Output}$ -->
    <g transform="translate(158.46 53.514687) scale(0.14 -0.14)">
     <defs>
      <path id="DejaVuSans-4f" d="M 2522 4238 
Q 1834 4238 1429 3725 
Q 1025 3213 1025 2328 
Q 1025 1447 1429 934 
Q 1834 422 2522 422 
Q 3209 422 3611 934 
Q 4013 1447 4013 2328 
Q 4013 3213 3611 3725 
Q 3209 4238 2522 4238 
z
M 2522 4750 
Q 3503 4750 4090 4092 
Q 4678 3434 4678 2328 
Q 4678 1225 4090 567 
Q 3503 -91 2522 -91 
Q 1538 -91 948 565 
Q 359 1222 359 2328 
Q 359 3434 948 4092 
Q 1538 4750 2522 4750 
z
" transform="scale(0.015625)"/>
      <path id="DejaVuSans-75" d="M 544 1381 
L 544 3500 
L 1119 3500 
L 1119 1403 
Q 1119 906 1312 657 
Q 1506 409 1894 409 
Q 2359 409 2629 706 
Q 2900 1003 2900 1516 
L 2900 3500 
L 3475 3500 
L 3475 0 
L 2900 0 
L 2900 538 
Q 2691 219 2414 64 
Q 2138 -91 1772 -91 
Q 1169 -91 856 284 
Q 544 659 544 1381 
z
M 1991 3584 
L 1991 3584 
z
" transform="scale(0.015625)"/>
      <path id="DejaVuSans-74" d="M 1172 4494 
L 1172 3500 
L 2356 3500 
L 2356 3053 
L 1172 3053 
L 1172 1153 
Q 1172 725 1289 603 
Q 1406 481 1766 481 
L 2356 481 
L 2356 0 
L 1766 0 
Q 1100 0 847 248 
Q 594 497 594 1153 
L 594 3053 
L 172 3053 
L 172 3500 
L 594 3500 
L 594 4494 
L 1172 4494 
z
" transform="scale(0.015625)"/>
      <path id="DejaVuSans-70" d="M 1159 525 
L 1159 -1331 
L 581 -1331 
L 581 3500 
L 1159 3500 
L 1159 2969 
Q 1341 3281 1617 3432 
Q 1894 3584 2278 3584 
Q 2916 3584 3314 3078 
Q 3713 2572 3713 1747 
Q 3713 922 3314 415 
Q 2916 -91 2278 -91 
Q 1894 -91 1617 61 
Q 1341 213 1159 525 
z
M 3116 1747 
Q 3116 2381 2855 2742 
Q 2594 3103 2138 3103 
Q 1681 3103 1420 2742 
Q 1159 2381 1159 1747 
Q 1159 1113 1420 752 
Q 1681 391 2138 391 
Q 2594 391 2855 752 
Q 3116 1113 3116 1747 
z
" transform="scale(0.015625)"/>
     </defs>
     <use xlink:href="#DejaVuSans-4f" transform="translate(0 0.78125)"/>
     <use xlink:href="#DejaVuSans-75" transform="translate(78.710938 0.78125)"/>
     <use xlink:href="#DejaVuSans-74" transform="translate(142.089844 0.78125)"/>
     <use xlink:href="#DejaVuSans-70" transform="translate(181.298828 0.78125)"/>
     <use xlink:href="#DejaVuSans-75" transform="translate(244.775391 0.78125)"/>
     <use xlink:href="#DejaVuSans-74" transform="translate(308.154297 0.78125)"/>
    </g>
   </g>
   <g id="text_2">
    <!-- a -->
    <g transform="translate(4.080625 17.543125) scale(0.14 -0.14)">
     <defs>
      <path id="DejaVuSans-61" d="M 2194 1759 
Q 1497 1759 1228 1600 
Q 959 1441 959 1056 
Q 959 750 1161 570 
Q 1363 391 1709 391 
Q 2188 391 2477 730 
Q 2766 1069 2766 1631 
L 2766 1759 
L 2194 1759 
z
M 3341 1997 
L 3341 0 
L 2766 0 
L 2766 531 
Q 2569 213 2275 61 
Q 1981 -91 1556 -91 
Q 1019 -91 701 211 
Q 384 513 384 1019 
Q 384 1609 779 1909 
Q 1175 2209 1959 2209 
L 2766 2209 
L 2766 2266 
Q 2766 2663 2505 2880 
Q 2244 3097 1772 3097 
Q 1472 3097 1187 3025 
Q 903 2953 641 2809 
L 641 3341 
Q 956 3463 1253 3523 
Q 1550 3584 1831 3584 
Q 2591 3584 2966 3190 
Q 3341 2797 3341 1997 
z
" transform="scale(0.015625)"/>
     </defs>
     <use xlink:href="#DejaVuSans-61"/>
    </g>
   </g>
   <g id="text_3">
    <!-- b -->
    <g transform="translate(3.772187 35.543125) scale(0.14 -0.14)">
     <defs>
      <path id="DejaVuSans-62" d="M 3116 1747 
Q 3116 2381 2855 2742 
Q 2594 3103 2138 3103 
Q 1681 3103 1420 2742 
Q 1159 2381 1159 1747 
Q 1159 1113 1420 752 
Q 1681 391 2138 391 
Q 2594 391 2855 752 
Q 3116 1113 3116 1747 
z
M 1159 2969 
Q 1341 3281 1617 3432 
Q 1894 3584 2278 3584 
Q 2916 3584 3314 3078 
Q 3713 2572 3713 1747 
Q 3713 922 3314 415 
Q 2916 -91 2278 -91 
Q 1894 -91 1617 61 
Q 1341 213 1159 525 
L 1159 0 
L 581 0 
L 581 4863 
L 1159 4863 
L 1159 2969 
z
" transform="scale(0.015625)"/>
     </defs>
     <use xlink:href="#DejaVuSans-62"/>
    </g>
   </g>
   <g id="text_4">
    <!-- c -->
    <g transform="translate(4.962187 71.543125) scale(0.14 -0.14)">
     <defs>
      <path id="DejaVuSans-63" d="M 3122 3366 
L 3122 2828 
Q 2878 2963 2633 3030 
Q 2388 3097 2138 3097 
Q 1578 3097 1268 2742 
Q 959 2388 959 1747 
Q 959 1106 1268 751 
Q 1578 397 2138 397 
Q 2388 397 2633 464 
Q 2878 531 3122 666 
L 3122 134 
Q 2881 22 2623 -34 
Q 2366 -91 2075 -91 
Q 1284 -91 818 406 
Q 353 903 353 1747 
Q 353 2603 823 3093 
Q 1294 3584 2113 3584 
Q 2378 3584 2631 3529 
Q 2884 3475 3122 3366 
z
" transform="scale(0.015625)"/>
     </defs>
     <use xlink:href="#DejaVuSans-63"/>
    </g>
   </g>
   <g id="text_5">
    <!-- c -->
    <g transform="translate(4.962187 89.543125) scale(0.14 -0.14)">
     <use xlink:href="#DejaVuSans-63"/>
    </g>
   </g>
  </g>
 </g>
 <defs>
  <clipPath id="pc0f4627c6d">
   <rect x="0" y="-0" width="245.04" height="99.36"/>
  </clipPath>
 </defs>
</svg>
