<?xml version="1.0" encoding="utf-8" standalone="no"?>
<!DOCTYPE svg PUBLIC "-//W3C//DTD SVG 1.1//EN"
  "http://www.w3.org/Graphics/SVG/1.1/DTD/svg11.dtd">
<svg xmlns:xlink="http://www.w3.org/1999/xlink" width="322.44pt" height="193.5pt" viewBox="0 0 322.44 193.5" xmlns="http://www.w3.org/2000/svg" version="1.1">
 <metadata>
  <rdf:RDF xmlns:dc="http://purl.org/dc/elements/1.1/" xmlns:cc="http://creativecommons.org/ns#" xmlns:rdf="http://www.w3.org/1999/02/22-rdf-syntax-ns#">
   <cc:Work>
    <dc:type rdf:resource="http://purl.org/dc/dcmitype/StillImage"/>
    <dc:date>2024-08-25T11:07:05.392919</dc:date>
    <dc:format>image/svg+xml</dc:format>
    <dc:creator>
     <cc:Agent>
      <dc:title>Matplotlib v3.9.0, https://matplotlib.org/</dc:title>
     </cc:Agent>
    </dc:creator>
   </cc:Work>
  </rdf:RDF>
 </metadata>
 <defs>
  <style type="text/css">*{stroke-linejoin: round; stroke-linecap: butt}</style>
 </defs>
 <g id="figure_1">
  <g id="patch_1">
   <path d="M 0 193.5 
L 322.44 193.5 
L 322.44 0 
L 0 0 
L 0 193.5 
z
" style="fill: none"/>
  </g>
  <g id="axes_1">
   <g id="patch_2">
    <path d="M 151.98 47.25 
C 153.125677 47.25 154.224585 46.794818 155.034701 45.984701 
C 155.844818 45.174585 156.3 44.075677 156.3 42.93 
C 156.3 41.784323 155.844818 40.685415 155.034701 39.875299 
C 154.224585 39.065182 153.125677 38.61 151.98 38.61 
C 150.834323 38.61 149.735415 39.065182 148.925299 39.875299 
C 148.115182 40.685415 147.66 41.784323 147.66 42.93 
C 147.66 44.075677 148.115182 45.174585 148.925299 45.984701 
C 149.735415 46.794818 150.834323 47.25 151.98 47.25 
L 151.98 47.25 
z
" clip-path="url(#p6636059125)" style="fill: none; stroke: #000000; stroke-width: 2; stroke-linejoin: miter"/>
   </g>
   <g id="patch_3">
    <path d="M 63.96 27 
C 65.105677 27 66.204585 26.544818 67.014701 25.734701 
C 67.824818 24.924585 68.28 23.825677 68.28 22.68 
C 68.28 21.534323 67.824818 20.435415 67.014701 19.625299 
C 66.204585 18.815182 65.105677 18.36 63.96 18.36 
C 62.814323 18.36 61.715415 18.815182 60.905299 19.625299 
C 60.095182 20.435415 59.64 21.534323 59.64 22.68 
C 59.64 23.825677 60.095182 24.924585 60.905299 25.734701 
C 61.715415 26.544818 62.814323 27 63.96 27 
L 63.96 27 
z
" clip-path="url(#p6636059125)" style="fill: none; stroke: #000000; stroke-width: 2; stroke-linejoin: miter"/>
   </g>
   <g id="patch_4">
    <path d="M 79.98 67.5 
C 81.125677 67.5 82.224585 67.044818 83.034701 66.234701 
C 83.844818 65.424585 84.3 64.325677 84.3 63.18 
C 84.3 62.034323 83.844818 60.935415 83.034701 60.125299 
C 82.224585 59.315182 81.125677 58.86 79.98 58.86 
C 78.834323 58.86 77.735415 59.315182 76.925299 60.125299 
C 76.115182 60.935415 75.66 62.034323 75.66 63.18 
C 75.66 64.325677 76.115182 65.424585 76.925299 66.234701 
C 77.735415 67.044818 78.834323 67.5 79.98 67.5 
L 79.98 67.5 
z
" clip-path="url(#p6636059125)" style="fill: none; stroke: #000000; stroke-width: 2; stroke-linejoin: miter"/>
   </g>
   <g id="patch_5">
    <path d="M 151.98 148.5 
C 153.125677 148.5 154.224585 148.044818 155.034701 147.234701 
C 155.844818 146.424585 156.3 145.325677 156.3 144.18 
C 156.3 143.034323 155.844818 141.935415 155.034701 141.125299 
C 154.224585 140.315182 153.125677 139.86 151.98 139.86 
C 150.834323 139.86 149.735415 140.315182 148.925299 141.125299 
C 148.115182 141.935415 147.66 143.034323 147.66 144.18 
C 147.66 145.325677 148.115182 146.424585 148.925299 147.234701 
C 149.735415 148.044818 150.834323 148.5 151.98 148.5 
L 151.98 148.5 
z
" clip-path="url(#p6636059125)" style="fill: none; stroke: #000000; stroke-width: 2; stroke-linejoin: miter"/>
   </g>
   <g id="line2d_1">
    <path d="M 176.46 111.195 
L 196.002857 111.128878 
L 198.06 110.835 
L 200.117143 110.30602 
L 202.174286 109.541939 
L 204.231429 108.542755 
L 206.288571 107.308469 
L 208.345714 105.839082 
L 210.402857 104.134592 
L 212.974286 101.673367 
L 215.545714 98.844796 
L 218.117143 95.648878 
L 219.66 93.555 
L 219.66 93.555 
L 217.088571 90.138673 
L 214.517143 87.089694 
L 211.945714 84.408061 
L 209.374286 82.093776 
L 207.317143 80.506837 
L 205.26 79.155 
L 203.202857 78.038265 
L 201.145714 77.156633 
L 199.088571 76.510102 
L 197.031429 76.098673 
L 194.974286 75.922347 
L 194.46 75.915 
L 176.46 75.915 
L 176.46 75.915 
L 178.4472 78.075 
L 180.1752 80.235 
L 181.644 82.395 
L 182.8536 84.555 
L 183.804 86.715 
L 184.4952 88.875 
L 184.9272 91.035 
L 185.1 93.195 
L 185.0136 95.355 
L 184.668 97.515 
L 184.0632 99.675 
L 183.1992 101.835 
L 182.076 103.995 
L 180.6936 106.155 
L 179.052 108.315 
L 177.1512 110.475 
L 176.46 111.195 
L 176.46 111.195 
" clip-path="url(#p6636059125)" style="fill: none; stroke: #000000; stroke-width: 2; stroke-linecap: round"/>
   </g>
   <g id="line2d_2">
    <path d="M 163.86 102.555 
L 182.8536 102.555 
" clip-path="url(#p6636059125)" style="fill: none; stroke: #000000; stroke-width: 2; stroke-linecap: round"/>
   </g>
   <g id="line2d_3">
    <path d="M 163.86 84.555 
L 182.8536 84.555 
" clip-path="url(#p6636059125)" style="fill: none; stroke: #000000; stroke-width: 2; stroke-linecap: round"/>
   </g>
   <g id="line2d_4">
    <path d="M 219.66 93.555 
L 232.26 93.555 
" clip-path="url(#p6636059125)" style="fill: none; stroke: #000000; stroke-width: 2; stroke-linecap: round"/>
   </g>
   <g id="line2d_5">
    <path d="M 104.46 60.57 
L 124.002857 60.503878 
L 126.06 60.21 
L 128.117143 59.68102 
L 130.174286 58.916939 
L 132.231429 57.917755 
L 134.288571 56.683469 
L 136.345714 55.214082 
L 138.402857 53.509592 
L 140.974286 51.048367 
L 143.545714 48.219796 
L 146.117143 45.023878 
L 147.66 42.93 
L 147.66 42.93 
L 145.088571 39.513673 
L 142.517143 36.464694 
L 139.945714 33.783061 
L 137.374286 31.468776 
L 135.317143 29.881837 
L 133.26 28.53 
L 131.202857 27.413265 
L 129.145714 26.531633 
L 127.088571 25.885102 
L 125.031429 25.473673 
L 122.974286 25.297347 
L 122.46 25.29 
L 104.46 25.29 
L 104.46 25.29 
L 106.4472 27.45 
L 108.1752 29.61 
L 109.644 31.77 
L 110.8536 33.93 
L 111.804 36.09 
L 112.4952 38.25 
L 112.9272 40.41 
L 113.1 42.57 
L 113.0136 44.73 
L 112.668 46.89 
L 112.0632 49.05 
L 111.1992 51.21 
L 110.076 53.37 
L 108.6936 55.53 
L 107.052 57.69 
L 105.1512 59.85 
L 104.46 60.57 
L 104.46 60.57 
" clip-path="url(#p6636059125)" style="fill: none; stroke: #000000; stroke-width: 2; stroke-linecap: round"/>
   </g>
   <g id="line2d_6">
    <path d="M 91.86 51.93 
L 110.8536 51.93 
" clip-path="url(#p6636059125)" style="fill: none; stroke: #000000; stroke-width: 2; stroke-linecap: round"/>
   </g>
   <g id="line2d_7">
    <path d="M 91.86 33.93 
L 110.8536 33.93 
" clip-path="url(#p6636059125)" style="fill: none; stroke: #000000; stroke-width: 2; stroke-linecap: round"/>
   </g>
   <g id="line2d_8">
    <path d="M 156.3 42.93 
L 160.26 42.93 
" clip-path="url(#p6636059125)" style="fill: none; stroke: #000000; stroke-width: 2; stroke-linecap: round"/>
   </g>
   <g id="line2d_9">
    <path d="M 16.26 22.68 
L 36.24 22.68 
M 68.28 22.68 
L 88.26 22.68 
" clip-path="url(#p6636059125)" style="fill: none; stroke: #000000; stroke-width: 2; stroke-linecap: round"/>
   </g>
   <g id="line2d_10">
    <path d="M 36.24 4.68 
L 59.64 22.68 
L 36.24 40.68 
L 36.24 4.68 
" clip-path="url(#p6636059125)" style="fill: none; stroke: #000000; stroke-width: 2; stroke-linecap: round"/>
   </g>
   <g id="line2d_11">
    <path d="M 91.86 33.93 
L 88.26 33.93 
L 88.26 22.68 
" clip-path="url(#p6636059125)" style="fill: none; stroke: #000000; stroke-width: 2; stroke-linecap: round"/>
   </g>
   <g id="line2d_12">
    <path d="M 32.46 80.82 
L 52.002857 80.753878 
L 54.06 80.46 
L 56.117143 79.93102 
L 58.174286 79.166939 
L 60.231429 78.167755 
L 62.288571 76.933469 
L 64.345714 75.464082 
L 66.402857 73.759592 
L 68.974286 71.298367 
L 71.545714 68.469796 
L 74.117143 65.273878 
L 75.66 63.18 
L 75.66 63.18 
L 73.088571 59.763673 
L 70.517143 56.714694 
L 67.945714 54.033061 
L 65.374286 51.718776 
L 63.317143 50.131837 
L 61.26 48.78 
L 59.202857 47.663265 
L 57.145714 46.781633 
L 55.088571 46.135102 
L 53.031429 45.723673 
L 50.974286 45.547347 
L 50.46 45.54 
L 32.46 45.54 
L 32.46 45.54 
L 34.4472 47.7 
L 36.1752 49.86 
L 37.644 52.02 
L 38.8536 54.18 
L 39.804 56.34 
L 40.4952 58.5 
L 40.9272 60.66 
L 41.1 62.82 
L 41.0136 64.98 
L 40.668 67.14 
L 40.0632 69.3 
L 39.1992 71.46 
L 38.076 73.62 
L 36.6936 75.78 
L 35.052 77.94 
L 33.1512 80.1 
L 32.46 80.82 
L 32.46 80.82 
" clip-path="url(#p6636059125)" style="fill: none; stroke: #000000; stroke-width: 2; stroke-linecap: round"/>
   </g>
   <g id="line2d_13">
    <path d="M 27.06 80.82 
L 27.7512 80.1 
L 28.4136 79.38 
L 29.0472 78.66 
L 29.652 77.94 
L 30.228 77.22 
L 30.7752 76.5 
L 31.2936 75.78 
L 31.7832 75.06 
L 32.244 74.34 
L 32.676 73.62 
L 33.0792 72.9 
L 33.4536 72.18 
L 33.7992 71.46 
L 34.116 70.74 
L 34.404 70.02 
L 34.6632 69.3 
L 34.8936 68.58 
L 35.0952 67.86 
L 35.268 67.14 
L 35.412 66.42 
L 35.5272 65.7 
L 35.6136 64.98 
L 35.6712 64.26 
L 35.7 63.54 
L 35.7 62.82 
L 35.6712 62.1 
L 35.6136 61.38 
L 35.5272 60.66 
L 35.412 59.94 
L 35.268 59.22 
L 35.0952 58.5 
L 34.8936 57.78 
L 34.6632 57.06 
L 34.404 56.34 
L 34.116 55.62 
L 33.7992 54.9 
L 33.4536 54.18 
L 33.0792 53.46 
L 32.676 52.74 
L 32.244 52.02 
L 31.7832 51.3 
L 31.2936 50.58 
L 30.7752 49.86 
L 30.228 49.14 
L 29.652 48.42 
L 29.0472 47.7 
L 28.4136 46.98 
L 27.7512 46.26 
L 27.06 45.54 
" clip-path="url(#p6636059125)" style="fill: none; stroke: #000000; stroke-width: 2; stroke-linecap: round"/>
   </g>
   <g id="line2d_14">
    <path d="M 19.86 72.18 
L 33.4536 72.18 
" clip-path="url(#p6636059125)" style="fill: none; stroke: #000000; stroke-width: 2; stroke-linecap: round"/>
   </g>
   <g id="line2d_15">
    <path d="M 19.86 54.18 
L 33.4536 54.18 
" clip-path="url(#p6636059125)" style="fill: none; stroke: #000000; stroke-width: 2; stroke-linecap: round"/>
   </g>
   <g id="line2d_16">
    <path d="M 84.3 63.18 
L 88.26 63.18 
" clip-path="url(#p6636059125)" style="fill: none; stroke: #000000; stroke-width: 2; stroke-linecap: round"/>
   </g>
   <g id="line2d_17">
    <path d="M 91.86 51.93 
L 88.26 51.93 
L 88.26 63.18 
" clip-path="url(#p6636059125)" style="fill: none; stroke: #000000; stroke-width: 2; stroke-linecap: round"/>
   </g>
   <g id="line2d_18">
    <path d="M 163.86 84.555 
L 160.26 84.555 
L 160.26 42.93 
" clip-path="url(#p6636059125)" style="fill: none; stroke: #000000; stroke-width: 2; stroke-linecap: round"/>
   </g>
   <g id="line2d_19">
    <path d="M 129.66 162.18 
L 130.813264 162.143017 
L 131.961789 162.03222 
L 133.100855 161.848065 
L 134.225783 161.591308 
L 135.331948 161.263003 
L 136.414806 160.864502 
L 137.469907 160.39744 
L 138.492916 159.863737 
L 139.479628 159.265586 
L 140.42599 158.605445 
L 141.328111 157.886027 
L 142.182286 157.110288 
L 142.985004 156.281416 
L 143.732967 155.402816 
L 144.423101 154.4781 
L 145.05257 153.511066 
L 145.618788 152.505689 
L 146.119427 151.4661 
L 146.552432 150.396571 
L 146.916021 149.301497 
L 147.208702 148.185377 
L 147.429272 147.052798 
L 147.576824 145.908414 
L 147.650752 144.756928 
L 147.650752 143.603072 
L 147.576824 142.451586 
L 147.429272 141.307202 
L 147.208702 140.174623 
L 146.916021 139.058503 
L 146.552432 137.963429 
L 146.119427 136.8939 
L 145.618788 135.854311 
L 145.05257 134.848934 
L 144.423101 133.8819 
L 143.732967 132.957184 
L 142.985004 132.078584 
L 142.182286 131.249712 
L 141.328111 130.473973 
L 140.42599 129.754555 
L 139.479628 129.094414 
L 138.492916 128.496263 
L 137.469907 127.96256 
L 136.414806 127.495498 
L 135.331948 127.096997 
L 134.225783 126.768692 
L 133.100855 126.511935 
L 131.961789 126.32778 
L 130.813264 126.216983 
L 129.66 126.18 
L 129.66 126.18 
L 106.26 126.18 
L 106.26 144.18 
L 106.26 162.18 
L 129.66 162.18 
" clip-path="url(#p6636059125)" style="fill: none; stroke: #000000; stroke-width: 2; stroke-linecap: round"/>
   </g>
   <g id="line2d_20">
    <path d="M 93.66 153.18 
L 106.26 153.18 
" clip-path="url(#p6636059125)" style="fill: none; stroke: #000000; stroke-width: 2; stroke-linecap: round"/>
   </g>
   <g id="line2d_21">
    <path d="M 93.66 135.18 
L 106.26 135.18 
" clip-path="url(#p6636059125)" style="fill: none; stroke: #000000; stroke-width: 2; stroke-linecap: round"/>
   </g>
   <g id="line2d_22">
    <path d="M 156.3 144.18 
L 160.26 144.18 
" clip-path="url(#p6636059125)" style="fill: none; stroke: #000000; stroke-width: 2; stroke-linecap: round"/>
   </g>
   <g id="line2d_23">
    <path d="M 32.46 134.82 
L 52.002857 134.753878 
L 54.06 134.46 
L 56.117143 133.93102 
L 58.174286 133.166939 
L 60.231429 132.167755 
L 62.288571 130.933469 
L 64.345714 129.464082 
L 66.402857 127.759592 
L 68.974286 125.298367 
L 71.545714 122.469796 
L 74.117143 119.273878 
L 75.66 117.18 
L 75.66 117.18 
L 73.088571 113.763673 
L 70.517143 110.714694 
L 67.945714 108.033061 
L 65.374286 105.718776 
L 63.317143 104.131837 
L 61.26 102.78 
L 59.202857 101.663265 
L 57.145714 100.781633 
L 55.088571 100.135102 
L 53.031429 99.723673 
L 50.974286 99.547347 
L 50.46 99.54 
L 32.46 99.54 
L 32.46 99.54 
L 34.4472 101.7 
L 36.1752 103.86 
L 37.644 106.02 
L 38.8536 108.18 
L 39.804 110.34 
L 40.4952 112.5 
L 40.9272 114.66 
L 41.1 116.82 
L 41.0136 118.98 
L 40.668 121.14 
L 40.0632 123.3 
L 39.1992 125.46 
L 38.076 127.62 
L 36.6936 129.78 
L 35.052 131.94 
L 33.1512 134.1 
L 32.46 134.82 
L 32.46 134.82 
" clip-path="url(#p6636059125)" style="fill: none; stroke: #000000; stroke-width: 2; stroke-linecap: round"/>
   </g>
   <g id="line2d_24">
    <path d="M 27.06 134.82 
L 27.7512 134.1 
L 28.4136 133.38 
L 29.0472 132.66 
L 29.652 131.94 
L 30.228 131.22 
L 30.7752 130.5 
L 31.2936 129.78 
L 31.7832 129.06 
L 32.244 128.34 
L 32.676 127.62 
L 33.0792 126.9 
L 33.4536 126.18 
L 33.7992 125.46 
L 34.116 124.74 
L 34.404 124.02 
L 34.6632 123.3 
L 34.8936 122.58 
L 35.0952 121.86 
L 35.268 121.14 
L 35.412 120.42 
L 35.5272 119.7 
L 35.6136 118.98 
L 35.6712 118.26 
L 35.7 117.54 
L 35.7 116.82 
L 35.6712 116.1 
L 35.6136 115.38 
L 35.5272 114.66 
L 35.412 113.94 
L 35.268 113.22 
L 35.0952 112.5 
L 34.8936 111.78 
L 34.6632 111.06 
L 34.404 110.34 
L 34.116 109.62 
L 33.7992 108.9 
L 33.4536 108.18 
L 33.0792 107.46 
L 32.676 106.74 
L 32.244 106.02 
L 31.7832 105.3 
L 31.2936 104.58 
L 30.7752 103.86 
L 30.228 103.14 
L 29.652 102.42 
L 29.0472 101.7 
L 28.4136 100.98 
L 27.7512 100.26 
L 27.06 99.54 
" clip-path="url(#p6636059125)" style="fill: none; stroke: #000000; stroke-width: 2; stroke-linecap: round"/>
   </g>
   <g id="line2d_25">
    <path d="M 19.86 126.18 
L 33.4536 126.18 
" clip-path="url(#p6636059125)" style="fill: none; stroke: #000000; stroke-width: 2; stroke-linecap: round"/>
   </g>
   <g id="line2d_26">
    <path d="M 19.86 108.18 
L 33.4536 108.18 
" clip-path="url(#p6636059125)" style="fill: none; stroke: #000000; stroke-width: 2; stroke-linecap: round"/>
   </g>
   <g id="line2d_27">
    <path d="M 75.66 117.18 
L 88.26 117.18 
" clip-path="url(#p6636059125)" style="fill: none; stroke: #000000; stroke-width: 2; stroke-linecap: round"/>
   </g>
   <g id="line2d_28">
    <path d="M 93.66 135.18 
L 88.26 135.18 
L 88.26 117.18 
" clip-path="url(#p6636059125)" style="fill: none; stroke: #000000; stroke-width: 2; stroke-linecap: round"/>
   </g>
   <g id="line2d_29">
    <path d="M 32.46 188.82 
L 52.002857 188.753878 
L 54.06 188.46 
L 56.117143 187.93102 
L 58.174286 187.166939 
L 60.231429 186.167755 
L 62.288571 184.933469 
L 64.345714 183.464082 
L 66.402857 181.759592 
L 68.974286 179.298367 
L 71.545714 176.469796 
L 74.117143 173.273878 
L 75.66 171.18 
L 75.66 171.18 
L 73.088571 167.763673 
L 70.517143 164.714694 
L 67.945714 162.033061 
L 65.374286 159.718776 
L 63.317143 158.131837 
L 61.26 156.78 
L 59.202857 155.663265 
L 57.145714 154.781633 
L 55.088571 154.135102 
L 53.031429 153.723673 
L 50.974286 153.547347 
L 50.46 153.54 
L 32.46 153.54 
L 32.46 153.54 
L 34.4472 155.7 
L 36.1752 157.86 
L 37.644 160.02 
L 38.8536 162.18 
L 39.804 164.34 
L 40.4952 166.5 
L 40.9272 168.66 
L 41.1 170.82 
L 41.0136 172.98 
L 40.668 175.14 
L 40.0632 177.3 
L 39.1992 179.46 
L 38.076 181.62 
L 36.6936 183.78 
L 35.052 185.94 
L 33.1512 188.1 
L 32.46 188.82 
L 32.46 188.82 
" clip-path="url(#p6636059125)" style="fill: none; stroke: #000000; stroke-width: 2; stroke-linecap: round"/>
   </g>
   <g id="line2d_30">
    <path d="M 19.86 180.18 
L 38.8536 180.18 
" clip-path="url(#p6636059125)" style="fill: none; stroke: #000000; stroke-width: 2; stroke-linecap: round"/>
   </g>
   <g id="line2d_31">
    <path d="M 19.86 162.18 
L 38.8536 162.18 
" clip-path="url(#p6636059125)" style="fill: none; stroke: #000000; stroke-width: 2; stroke-linecap: round"/>
   </g>
   <g id="line2d_32">
    <path d="M 75.66 171.18 
L 88.26 171.18 
" clip-path="url(#p6636059125)" style="fill: none; stroke: #000000; stroke-width: 2; stroke-linecap: round"/>
   </g>
   <g id="line2d_33">
    <path d="M 93.66 153.18 
L 88.26 153.18 
L 88.26 171.18 
" clip-path="url(#p6636059125)" style="fill: none; stroke: #000000; stroke-width: 2; stroke-linecap: round"/>
   </g>
   <g id="line2d_34">
    <path d="M 163.86 102.555 
L 160.26 102.555 
L 160.26 144.18 
" clip-path="url(#p6636059125)" style="fill: none; stroke: #000000; stroke-width: 2; stroke-linecap: round"/>
   </g>
   <g id="text_1">
    <!-- $\text{Output}$ -->
    <g transform="translate(235.86 97.389687) scale(0.14 -0.14)">
     <defs>
      <path id="DejaVuSans-4f" d="M 2522 4238 
Q 1834 4238 1429 3725 
Q 1025 3213 1025 2328 
Q 1025 1447 1429 934 
Q 1834 422 2522 422 
Q 3209 422 3611 934 
Q 4013 1447 4013 2328 
Q 4013 3213 3611 3725 
Q 3209 4238 2522 4238 
z
M 2522 4750 
Q 3503 4750 4090 4092 
Q 4678 3434 4678 2328 
Q 4678 1225 4090 567 
Q 3503 -91 2522 -91 
Q 1538 -91 948 565 
Q 359 1222 359 2328 
Q 359 3434 948 4092 
Q 1538 4750 2522 4750 
z
" transform="scale(0.015625)"/>
      <path id="DejaVuSans-75" d="M 544 1381 
L 544 3500 
L 1119 3500 
L 1119 1403 
Q 1119 906 1312 657 
Q 1506 409 1894 409 
Q 2359 409 2629 706 
Q 2900 1003 2900 1516 
L 2900 3500 
L 3475 3500 
L 3475 0 
L 2900 0 
L 2900 538 
Q 2691 219 2414 64 
Q 2138 -91 1772 -91 
Q 1169 -91 856 284 
Q 544 659 544 1381 
z
M 1991 3584 
L 1991 3584 
z
" transform="scale(0.015625)"/>
      <path id="DejaVuSans-74" d="M 1172 4494 
L 1172 3500 
L 2356 3500 
L 2356 3053 
L 1172 3053 
L 1172 1153 
Q 1172 725 1289 603 
Q 1406 481 1766 481 
L 2356 481 
L 2356 0 
L 1766 0 
Q 1100 0 847 248 
Q 594 497 594 1153 
L 594 3053 
L 172 3053 
L 172 3500 
L 594 3500 
L 594 4494 
L 1172 4494 
z
" transform="scale(0.015625)"/>
      <path id="DejaVuSans-70" d="M 1159 525 
L 1159 -1331 
L 581 -1331 
L 581 3500 
L 1159 3500 
L 1159 2969 
Q 1341 3281 1617 3432 
Q 1894 3584 2278 3584 
Q 2916 3584 3314 3078 
Q 3713 2572 3713 1747 
Q 3713 922 3314 415 
Q 2916 -91 2278 -91 
Q 1894 -91 1617 61 
Q 1341 213 1159 525 
z
M 3116 1747 
Q 3116 2381 2855 2742 
Q 2594 3103 2138 3103 
Q 1681 3103 1420 2742 
Q 1159 2381 1159 1747 
Q 1159 1113 1420 752 
Q 1681 391 2138 391 
Q 2594 391 2855 752 
Q 3116 1113 3116 1747 
z
" transform="scale(0.015625)"/>
     </defs>
     <use xlink:href="#DejaVuSans-4f" transform="translate(0 0.78125)"/>
     <use xlink:href="#DejaVuSans-75" transform="translate(78.710938 0.78125)"/>
     <use xlink:href="#DejaVuSans-74" transform="translate(142.089844 0.78125)"/>
     <use xlink:href="#DejaVuSans-70" transform="translate(181.298828 0.78125)"/>
     <use xlink:href="#DejaVuSans-75" transform="translate(244.775391 0.78125)"/>
     <use xlink:href="#DejaVuSans-74" transform="translate(308.154297 0.78125)"/>
    </g>
   </g>
   <g id="text_2">
    <!-- b -->
    <g transform="translate(3.772187 26.543125) scale(0.14 -0.14)">
     <defs>
      <path id="DejaVuSans-62" d="M 3116 1747 
Q 3116 2381 2855 2742 
Q 2594 3103 2138 3103 
Q 1681 3103 1420 2742 
Q 1159 2381 1159 1747 
Q 1159 1113 1420 752 
Q 1681 391 2138 391 
Q 2594 391 2855 752 
Q 3116 1113 3116 1747 
z
M 1159 2969 
Q 1341 3281 1617 3432 
Q 1894 3584 2278 3584 
Q 2916 3584 3314 3078 
Q 3713 2572 3713 1747 
Q 3713 922 3314 415 
Q 2916 -91 2278 -91 
Q 1894 -91 1617 61 
Q 1341 213 1159 525 
L 1159 0 
L 581 0 
L 581 4863 
L 1159 4863 
L 1159 2969 
z
" transform="scale(0.015625)"/>
     </defs>
     <use xlink:href="#DejaVuSans-62"/>
    </g>
   </g>
   <g id="text_3">
    <!-- b -->
    <g transform="translate(7.372187 58.043125) scale(0.14 -0.14)">
     <use xlink:href="#DejaVuSans-62"/>
    </g>
   </g>
   <g id="text_4">
    <!-- c -->
    <g transform="translate(8.562187 76.043125) scale(0.14 -0.14)">
     <defs>
      <path id="DejaVuSans-63" d="M 3122 3366 
L 3122 2828 
Q 2878 2963 2633 3030 
Q 2388 3097 2138 3097 
Q 1578 3097 1268 2742 
Q 959 2388 959 1747 
Q 959 1106 1268 751 
Q 1578 397 2138 397 
Q 2388 397 2633 464 
Q 2878 531 3122 666 
L 3122 134 
Q 2881 22 2623 -34 
Q 2366 -91 2075 -91 
Q 1284 -91 818 406 
Q 353 903 353 1747 
Q 353 2603 823 3093 
Q 1294 3584 2113 3584 
Q 2378 3584 2631 3529 
Q 2884 3475 3122 3366 
z
" transform="scale(0.015625)"/>
     </defs>
     <use xlink:href="#DejaVuSans-63"/>
    </g>
   </g>
   <g id="text_5">
    <!-- b -->
    <g transform="translate(7.372187 112.043125) scale(0.14 -0.14)">
     <use xlink:href="#DejaVuSans-62"/>
    </g>
   </g>
   <g id="text_6">
    <!-- a -->
    <g transform="translate(7.680625 130.043125) scale(0.14 -0.14)">
     <defs>
      <path id="DejaVuSans-61" d="M 2194 1759 
Q 1497 1759 1228 1600 
Q 959 1441 959 1056 
Q 959 750 1161 570 
Q 1363 391 1709 391 
Q 2188 391 2477 730 
Q 2766 1069 2766 1631 
L 2766 1759 
L 2194 1759 
z
M 3341 1997 
L 3341 0 
L 2766 0 
L 2766 531 
Q 2569 213 2275 61 
Q 1981 -91 1556 -91 
Q 1019 -91 701 211 
Q 384 513 384 1019 
Q 384 1609 779 1909 
Q 1175 2209 1959 2209 
L 2766 2209 
L 2766 2266 
Q 2766 2663 2505 2880 
Q 2244 3097 1772 3097 
Q 1472 3097 1187 3025 
Q 903 2953 641 2809 
L 641 3341 
Q 956 3463 1253 3523 
Q 1550 3584 1831 3584 
Q 2591 3584 2966 3190 
Q 3341 2797 3341 1997 
z
" transform="scale(0.015625)"/>
     </defs>
     <use xlink:href="#DejaVuSans-61"/>
    </g>
   </g>
   <g id="text_7">
    <!-- c -->
    <g transform="translate(8.562187 166.043125) scale(0.14 -0.14)">
     <use xlink:href="#DejaVuSans-63"/>
    </g>
   </g>
   <g id="text_8">
    <!-- b -->
    <g transform="translate(7.372187 184.043125) scale(0.14 -0.14)">
     <use xlink:href="#DejaVuSans-62"/>
    </g>
   </g>
  </g>
 </g>
 <defs>
  <clipPath id="p6636059125">
   <rect x="0" y="0" width="322.44" height="193.5"/>
  </clipPath>
 </defs>
</svg>
