<?xml version="1.0" encoding="utf-8" standalone="no"?>
<!DOCTYPE svg PUBLIC "-//W3C//DTD SVG 1.1//EN"
  "http://www.w3.org/Graphics/SVG/1.1/DTD/svg11.dtd">
<svg xmlns:xlink="http://www.w3.org/1999/xlink" width="322.44pt" height="153.36pt" viewBox="0 0 322.44 153.36" xmlns="http://www.w3.org/2000/svg" version="1.1">
 <metadata>
  <rdf:RDF xmlns:dc="http://purl.org/dc/elements/1.1/" xmlns:cc="http://creativecommons.org/ns#" xmlns:rdf="http://www.w3.org/1999/02/22-rdf-syntax-ns#">
   <cc:Work>
    <dc:type rdf:resource="http://purl.org/dc/dcmitype/StillImage"/>
    <dc:date>2024-08-14T09:22:29.724751</dc:date>
    <dc:format>image/svg+xml</dc:format>
    <dc:creator>
     <cc:Agent>
      <dc:title>Matplotlib v3.9.0, https://matplotlib.org/</dc:title>
     </cc:Agent>
    </dc:creator>
   </cc:Work>
  </rdf:RDF>
 </metadata>
 <defs>
  <style type="text/css">*{stroke-linejoin: round; stroke-linecap: butt}</style>
 </defs>
 <g id="figure_1">
  <g id="patch_1">
   <path d="M 0 153.36 
L 322.44 153.36 
L 322.44 0 
L 0 0 
L 0 153.36 
z
" style="fill: none"/>
  </g>
  <g id="axes_1">
   <g id="patch_2">
    <path d="M 223.98 77.625 
C 225.125677 77.625 226.224585 77.169818 227.034701 76.359701 
C 227.844818 75.549585 228.3 74.450677 228.3 73.305 
C 228.3 72.159323 227.844818 71.060415 227.034701 70.250299 
C 226.224585 69.440182 225.125677 68.985 223.98 68.985 
C 222.834323 68.985 221.735415 69.440182 220.925299 70.250299 
C 220.115182 71.060415 219.66 72.159323 219.66 73.305 
C 219.66 74.450677 220.115182 75.549585 220.925299 76.359701 
C 221.735415 77.169818 222.834323 77.625 223.98 77.625 
L 223.98 77.625 
z
" clip-path="url(#pdeefc5b42a)" style="fill: none; stroke: #000000; stroke-width: 2; stroke-linejoin: miter"/>
   </g>
   <g id="patch_3">
    <path d="M 151.98 40.5 
C 153.125677 40.5 154.224585 40.044818 155.034701 39.234701 
C 155.844818 38.424585 156.3 37.325677 156.3 36.18 
C 156.3 35.034323 155.844818 33.935415 155.034701 33.125299 
C 154.224585 32.315182 153.125677 31.86 151.98 31.86 
C 150.834323 31.86 149.735415 32.315182 148.925299 33.125299 
C 148.115182 33.935415 147.66 35.034323 147.66 36.18 
C 147.66 37.325677 148.115182 38.424585 148.925299 39.234701 
C 149.735415 40.044818 150.834323 40.5 151.98 40.5 
L 151.98 40.5 
z
" clip-path="url(#pdeefc5b42a)" style="fill: none; stroke: #000000; stroke-width: 2; stroke-linejoin: miter"/>
   </g>
   <g id="patch_4">
    <path d="M 63.96 27 
C 65.105677 27 66.204585 26.544818 67.014701 25.734701 
C 67.824818 24.924585 68.28 23.825677 68.28 22.68 
C 68.28 21.534323 67.824818 20.435415 67.014701 19.625299 
C 66.204585 18.815182 65.105677 18.36 63.96 18.36 
C 62.814323 18.36 61.715415 18.815182 60.905299 19.625299 
C 60.095182 20.435415 59.64 21.534323 59.64 22.68 
C 59.64 23.825677 60.095182 24.924585 60.905299 25.734701 
C 61.715415 26.544818 62.814323 27 63.96 27 
L 63.96 27 
z
" clip-path="url(#pdeefc5b42a)" style="fill: none; stroke: #000000; stroke-width: 2; stroke-linejoin: miter"/>
   </g>
   <g id="patch_5">
    <path d="M 63.96 54 
C 65.105677 54 66.204585 53.544818 67.014701 52.734701 
C 67.824818 51.924585 68.28 50.825677 68.28 49.68 
C 68.28 48.534323 67.824818 47.435415 67.014701 46.625299 
C 66.204585 45.815182 65.105677 45.36 63.96 45.36 
C 62.814323 45.36 61.715415 45.815182 60.905299 46.625299 
C 60.095182 47.435415 59.64 48.534323 59.64 49.68 
C 59.64 50.825677 60.095182 51.924585 60.905299 52.734701 
C 61.715415 53.544818 62.814323 54 63.96 54 
L 63.96 54 
z
" clip-path="url(#pdeefc5b42a)" style="fill: none; stroke: #000000; stroke-width: 2; stroke-linejoin: miter"/>
   </g>
   <g id="patch_6">
    <path d="M 151.98 114.75 
C 153.125677 114.75 154.224585 114.294818 155.034701 113.484701 
C 155.844818 112.674585 156.3 111.575677 156.3 110.43 
C 156.3 109.284323 155.844818 108.185415 155.034701 107.375299 
C 154.224585 106.565182 153.125677 106.11 151.98 106.11 
C 150.834323 106.11 149.735415 106.565182 148.925299 107.375299 
C 148.115182 108.185415 147.66 109.284323 147.66 110.43 
C 147.66 111.575677 148.115182 112.674585 148.925299 113.484701 
C 149.735415 114.294818 150.834323 114.75 151.98 114.75 
L 151.98 114.75 
z
" clip-path="url(#pdeefc5b42a)" style="fill: none; stroke: #000000; stroke-width: 2; stroke-linejoin: miter"/>
   </g>
   <g id="patch_7">
    <path d="M 63.96 135 
C 65.105677 135 66.204585 134.544818 67.014701 133.734701 
C 67.824818 132.924585 68.28 131.825677 68.28 130.68 
C 68.28 129.534323 67.824818 128.435415 67.014701 127.625299 
C 66.204585 126.815182 65.105677 126.36 63.96 126.36 
C 62.814323 126.36 61.715415 126.815182 60.905299 127.625299 
C 60.095182 128.435415 59.64 129.534323 59.64 130.68 
C 59.64 131.825677 60.095182 132.924585 60.905299 133.734701 
C 61.715415 134.544818 62.814323 135 63.96 135 
L 63.96 135 
z
" clip-path="url(#pdeefc5b42a)" style="fill: none; stroke: #000000; stroke-width: 2; stroke-linejoin: miter"/>
   </g>
   <g id="line2d_1">
    <path d="M 176.46 90.945 
L 196.002857 90.878878 
L 198.06 90.585 
L 200.117143 90.05602 
L 202.174286 89.291939 
L 204.231429 88.292755 
L 206.288571 87.058469 
L 208.345714 85.589082 
L 210.402857 83.884592 
L 212.974286 81.423367 
L 215.545714 78.594796 
L 218.117143 75.398878 
L 219.66 73.305 
L 219.66 73.305 
L 217.088571 69.888673 
L 214.517143 66.839694 
L 211.945714 64.158061 
L 209.374286 61.843776 
L 207.317143 60.256837 
L 205.26 58.905 
L 203.202857 57.788265 
L 201.145714 56.906633 
L 199.088571 56.260102 
L 197.031429 55.848673 
L 194.974286 55.672347 
L 194.46 55.665 
L 176.46 55.665 
L 176.46 55.665 
L 178.4472 57.825 
L 180.1752 59.985 
L 181.644 62.145 
L 182.8536 64.305 
L 183.804 66.465 
L 184.4952 68.625 
L 184.9272 70.785 
L 185.1 72.945 
L 185.0136 75.105 
L 184.668 77.265 
L 184.0632 79.425 
L 183.1992 81.585 
L 182.076 83.745 
L 180.6936 85.905 
L 179.052 88.065 
L 177.1512 90.225 
L 176.46 90.945 
L 176.46 90.945 
" clip-path="url(#pdeefc5b42a)" style="fill: none; stroke: #000000; stroke-width: 2; stroke-linecap: round"/>
   </g>
   <g id="line2d_2">
    <path d="M 163.86 82.305 
L 182.8536 82.305 
" clip-path="url(#pdeefc5b42a)" style="fill: none; stroke: #000000; stroke-width: 2; stroke-linecap: round"/>
   </g>
   <g id="line2d_3">
    <path d="M 163.86 64.305 
L 182.8536 64.305 
" clip-path="url(#pdeefc5b42a)" style="fill: none; stroke: #000000; stroke-width: 2; stroke-linecap: round"/>
   </g>
   <g id="line2d_4">
    <path d="M 228.3 73.305 
L 232.26 73.305 
" clip-path="url(#pdeefc5b42a)" style="fill: none; stroke: #000000; stroke-width: 2; stroke-linecap: round"/>
   </g>
   <g id="line2d_5">
    <path d="M 129.66 54.18 
L 130.813264 54.143017 
L 131.961789 54.03222 
L 133.100855 53.848065 
L 134.225783 53.591308 
L 135.331948 53.263003 
L 136.414806 52.864502 
L 137.469907 52.39744 
L 138.492916 51.863737 
L 139.479628 51.265586 
L 140.42599 50.605445 
L 141.328111 49.886027 
L 142.182286 49.110288 
L 142.985004 48.281416 
L 143.732967 47.402816 
L 144.423101 46.4781 
L 145.05257 45.511066 
L 145.618788 44.505689 
L 146.119427 43.4661 
L 146.552432 42.396571 
L 146.916021 41.301497 
L 147.208702 40.185377 
L 147.429272 39.052798 
L 147.576824 37.908414 
L 147.650752 36.756928 
L 147.650752 35.603072 
L 147.576824 34.451586 
L 147.429272 33.307202 
L 147.208702 32.174623 
L 146.916021 31.058503 
L 146.552432 29.963429 
L 146.119427 28.8939 
L 145.618788 27.854311 
L 145.05257 26.848934 
L 144.423101 25.8819 
L 143.732967 24.957184 
L 142.985004 24.078584 
L 142.182286 23.249712 
L 141.328111 22.473973 
L 140.42599 21.754555 
L 139.479628 21.094414 
L 138.492916 20.496263 
L 137.469907 19.96256 
L 136.414806 19.495498 
L 135.331948 19.096997 
L 134.225783 18.768692 
L 133.100855 18.511935 
L 131.961789 18.32778 
L 130.813264 18.216983 
L 129.66 18.18 
L 129.66 18.18 
L 106.26 18.18 
L 106.26 36.18 
L 106.26 54.18 
L 129.66 54.18 
" clip-path="url(#pdeefc5b42a)" style="fill: none; stroke: #000000; stroke-width: 2; stroke-linecap: round"/>
   </g>
   <g id="line2d_6">
    <path d="M 93.66 45.18 
L 106.26 45.18 
" clip-path="url(#pdeefc5b42a)" style="fill: none; stroke: #000000; stroke-width: 2; stroke-linecap: round"/>
   </g>
   <g id="line2d_7">
    <path d="M 93.66 27.18 
L 106.26 27.18 
" clip-path="url(#pdeefc5b42a)" style="fill: none; stroke: #000000; stroke-width: 2; stroke-linecap: round"/>
   </g>
   <g id="line2d_8">
    <path d="M 156.3 36.18 
L 160.26 36.18 
" clip-path="url(#pdeefc5b42a)" style="fill: none; stroke: #000000; stroke-width: 2; stroke-linecap: round"/>
   </g>
   <g id="line2d_9">
    <path d="M 16.26 22.68 
L 36.24 22.68 
M 68.28 22.68 
L 88.26 22.68 
" clip-path="url(#pdeefc5b42a)" style="fill: none; stroke: #000000; stroke-width: 2; stroke-linecap: round"/>
   </g>
   <g id="line2d_10">
    <path d="M 36.24 4.68 
L 59.64 22.68 
L 36.24 40.68 
L 36.24 4.68 
" clip-path="url(#pdeefc5b42a)" style="fill: none; stroke: #000000; stroke-width: 2; stroke-linecap: round"/>
   </g>
   <g id="line2d_11">
    <path d="M 93.66 27.18 
L 88.26 27.18 
L 88.26 22.68 
" clip-path="url(#pdeefc5b42a)" style="fill: none; stroke: #000000; stroke-width: 2; stroke-linecap: round"/>
   </g>
   <g id="line2d_12">
    <path d="M 16.26 49.68 
L 36.24 49.68 
M 68.28 49.68 
L 88.26 49.68 
" clip-path="url(#pdeefc5b42a)" style="fill: none; stroke: #000000; stroke-width: 2; stroke-linecap: round"/>
   </g>
   <g id="line2d_13">
    <path d="M 36.24 31.68 
L 59.64 49.68 
L 36.24 67.68 
L 36.24 31.68 
" clip-path="url(#pdeefc5b42a)" style="fill: none; stroke: #000000; stroke-width: 2; stroke-linecap: round"/>
   </g>
   <g id="line2d_14">
    <path d="M 93.66 45.18 
L 88.26 45.18 
L 88.26 49.68 
" clip-path="url(#pdeefc5b42a)" style="fill: none; stroke: #000000; stroke-width: 2; stroke-linecap: round"/>
   </g>
   <g id="line2d_15">
    <path d="M 163.86 64.305 
L 160.26 64.305 
L 160.26 36.18 
" clip-path="url(#pdeefc5b42a)" style="fill: none; stroke: #000000; stroke-width: 2; stroke-linecap: round"/>
   </g>
   <g id="line2d_16">
    <path d="M 104.46 128.07 
L 124.002857 128.003878 
L 126.06 127.71 
L 128.117143 127.18102 
L 130.174286 126.416939 
L 132.231429 125.417755 
L 134.288571 124.183469 
L 136.345714 122.714082 
L 138.402857 121.009592 
L 140.974286 118.548367 
L 143.545714 115.719796 
L 146.117143 112.523878 
L 147.66 110.43 
L 147.66 110.43 
L 145.088571 107.013673 
L 142.517143 103.964694 
L 139.945714 101.283061 
L 137.374286 98.968776 
L 135.317143 97.381837 
L 133.26 96.03 
L 131.202857 94.913265 
L 129.145714 94.031633 
L 127.088571 93.385102 
L 125.031429 92.973673 
L 122.974286 92.797347 
L 122.46 92.79 
L 104.46 92.79 
L 104.46 92.79 
L 106.4472 94.95 
L 108.1752 97.11 
L 109.644 99.27 
L 110.8536 101.43 
L 111.804 103.59 
L 112.4952 105.75 
L 112.9272 107.91 
L 113.1 110.07 
L 113.0136 112.23 
L 112.668 114.39 
L 112.0632 116.55 
L 111.1992 118.71 
L 110.076 120.87 
L 108.6936 123.03 
L 107.052 125.19 
L 105.1512 127.35 
L 104.46 128.07 
L 104.46 128.07 
" clip-path="url(#pdeefc5b42a)" style="fill: none; stroke: #000000; stroke-width: 2; stroke-linecap: round"/>
   </g>
   <g id="line2d_17">
    <path d="M 91.86 119.43 
L 110.8536 119.43 
" clip-path="url(#pdeefc5b42a)" style="fill: none; stroke: #000000; stroke-width: 2; stroke-linecap: round"/>
   </g>
   <g id="line2d_18">
    <path d="M 91.86 101.43 
L 110.8536 101.43 
" clip-path="url(#pdeefc5b42a)" style="fill: none; stroke: #000000; stroke-width: 2; stroke-linecap: round"/>
   </g>
   <g id="line2d_19">
    <path d="M 156.3 110.43 
L 160.26 110.43 
" clip-path="url(#pdeefc5b42a)" style="fill: none; stroke: #000000; stroke-width: 2; stroke-linecap: round"/>
   </g>
   <g id="line2d_20">
    <path d="M 57.66 108.18 
L 58.813264 108.143017 
L 59.961789 108.03222 
L 61.100855 107.848065 
L 62.225783 107.591308 
L 63.331948 107.263003 
L 64.414806 106.864502 
L 65.469907 106.39744 
L 66.492916 105.863737 
L 67.479628 105.265586 
L 68.42599 104.605445 
L 69.328111 103.886027 
L 70.182286 103.110288 
L 70.985004 102.281416 
L 71.732967 101.402816 
L 72.423101 100.4781 
L 73.05257 99.511066 
L 73.618788 98.505689 
L 74.119427 97.4661 
L 74.552432 96.396571 
L 74.916021 95.301497 
L 75.208702 94.185377 
L 75.429272 93.052798 
L 75.576824 91.908414 
L 75.650752 90.756928 
L 75.650752 89.603072 
L 75.576824 88.451586 
L 75.429272 87.307202 
L 75.208702 86.174623 
L 74.916021 85.058503 
L 74.552432 83.963429 
L 74.119427 82.8939 
L 73.618788 81.854311 
L 73.05257 80.848934 
L 72.423101 79.8819 
L 71.732967 78.957184 
L 70.985004 78.078584 
L 70.182286 77.249712 
L 69.328111 76.473973 
L 68.42599 75.754555 
L 67.479628 75.094414 
L 66.492916 74.496263 
L 65.469907 73.96256 
L 64.414806 73.495498 
L 63.331948 73.096997 
L 62.225783 72.768692 
L 61.100855 72.511935 
L 59.961789 72.32778 
L 58.813264 72.216983 
L 57.66 72.18 
L 57.66 72.18 
L 34.26 72.18 
L 34.26 90.18 
L 34.26 108.18 
L 57.66 108.18 
" clip-path="url(#pdeefc5b42a)" style="fill: none; stroke: #000000; stroke-width: 2; stroke-linecap: round"/>
   </g>
   <g id="line2d_21">
    <path d="M 21.66 99.18 
L 34.26 99.18 
" clip-path="url(#pdeefc5b42a)" style="fill: none; stroke: #000000; stroke-width: 2; stroke-linecap: round"/>
   </g>
   <g id="line2d_22">
    <path d="M 21.66 81.18 
L 34.26 81.18 
" clip-path="url(#pdeefc5b42a)" style="fill: none; stroke: #000000; stroke-width: 2; stroke-linecap: round"/>
   </g>
   <g id="line2d_23">
    <path d="M 75.66 90.18 
L 88.26 90.18 
" clip-path="url(#pdeefc5b42a)" style="fill: none; stroke: #000000; stroke-width: 2; stroke-linecap: round"/>
   </g>
   <g id="line2d_24">
    <path d="M 91.86 101.43 
L 88.26 101.43 
L 88.26 90.18 
" clip-path="url(#pdeefc5b42a)" style="fill: none; stroke: #000000; stroke-width: 2; stroke-linecap: round"/>
   </g>
   <g id="line2d_25">
    <path d="M 16.26 130.68 
L 36.24 130.68 
M 68.28 130.68 
L 88.26 130.68 
" clip-path="url(#pdeefc5b42a)" style="fill: none; stroke: #000000; stroke-width: 2; stroke-linecap: round"/>
   </g>
   <g id="line2d_26">
    <path d="M 36.24 112.68 
L 59.64 130.68 
L 36.24 148.68 
L 36.24 112.68 
" clip-path="url(#pdeefc5b42a)" style="fill: none; stroke: #000000; stroke-width: 2; stroke-linecap: round"/>
   </g>
   <g id="line2d_27">
    <path d="M 91.86 119.43 
L 88.26 119.43 
L 88.26 130.68 
" clip-path="url(#pdeefc5b42a)" style="fill: none; stroke: #000000; stroke-width: 2; stroke-linecap: round"/>
   </g>
   <g id="line2d_28">
    <path d="M 163.86 82.305 
L 160.26 82.305 
L 160.26 110.43 
" clip-path="url(#pdeefc5b42a)" style="fill: none; stroke: #000000; stroke-width: 2; stroke-linecap: round"/>
   </g>
   <g id="text_1">
    <!-- $\text{Output}$ -->
    <g transform="translate(235.86 77.139688) scale(0.14 -0.14)">
     <defs>
      <path id="DejaVuSans-4f" d="M 2522 4238 
Q 1834 4238 1429 3725 
Q 1025 3213 1025 2328 
Q 1025 1447 1429 934 
Q 1834 422 2522 422 
Q 3209 422 3611 934 
Q 4013 1447 4013 2328 
Q 4013 3213 3611 3725 
Q 3209 4238 2522 4238 
z
M 2522 4750 
Q 3503 4750 4090 4092 
Q 4678 3434 4678 2328 
Q 4678 1225 4090 567 
Q 3503 -91 2522 -91 
Q 1538 -91 948 565 
Q 359 1222 359 2328 
Q 359 3434 948 4092 
Q 1538 4750 2522 4750 
z
" transform="scale(0.015625)"/>
      <path id="DejaVuSans-75" d="M 544 1381 
L 544 3500 
L 1119 3500 
L 1119 1403 
Q 1119 906 1312 657 
Q 1506 409 1894 409 
Q 2359 409 2629 706 
Q 2900 1003 2900 1516 
L 2900 3500 
L 3475 3500 
L 3475 0 
L 2900 0 
L 2900 538 
Q 2691 219 2414 64 
Q 2138 -91 1772 -91 
Q 1169 -91 856 284 
Q 544 659 544 1381 
z
M 1991 3584 
L 1991 3584 
z
" transform="scale(0.015625)"/>
      <path id="DejaVuSans-74" d="M 1172 4494 
L 1172 3500 
L 2356 3500 
L 2356 3053 
L 1172 3053 
L 1172 1153 
Q 1172 725 1289 603 
Q 1406 481 1766 481 
L 2356 481 
L 2356 0 
L 1766 0 
Q 1100 0 847 248 
Q 594 497 594 1153 
L 594 3053 
L 172 3053 
L 172 3500 
L 594 3500 
L 594 4494 
L 1172 4494 
z
" transform="scale(0.015625)"/>
      <path id="DejaVuSans-70" d="M 1159 525 
L 1159 -1331 
L 581 -1331 
L 581 3500 
L 1159 3500 
L 1159 2969 
Q 1341 3281 1617 3432 
Q 1894 3584 2278 3584 
Q 2916 3584 3314 3078 
Q 3713 2572 3713 1747 
Q 3713 922 3314 415 
Q 2916 -91 2278 -91 
Q 1894 -91 1617 61 
Q 1341 213 1159 525 
z
M 3116 1747 
Q 3116 2381 2855 2742 
Q 2594 3103 2138 3103 
Q 1681 3103 1420 2742 
Q 1159 2381 1159 1747 
Q 1159 1113 1420 752 
Q 1681 391 2138 391 
Q 2594 391 2855 752 
Q 3116 1113 3116 1747 
z
" transform="scale(0.015625)"/>
     </defs>
     <use xlink:href="#DejaVuSans-4f" transform="translate(0 0.78125)"/>
     <use xlink:href="#DejaVuSans-75" transform="translate(78.710938 0.78125)"/>
     <use xlink:href="#DejaVuSans-74" transform="translate(142.089844 0.78125)"/>
     <use xlink:href="#DejaVuSans-70" transform="translate(181.298828 0.78125)"/>
     <use xlink:href="#DejaVuSans-75" transform="translate(244.775391 0.78125)"/>
     <use xlink:href="#DejaVuSans-74" transform="translate(308.154297 0.78125)"/>
    </g>
   </g>
   <g id="text_2">
    <!-- a -->
    <g transform="translate(4.080625 26.543125) scale(0.14 -0.14)">
     <defs>
      <path id="DejaVuSans-61" d="M 2194 1759 
Q 1497 1759 1228 1600 
Q 959 1441 959 1056 
Q 959 750 1161 570 
Q 1363 391 1709 391 
Q 2188 391 2477 730 
Q 2766 1069 2766 1631 
L 2766 1759 
L 2194 1759 
z
M 3341 1997 
L 3341 0 
L 2766 0 
L 2766 531 
Q 2569 213 2275 61 
Q 1981 -91 1556 -91 
Q 1019 -91 701 211 
Q 384 513 384 1019 
Q 384 1609 779 1909 
Q 1175 2209 1959 2209 
L 2766 2209 
L 2766 2266 
Q 2766 2663 2505 2880 
Q 2244 3097 1772 3097 
Q 1472 3097 1187 3025 
Q 903 2953 641 2809 
L 641 3341 
Q 956 3463 1253 3523 
Q 1550 3584 1831 3584 
Q 2591 3584 2966 3190 
Q 3341 2797 3341 1997 
z
" transform="scale(0.015625)"/>
     </defs>
     <use xlink:href="#DejaVuSans-61"/>
    </g>
   </g>
   <g id="text_3">
    <!-- c -->
    <g transform="translate(4.962187 53.543125) scale(0.14 -0.14)">
     <defs>
      <path id="DejaVuSans-63" d="M 3122 3366 
L 3122 2828 
Q 2878 2963 2633 3030 
Q 2388 3097 2138 3097 
Q 1578 3097 1268 2742 
Q 959 2388 959 1747 
Q 959 1106 1268 751 
Q 1578 397 2138 397 
Q 2388 397 2633 464 
Q 2878 531 3122 666 
L 3122 134 
Q 2881 22 2623 -34 
Q 2366 -91 2075 -91 
Q 1284 -91 818 406 
Q 353 903 353 1747 
Q 353 2603 823 3093 
Q 1294 3584 2113 3584 
Q 2378 3584 2631 3529 
Q 2884 3475 3122 3366 
z
" transform="scale(0.015625)"/>
     </defs>
     <use xlink:href="#DejaVuSans-63"/>
    </g>
   </g>
   <g id="text_4">
    <!-- a -->
    <g transform="translate(9.480625 85.043125) scale(0.14 -0.14)">
     <use xlink:href="#DejaVuSans-61"/>
    </g>
   </g>
   <g id="text_5">
    <!-- b -->
    <g transform="translate(9.172187 103.043125) scale(0.14 -0.14)">
     <defs>
      <path id="DejaVuSans-62" d="M 3116 1747 
Q 3116 2381 2855 2742 
Q 2594 3103 2138 3103 
Q 1681 3103 1420 2742 
Q 1159 2381 1159 1747 
Q 1159 1113 1420 752 
Q 1681 391 2138 391 
Q 2594 391 2855 752 
Q 3116 1113 3116 1747 
z
M 1159 2969 
Q 1341 3281 1617 3432 
Q 1894 3584 2278 3584 
Q 2916 3584 3314 3078 
Q 3713 2572 3713 1747 
Q 3713 922 3314 415 
Q 2916 -91 2278 -91 
Q 1894 -91 1617 61 
Q 1341 213 1159 525 
L 1159 0 
L 581 0 
L 581 4863 
L 1159 4863 
L 1159 2969 
z
" transform="scale(0.015625)"/>
     </defs>
     <use xlink:href="#DejaVuSans-62"/>
    </g>
   </g>
   <g id="text_6">
    <!-- a -->
    <g transform="translate(4.080625 134.543125) scale(0.14 -0.14)">
     <use xlink:href="#DejaVuSans-61"/>
    </g>
   </g>
  </g>
 </g>
 <defs>
  <clipPath id="pdeefc5b42a">
   <rect x="0" y="0" width="322.44" height="153.36"/>
  </clipPath>
 </defs>
</svg>
