<?xml version="1.0" encoding="utf-8" standalone="no"?>
<!DOCTYPE svg PUBLIC "-//W3C//DTD SVG 1.1//EN"
  "http://www.w3.org/Graphics/SVG/1.1/DTD/svg11.dtd">
<svg xmlns:xlink="http://www.w3.org/1999/xlink" width="322.44pt" height="153pt" viewBox="0 0 322.44 153" xmlns="http://www.w3.org/2000/svg" version="1.1">
 <metadata>
  <rdf:RDF xmlns:dc="http://purl.org/dc/elements/1.1/" xmlns:cc="http://creativecommons.org/ns#" xmlns:rdf="http://www.w3.org/1999/02/22-rdf-syntax-ns#">
   <cc:Work>
    <dc:type rdf:resource="http://purl.org/dc/dcmitype/StillImage"/>
    <dc:date>2024-09-01T12:28:29.888856</dc:date>
    <dc:format>image/svg+xml</dc:format>
    <dc:creator>
     <cc:Agent>
      <dc:title>Matplotlib v3.9.0, https://matplotlib.org/</dc:title>
     </cc:Agent>
    </dc:creator>
   </cc:Work>
  </rdf:RDF>
 </metadata>
 <defs>
  <style type="text/css">*{stroke-linejoin: round; stroke-linecap: butt}</style>
 </defs>
 <g id="figure_1">
  <g id="patch_1">
   <path d="M 0 153 
L 322.44 153 
L 322.44 0 
L 0 0 
L 0 153 
z
" style="fill: none"/>
  </g>
  <g id="axes_1">
   <g id="patch_2">
    <path d="M 151.98 46.89 
C 153.125677 46.89 154.224585 46.434818 155.034701 45.624701 
C 155.844818 44.814585 156.3 43.715677 156.3 42.57 
C 156.3 41.424323 155.844818 40.325415 155.034701 39.515299 
C 154.224585 38.705182 153.125677 38.25 151.98 38.25 
C 150.834323 38.25 149.735415 38.705182 148.925299 39.515299 
C 148.115182 40.325415 147.66 41.424323 147.66 42.57 
C 147.66 43.715677 148.115182 44.814585 148.925299 45.624701 
C 149.735415 46.434818 150.834323 46.89 151.98 46.89 
L 151.98 46.89 
z
" clip-path="url(#p8b21396ef3)" style="fill: none; stroke: #000000; stroke-width: 2; stroke-linejoin: miter"/>
   </g>
   <g id="patch_3">
    <path d="M 79.98 26.64 
C 81.125677 26.64 82.224585 26.184818 83.034701 25.374701 
C 83.844818 24.564585 84.3 23.465677 84.3 22.32 
C 84.3 21.174323 83.844818 20.075415 83.034701 19.265299 
C 82.224585 18.455182 81.125677 18 79.98 18 
C 78.834323 18 77.735415 18.455182 76.925299 19.265299 
C 76.115182 20.075415 75.66 21.174323 75.66 22.32 
C 75.66 23.465677 76.115182 24.564585 76.925299 25.374701 
C 77.735415 26.184818 78.834323 26.64 79.98 26.64 
L 79.98 26.64 
z
" clip-path="url(#p8b21396ef3)" style="fill: none; stroke: #000000; stroke-width: 2; stroke-linejoin: miter"/>
   </g>
   <g id="patch_4">
    <path d="M 63.96 67.14 
C 65.105677 67.14 66.204585 66.684818 67.014701 65.874701 
C 67.824818 65.064585 68.28 63.965677 68.28 62.82 
C 68.28 61.674323 67.824818 60.575415 67.014701 59.765299 
C 66.204585 58.955182 65.105677 58.5 63.96 58.5 
C 62.814323 58.5 61.715415 58.955182 60.905299 59.765299 
C 60.095182 60.575415 59.64 61.674323 59.64 62.82 
C 59.64 63.965677 60.095182 65.064585 60.905299 65.874701 
C 61.715415 66.684818 62.814323 67.14 63.96 67.14 
L 63.96 67.14 
z
" clip-path="url(#p8b21396ef3)" style="fill: none; stroke: #000000; stroke-width: 2; stroke-linejoin: miter"/>
   </g>
   <g id="patch_5">
    <path d="M 63.96 94.14 
C 65.105677 94.14 66.204585 93.684818 67.014701 92.874701 
C 67.824818 92.064585 68.28 90.965677 68.28 89.82 
C 68.28 88.674323 67.824818 87.575415 67.014701 86.765299 
C 66.204585 85.955182 65.105677 85.5 63.96 85.5 
C 62.814323 85.5 61.715415 85.955182 60.905299 86.765299 
C 60.095182 87.575415 59.64 88.674323 59.64 89.82 
C 59.64 90.965677 60.095182 92.064585 60.905299 92.874701 
C 61.715415 93.684818 62.814323 94.14 63.96 94.14 
L 63.96 94.14 
z
" clip-path="url(#p8b21396ef3)" style="fill: none; stroke: #000000; stroke-width: 2; stroke-linejoin: miter"/>
   </g>
   <g id="patch_6">
    <path d="M 79.98 134.64 
C 81.125677 134.64 82.224585 134.184818 83.034701 133.374701 
C 83.844818 132.564585 84.3 131.465677 84.3 130.32 
C 84.3 129.174323 83.844818 128.075415 83.034701 127.265299 
C 82.224585 126.455182 81.125677 126 79.98 126 
C 78.834323 126 77.735415 126.455182 76.925299 127.265299 
C 76.115182 128.075415 75.66 129.174323 75.66 130.32 
C 75.66 131.465677 76.115182 132.564585 76.925299 133.374701 
C 77.735415 134.184818 78.834323 134.64 79.98 134.64 
L 79.98 134.64 
z
" clip-path="url(#p8b21396ef3)" style="fill: none; stroke: #000000; stroke-width: 2; stroke-linejoin: miter"/>
   </g>
   <g id="line2d_1">
    <path d="M 176.46 93.96 
L 196.002857 93.893878 
L 198.06 93.6 
L 200.117143 93.07102 
L 202.174286 92.306939 
L 204.231429 91.307755 
L 206.288571 90.073469 
L 208.345714 88.604082 
L 210.402857 86.899592 
L 212.974286 84.438367 
L 215.545714 81.609796 
L 218.117143 78.413878 
L 219.66 76.32 
L 219.66 76.32 
L 217.088571 72.903673 
L 214.517143 69.854694 
L 211.945714 67.173061 
L 209.374286 64.858776 
L 207.317143 63.271837 
L 205.26 61.92 
L 203.202857 60.803265 
L 201.145714 59.921633 
L 199.088571 59.275102 
L 197.031429 58.863673 
L 194.974286 58.687347 
L 194.46 58.68 
L 176.46 58.68 
L 176.46 58.68 
L 178.4472 60.84 
L 180.1752 63 
L 181.644 65.16 
L 182.8536 67.32 
L 183.804 69.48 
L 184.4952 71.64 
L 184.9272 73.8 
L 185.1 75.96 
L 185.0136 78.12 
L 184.668 80.28 
L 184.0632 82.44 
L 183.1992 84.6 
L 182.076 86.76 
L 180.6936 88.92 
L 179.052 91.08 
L 177.1512 93.24 
L 176.46 93.96 
L 176.46 93.96 
" clip-path="url(#p8b21396ef3)" style="fill: none; stroke: #000000; stroke-width: 2; stroke-linecap: round"/>
   </g>
   <g id="line2d_2">
    <path d="M 171.06 93.96 
L 171.7512 93.24 
L 172.4136 92.52 
L 173.0472 91.8 
L 173.652 91.08 
L 174.228 90.36 
L 174.7752 89.64 
L 175.2936 88.92 
L 175.7832 88.2 
L 176.244 87.48 
L 176.676 86.76 
L 177.0792 86.04 
L 177.4536 85.32 
L 177.7992 84.6 
L 178.116 83.88 
L 178.404 83.16 
L 178.6632 82.44 
L 178.8936 81.72 
L 179.0952 81 
L 179.268 80.28 
L 179.412 79.56 
L 179.5272 78.84 
L 179.6136 78.12 
L 179.6712 77.4 
L 179.7 76.68 
L 179.7 75.96 
L 179.6712 75.24 
L 179.6136 74.52 
L 179.5272 73.8 
L 179.412 73.08 
L 179.268 72.36 
L 179.0952 71.64 
L 178.8936 70.92 
L 178.6632 70.2 
L 178.404 69.48 
L 178.116 68.76 
L 177.7992 68.04 
L 177.4536 67.32 
L 177.0792 66.6 
L 176.676 65.88 
L 176.244 65.16 
L 175.7832 64.44 
L 175.2936 63.72 
L 174.7752 63 
L 174.228 62.28 
L 173.652 61.56 
L 173.0472 60.84 
L 172.4136 60.12 
L 171.7512 59.4 
L 171.06 58.68 
" clip-path="url(#p8b21396ef3)" style="fill: none; stroke: #000000; stroke-width: 2; stroke-linecap: round"/>
   </g>
   <g id="line2d_3">
    <path d="M 163.86 85.32 
L 177.4536 85.32 
" clip-path="url(#p8b21396ef3)" style="fill: none; stroke: #000000; stroke-width: 2; stroke-linecap: round"/>
   </g>
   <g id="line2d_4">
    <path d="M 163.86 67.32 
L 177.4536 67.32 
" clip-path="url(#p8b21396ef3)" style="fill: none; stroke: #000000; stroke-width: 2; stroke-linecap: round"/>
   </g>
   <g id="line2d_5">
    <path d="M 219.66 76.32 
L 232.26 76.32 
" clip-path="url(#p8b21396ef3)" style="fill: none; stroke: #000000; stroke-width: 2; stroke-linecap: round"/>
   </g>
   <g id="line2d_6">
    <path d="M 104.46 60.21 
L 124.002857 60.143878 
L 126.06 59.85 
L 128.117143 59.32102 
L 130.174286 58.556939 
L 132.231429 57.557755 
L 134.288571 56.323469 
L 136.345714 54.854082 
L 138.402857 53.149592 
L 140.974286 50.688367 
L 143.545714 47.859796 
L 146.117143 44.663878 
L 147.66 42.57 
L 147.66 42.57 
L 145.088571 39.153673 
L 142.517143 36.104694 
L 139.945714 33.423061 
L 137.374286 31.108776 
L 135.317143 29.521837 
L 133.26 28.17 
L 131.202857 27.053265 
L 129.145714 26.171633 
L 127.088571 25.525102 
L 125.031429 25.113673 
L 122.974286 24.937347 
L 122.46 24.93 
L 104.46 24.93 
L 104.46 24.93 
L 106.4472 27.09 
L 108.1752 29.25 
L 109.644 31.41 
L 110.8536 33.57 
L 111.804 35.73 
L 112.4952 37.89 
L 112.9272 40.05 
L 113.1 42.21 
L 113.0136 44.37 
L 112.668 46.53 
L 112.0632 48.69 
L 111.1992 50.85 
L 110.076 53.01 
L 108.6936 55.17 
L 107.052 57.33 
L 105.1512 59.49 
L 104.46 60.21 
L 104.46 60.21 
" clip-path="url(#p8b21396ef3)" style="fill: none; stroke: #000000; stroke-width: 2; stroke-linecap: round"/>
   </g>
   <g id="line2d_7">
    <path d="M 91.86 51.57 
L 110.8536 51.57 
" clip-path="url(#p8b21396ef3)" style="fill: none; stroke: #000000; stroke-width: 2; stroke-linecap: round"/>
   </g>
   <g id="line2d_8">
    <path d="M 91.86 33.57 
L 110.8536 33.57 
" clip-path="url(#p8b21396ef3)" style="fill: none; stroke: #000000; stroke-width: 2; stroke-linecap: round"/>
   </g>
   <g id="line2d_9">
    <path d="M 156.3 42.57 
L 160.26 42.57 
" clip-path="url(#p8b21396ef3)" style="fill: none; stroke: #000000; stroke-width: 2; stroke-linecap: round"/>
   </g>
   <g id="line2d_10">
    <path d="M 32.46 39.96 
L 52.002857 39.893878 
L 54.06 39.6 
L 56.117143 39.07102 
L 58.174286 38.306939 
L 60.231429 37.307755 
L 62.288571 36.073469 
L 64.345714 34.604082 
L 66.402857 32.899592 
L 68.974286 30.438367 
L 71.545714 27.609796 
L 74.117143 24.413878 
L 75.66 22.32 
L 75.66 22.32 
L 73.088571 18.903673 
L 70.517143 15.854694 
L 67.945714 13.173061 
L 65.374286 10.858776 
L 63.317143 9.271837 
L 61.26 7.92 
L 59.202857 6.803265 
L 57.145714 5.921633 
L 55.088571 5.275102 
L 53.031429 4.863673 
L 50.974286 4.687347 
L 50.46 4.68 
L 32.46 4.68 
L 32.46 4.68 
L 34.4472 6.84 
L 36.1752 9 
L 37.644 11.16 
L 38.8536 13.32 
L 39.804 15.48 
L 40.4952 17.64 
L 40.9272 19.8 
L 41.1 21.96 
L 41.0136 24.12 
L 40.668 26.28 
L 40.0632 28.44 
L 39.1992 30.6 
L 38.076 32.76 
L 36.6936 34.92 
L 35.052 37.08 
L 33.1512 39.24 
L 32.46 39.96 
L 32.46 39.96 
" clip-path="url(#p8b21396ef3)" style="fill: none; stroke: #000000; stroke-width: 2; stroke-linecap: round"/>
   </g>
   <g id="line2d_11">
    <path d="M 27.06 39.96 
L 27.7512 39.24 
L 28.4136 38.52 
L 29.0472 37.8 
L 29.652 37.08 
L 30.228 36.36 
L 30.7752 35.64 
L 31.2936 34.92 
L 31.7832 34.2 
L 32.244 33.48 
L 32.676 32.76 
L 33.0792 32.04 
L 33.4536 31.32 
L 33.7992 30.6 
L 34.116 29.88 
L 34.404 29.16 
L 34.6632 28.44 
L 34.8936 27.72 
L 35.0952 27 
L 35.268 26.28 
L 35.412 25.56 
L 35.5272 24.84 
L 35.6136 24.12 
L 35.6712 23.4 
L 35.7 22.68 
L 35.7 21.96 
L 35.6712 21.24 
L 35.6136 20.52 
L 35.5272 19.8 
L 35.412 19.08 
L 35.268 18.36 
L 35.0952 17.64 
L 34.8936 16.92 
L 34.6632 16.2 
L 34.404 15.48 
L 34.116 14.76 
L 33.7992 14.04 
L 33.4536 13.32 
L 33.0792 12.6 
L 32.676 11.88 
L 32.244 11.16 
L 31.7832 10.44 
L 31.2936 9.72 
L 30.7752 9 
L 30.228 8.28 
L 29.652 7.56 
L 29.0472 6.84 
L 28.4136 6.12 
L 27.7512 5.4 
L 27.06 4.68 
" clip-path="url(#p8b21396ef3)" style="fill: none; stroke: #000000; stroke-width: 2; stroke-linecap: round"/>
   </g>
   <g id="line2d_12">
    <path d="M 19.86 31.32 
L 33.4536 31.32 
" clip-path="url(#p8b21396ef3)" style="fill: none; stroke: #000000; stroke-width: 2; stroke-linecap: round"/>
   </g>
   <g id="line2d_13">
    <path d="M 19.86 13.32 
L 33.4536 13.32 
" clip-path="url(#p8b21396ef3)" style="fill: none; stroke: #000000; stroke-width: 2; stroke-linecap: round"/>
   </g>
   <g id="line2d_14">
    <path d="M 84.3 22.32 
L 88.26 22.32 
" clip-path="url(#p8b21396ef3)" style="fill: none; stroke: #000000; stroke-width: 2; stroke-linecap: round"/>
   </g>
   <g id="line2d_15">
    <path d="M 91.86 33.57 
L 88.26 33.57 
L 88.26 22.32 
" clip-path="url(#p8b21396ef3)" style="fill: none; stroke: #000000; stroke-width: 2; stroke-linecap: round"/>
   </g>
   <g id="line2d_16">
    <path d="M 16.26 62.82 
L 36.24 62.82 
M 68.28 62.82 
L 88.26 62.82 
" clip-path="url(#p8b21396ef3)" style="fill: none; stroke: #000000; stroke-width: 2; stroke-linecap: round"/>
   </g>
   <g id="line2d_17">
    <path d="M 36.24 44.82 
L 59.64 62.82 
L 36.24 80.82 
L 36.24 44.82 
" clip-path="url(#p8b21396ef3)" style="fill: none; stroke: #000000; stroke-width: 2; stroke-linecap: round"/>
   </g>
   <g id="line2d_18">
    <path d="M 91.86 51.57 
L 88.26 51.57 
L 88.26 62.82 
" clip-path="url(#p8b21396ef3)" style="fill: none; stroke: #000000; stroke-width: 2; stroke-linecap: round"/>
   </g>
   <g id="line2d_19">
    <path d="M 163.86 67.32 
L 160.26 67.32 
L 160.26 42.57 
" clip-path="url(#p8b21396ef3)" style="fill: none; stroke: #000000; stroke-width: 2; stroke-linecap: round"/>
   </g>
   <g id="line2d_20">
    <path d="M 104.46 127.71 
L 124.002857 127.643878 
L 126.06 127.35 
L 128.117143 126.82102 
L 130.174286 126.056939 
L 132.231429 125.057755 
L 134.288571 123.823469 
L 136.345714 122.354082 
L 138.402857 120.649592 
L 140.974286 118.188367 
L 143.545714 115.359796 
L 146.117143 112.163878 
L 147.66 110.07 
L 147.66 110.07 
L 145.088571 106.653673 
L 142.517143 103.604694 
L 139.945714 100.923061 
L 137.374286 98.608776 
L 135.317143 97.021837 
L 133.26 95.67 
L 131.202857 94.553265 
L 129.145714 93.671633 
L 127.088571 93.025102 
L 125.031429 92.613673 
L 122.974286 92.437347 
L 122.46 92.43 
L 104.46 92.43 
L 104.46 92.43 
L 106.4472 94.59 
L 108.1752 96.75 
L 109.644 98.91 
L 110.8536 101.07 
L 111.804 103.23 
L 112.4952 105.39 
L 112.9272 107.55 
L 113.1 109.71 
L 113.0136 111.87 
L 112.668 114.03 
L 112.0632 116.19 
L 111.1992 118.35 
L 110.076 120.51 
L 108.6936 122.67 
L 107.052 124.83 
L 105.1512 126.99 
L 104.46 127.71 
L 104.46 127.71 
" clip-path="url(#p8b21396ef3)" style="fill: none; stroke: #000000; stroke-width: 2; stroke-linecap: round"/>
   </g>
   <g id="line2d_21">
    <path d="M 91.86 119.07 
L 110.8536 119.07 
" clip-path="url(#p8b21396ef3)" style="fill: none; stroke: #000000; stroke-width: 2; stroke-linecap: round"/>
   </g>
   <g id="line2d_22">
    <path d="M 91.86 101.07 
L 110.8536 101.07 
" clip-path="url(#p8b21396ef3)" style="fill: none; stroke: #000000; stroke-width: 2; stroke-linecap: round"/>
   </g>
   <g id="line2d_23">
    <path d="M 147.66 110.07 
L 160.26 110.07 
" clip-path="url(#p8b21396ef3)" style="fill: none; stroke: #000000; stroke-width: 2; stroke-linecap: round"/>
   </g>
   <g id="line2d_24">
    <path d="M 16.26 89.82 
L 36.24 89.82 
M 68.28 89.82 
L 88.26 89.82 
" clip-path="url(#p8b21396ef3)" style="fill: none; stroke: #000000; stroke-width: 2; stroke-linecap: round"/>
   </g>
   <g id="line2d_25">
    <path d="M 36.24 71.82 
L 59.64 89.82 
L 36.24 107.82 
L 36.24 71.82 
" clip-path="url(#p8b21396ef3)" style="fill: none; stroke: #000000; stroke-width: 2; stroke-linecap: round"/>
   </g>
   <g id="line2d_26">
    <path d="M 91.86 101.07 
L 88.26 101.07 
L 88.26 89.82 
" clip-path="url(#p8b21396ef3)" style="fill: none; stroke: #000000; stroke-width: 2; stroke-linecap: round"/>
   </g>
   <g id="line2d_27">
    <path d="M 57.66 148.32 
L 58.813264 148.283017 
L 59.961789 148.17222 
L 61.100855 147.988065 
L 62.225783 147.731308 
L 63.331948 147.403003 
L 64.414806 147.004502 
L 65.469907 146.53744 
L 66.492916 146.003737 
L 67.479628 145.405586 
L 68.42599 144.745445 
L 69.328111 144.026027 
L 70.182286 143.250288 
L 70.985004 142.421416 
L 71.732967 141.542816 
L 72.423101 140.6181 
L 73.05257 139.651066 
L 73.618788 138.645689 
L 74.119427 137.6061 
L 74.552432 136.536571 
L 74.916021 135.441497 
L 75.208702 134.325377 
L 75.429272 133.192798 
L 75.576824 132.048414 
L 75.650752 130.896928 
L 75.650752 129.743072 
L 75.576824 128.591586 
L 75.429272 127.447202 
L 75.208702 126.314623 
L 74.916021 125.198503 
L 74.552432 124.103429 
L 74.119427 123.0339 
L 73.618788 121.994311 
L 73.05257 120.988934 
L 72.423101 120.0219 
L 71.732967 119.097184 
L 70.985004 118.218584 
L 70.182286 117.389712 
L 69.328111 116.613973 
L 68.42599 115.894555 
L 67.479628 115.234414 
L 66.492916 114.636263 
L 65.469907 114.10256 
L 64.414806 113.635498 
L 63.331948 113.236997 
L 62.225783 112.908692 
L 61.100855 112.651935 
L 59.961789 112.46778 
L 58.813264 112.356983 
L 57.66 112.32 
L 57.66 112.32 
L 34.26 112.32 
L 34.26 130.32 
L 34.26 148.32 
L 57.66 148.32 
" clip-path="url(#p8b21396ef3)" style="fill: none; stroke: #000000; stroke-width: 2; stroke-linecap: round"/>
   </g>
   <g id="line2d_28">
    <path d="M 21.66 139.32 
L 34.26 139.32 
" clip-path="url(#p8b21396ef3)" style="fill: none; stroke: #000000; stroke-width: 2; stroke-linecap: round"/>
   </g>
   <g id="line2d_29">
    <path d="M 21.66 121.32 
L 34.26 121.32 
" clip-path="url(#p8b21396ef3)" style="fill: none; stroke: #000000; stroke-width: 2; stroke-linecap: round"/>
   </g>
   <g id="line2d_30">
    <path d="M 84.3 130.32 
L 88.26 130.32 
" clip-path="url(#p8b21396ef3)" style="fill: none; stroke: #000000; stroke-width: 2; stroke-linecap: round"/>
   </g>
   <g id="line2d_31">
    <path d="M 91.86 119.07 
L 88.26 119.07 
L 88.26 130.32 
" clip-path="url(#p8b21396ef3)" style="fill: none; stroke: #000000; stroke-width: 2; stroke-linecap: round"/>
   </g>
   <g id="line2d_32">
    <path d="M 163.86 85.32 
L 160.26 85.32 
L 160.26 110.07 
" clip-path="url(#p8b21396ef3)" style="fill: none; stroke: #000000; stroke-width: 2; stroke-linecap: round"/>
   </g>
   <g id="text_1">
    <!-- $\text{Output}$ -->
    <g transform="translate(235.86 80.154688) scale(0.14 -0.14)">
     <defs>
      <path id="DejaVuSans-4f" d="M 2522 4238 
Q 1834 4238 1429 3725 
Q 1025 3213 1025 2328 
Q 1025 1447 1429 934 
Q 1834 422 2522 422 
Q 3209 422 3611 934 
Q 4013 1447 4013 2328 
Q 4013 3213 3611 3725 
Q 3209 4238 2522 4238 
z
M 2522 4750 
Q 3503 4750 4090 4092 
Q 4678 3434 4678 2328 
Q 4678 1225 4090 567 
Q 3503 -91 2522 -91 
Q 1538 -91 948 565 
Q 359 1222 359 2328 
Q 359 3434 948 4092 
Q 1538 4750 2522 4750 
z
" transform="scale(0.015625)"/>
      <path id="DejaVuSans-75" d="M 544 1381 
L 544 3500 
L 1119 3500 
L 1119 1403 
Q 1119 906 1312 657 
Q 1506 409 1894 409 
Q 2359 409 2629 706 
Q 2900 1003 2900 1516 
L 2900 3500 
L 3475 3500 
L 3475 0 
L 2900 0 
L 2900 538 
Q 2691 219 2414 64 
Q 2138 -91 1772 -91 
Q 1169 -91 856 284 
Q 544 659 544 1381 
z
M 1991 3584 
L 1991 3584 
z
" transform="scale(0.015625)"/>
      <path id="DejaVuSans-74" d="M 1172 4494 
L 1172 3500 
L 2356 3500 
L 2356 3053 
L 1172 3053 
L 1172 1153 
Q 1172 725 1289 603 
Q 1406 481 1766 481 
L 2356 481 
L 2356 0 
L 1766 0 
Q 1100 0 847 248 
Q 594 497 594 1153 
L 594 3053 
L 172 3053 
L 172 3500 
L 594 3500 
L 594 4494 
L 1172 4494 
z
" transform="scale(0.015625)"/>
      <path id="DejaVuSans-70" d="M 1159 525 
L 1159 -1331 
L 581 -1331 
L 581 3500 
L 1159 3500 
L 1159 2969 
Q 1341 3281 1617 3432 
Q 1894 3584 2278 3584 
Q 2916 3584 3314 3078 
Q 3713 2572 3713 1747 
Q 3713 922 3314 415 
Q 2916 -91 2278 -91 
Q 1894 -91 1617 61 
Q 1341 213 1159 525 
z
M 3116 1747 
Q 3116 2381 2855 2742 
Q 2594 3103 2138 3103 
Q 1681 3103 1420 2742 
Q 1159 2381 1159 1747 
Q 1159 1113 1420 752 
Q 1681 391 2138 391 
Q 2594 391 2855 752 
Q 3116 1113 3116 1747 
z
" transform="scale(0.015625)"/>
     </defs>
     <use xlink:href="#DejaVuSans-4f" transform="translate(0 0.78125)"/>
     <use xlink:href="#DejaVuSans-75" transform="translate(78.710938 0.78125)"/>
     <use xlink:href="#DejaVuSans-74" transform="translate(142.089844 0.78125)"/>
     <use xlink:href="#DejaVuSans-70" transform="translate(181.298828 0.78125)"/>
     <use xlink:href="#DejaVuSans-75" transform="translate(244.775391 0.78125)"/>
     <use xlink:href="#DejaVuSans-74" transform="translate(308.154297 0.78125)"/>
    </g>
   </g>
   <g id="text_2">
    <!-- b -->
    <g transform="translate(7.372187 17.183125) scale(0.14 -0.14)">
     <defs>
      <path id="DejaVuSans-62" d="M 3116 1747 
Q 3116 2381 2855 2742 
Q 2594 3103 2138 3103 
Q 1681 3103 1420 2742 
Q 1159 2381 1159 1747 
Q 1159 1113 1420 752 
Q 1681 391 2138 391 
Q 2594 391 2855 752 
Q 3116 1113 3116 1747 
z
M 1159 2969 
Q 1341 3281 1617 3432 
Q 1894 3584 2278 3584 
Q 2916 3584 3314 3078 
Q 3713 2572 3713 1747 
Q 3713 922 3314 415 
Q 2916 -91 2278 -91 
Q 1894 -91 1617 61 
Q 1341 213 1159 525 
L 1159 0 
L 581 0 
L 581 4863 
L 1159 4863 
L 1159 2969 
z
" transform="scale(0.015625)"/>
     </defs>
     <use xlink:href="#DejaVuSans-62"/>
    </g>
   </g>
   <g id="text_3">
    <!-- c -->
    <g transform="translate(8.562187 35.183125) scale(0.14 -0.14)">
     <defs>
      <path id="DejaVuSans-63" d="M 3122 3366 
L 3122 2828 
Q 2878 2963 2633 3030 
Q 2388 3097 2138 3097 
Q 1578 3097 1268 2742 
Q 959 2388 959 1747 
Q 959 1106 1268 751 
Q 1578 397 2138 397 
Q 2388 397 2633 464 
Q 2878 531 3122 666 
L 3122 134 
Q 2881 22 2623 -34 
Q 2366 -91 2075 -91 
Q 1284 -91 818 406 
Q 353 903 353 1747 
Q 353 2603 823 3093 
Q 1294 3584 2113 3584 
Q 2378 3584 2631 3529 
Q 2884 3475 3122 3366 
z
" transform="scale(0.015625)"/>
     </defs>
     <use xlink:href="#DejaVuSans-63"/>
    </g>
   </g>
   <g id="text_4">
    <!-- a -->
    <g transform="translate(4.080625 66.683125) scale(0.14 -0.14)">
     <defs>
      <path id="DejaVuSans-61" d="M 2194 1759 
Q 1497 1759 1228 1600 
Q 959 1441 959 1056 
Q 959 750 1161 570 
Q 1363 391 1709 391 
Q 2188 391 2477 730 
Q 2766 1069 2766 1631 
L 2766 1759 
L 2194 1759 
z
M 3341 1997 
L 3341 0 
L 2766 0 
L 2766 531 
Q 2569 213 2275 61 
Q 1981 -91 1556 -91 
Q 1019 -91 701 211 
Q 384 513 384 1019 
Q 384 1609 779 1909 
Q 1175 2209 1959 2209 
L 2766 2209 
L 2766 2266 
Q 2766 2663 2505 2880 
Q 2244 3097 1772 3097 
Q 1472 3097 1187 3025 
Q 903 2953 641 2809 
L 641 3341 
Q 956 3463 1253 3523 
Q 1550 3584 1831 3584 
Q 2591 3584 2966 3190 
Q 3341 2797 3341 1997 
z
" transform="scale(0.015625)"/>
     </defs>
     <use xlink:href="#DejaVuSans-61"/>
    </g>
   </g>
   <g id="text_5">
    <!-- a -->
    <g transform="translate(4.080625 93.683125) scale(0.14 -0.14)">
     <use xlink:href="#DejaVuSans-61"/>
    </g>
   </g>
   <g id="text_6">
    <!-- a -->
    <g transform="translate(9.480625 125.183125) scale(0.14 -0.14)">
     <use xlink:href="#DejaVuSans-61"/>
    </g>
   </g>
   <g id="text_7">
    <!-- a -->
    <g transform="translate(9.480625 143.183125) scale(0.14 -0.14)">
     <use xlink:href="#DejaVuSans-61"/>
    </g>
   </g>
  </g>
 </g>
 <defs>
  <clipPath id="p8b21396ef3">
   <rect x="0" y="0" width="322.44" height="153"/>
  </clipPath>
 </defs>
</svg>
