<?xml version="1.0" encoding="utf-8" standalone="no"?>
<!DOCTYPE svg PUBLIC "-//W3C//DTD SVG 1.1//EN"
  "http://www.w3.org/Graphics/SVG/1.1/DTD/svg11.dtd">
<svg xmlns:xlink="http://www.w3.org/1999/xlink" width="246.84pt" height="99pt" viewBox="0 0 246.84 99" xmlns="http://www.w3.org/2000/svg" version="1.1">
 <metadata>
  <rdf:RDF xmlns:dc="http://purl.org/dc/elements/1.1/" xmlns:cc="http://creativecommons.org/ns#" xmlns:rdf="http://www.w3.org/1999/02/22-rdf-syntax-ns#">
   <cc:Work>
    <dc:type rdf:resource="http://purl.org/dc/dcmitype/StillImage"/>
    <dc:date>2024-08-25T11:07:09.283022</dc:date>
    <dc:format>image/svg+xml</dc:format>
    <dc:creator>
     <cc:Agent>
      <dc:title>Matplotlib v3.9.0, https://matplotlib.org/</dc:title>
     </cc:Agent>
    </dc:creator>
   </cc:Work>
  </rdf:RDF>
 </metadata>
 <defs>
  <style type="text/css">*{stroke-linejoin: round; stroke-linecap: butt}</style>
 </defs>
 <g id="figure_1">
  <g id="patch_1">
   <path d="M 0 99 
L 246.84 99 
L 246.84 0 
L 0 0 
L 0 99 
z
" style="fill: none"/>
  </g>
  <g id="axes_1">
   <g id="patch_2">
    <path d="M 76.38 81 
C 77.525677 81 78.624585 80.544818 79.434701 79.734701 
C 80.244818 78.924585 80.7 77.825677 80.7 76.68 
C 80.7 75.534323 80.244818 74.435415 79.434701 73.625299 
C 78.624585 72.815182 77.525677 72.36 76.38 72.36 
C 75.234323 72.36 74.135415 72.815182 73.325299 73.625299 
C 72.515182 74.435415 72.06 75.534323 72.06 76.68 
C 72.06 77.825677 72.515182 78.924585 73.325299 79.734701 
C 74.135415 80.544818 75.234323 81 76.38 81 
L 76.38 81 
z
" clip-path="url(#p520b6820e4)" style="fill: none; stroke: #000000; stroke-width: 2; stroke-linejoin: miter"/>
   </g>
   <g id="line2d_1">
    <path d="M 100.86 67.32 
L 120.402857 67.253878 
L 122.46 66.96 
L 124.517143 66.43102 
L 126.574286 65.666939 
L 128.631429 64.667755 
L 130.688571 63.433469 
L 132.745714 61.964082 
L 134.802857 60.259592 
L 137.374286 57.798367 
L 139.945714 54.969796 
L 142.517143 51.773878 
L 144.06 49.68 
L 144.06 49.68 
L 141.488571 46.263673 
L 138.917143 43.214694 
L 136.345714 40.533061 
L 133.774286 38.218776 
L 131.717143 36.631837 
L 129.66 35.28 
L 127.602857 34.163265 
L 125.545714 33.281633 
L 123.488571 32.635102 
L 121.431429 32.223673 
L 119.374286 32.047347 
L 118.86 32.04 
L 100.86 32.04 
L 100.86 32.04 
L 102.8472 34.2 
L 104.5752 36.36 
L 106.044 38.52 
L 107.2536 40.68 
L 108.204 42.84 
L 108.8952 45 
L 109.3272 47.16 
L 109.5 49.32 
L 109.4136 51.48 
L 109.068 53.64 
L 108.4632 55.8 
L 107.5992 57.96 
L 106.476 60.12 
L 105.0936 62.28 
L 103.452 64.44 
L 101.5512 66.6 
L 100.86 67.32 
L 100.86 67.32 
" clip-path="url(#p520b6820e4)" style="fill: none; stroke: #000000; stroke-width: 2; stroke-linecap: round"/>
   </g>
   <g id="line2d_2">
    <path d="M 95.46 67.32 
L 96.1512 66.6 
L 96.8136 65.88 
L 97.4472 65.16 
L 98.052 64.44 
L 98.628 63.72 
L 99.1752 63 
L 99.6936 62.28 
L 100.1832 61.56 
L 100.644 60.84 
L 101.076 60.12 
L 101.4792 59.4 
L 101.8536 58.68 
L 102.1992 57.96 
L 102.516 57.24 
L 102.804 56.52 
L 103.0632 55.8 
L 103.2936 55.08 
L 103.4952 54.36 
L 103.668 53.64 
L 103.812 52.92 
L 103.9272 52.2 
L 104.0136 51.48 
L 104.0712 50.76 
L 104.1 50.04 
L 104.1 49.32 
L 104.0712 48.6 
L 104.0136 47.88 
L 103.9272 47.16 
L 103.812 46.44 
L 103.668 45.72 
L 103.4952 45 
L 103.2936 44.28 
L 103.0632 43.56 
L 102.804 42.84 
L 102.516 42.12 
L 102.1992 41.4 
L 101.8536 40.68 
L 101.4792 39.96 
L 101.076 39.24 
L 100.644 38.52 
L 100.1832 37.8 
L 99.6936 37.08 
L 99.1752 36.36 
L 98.628 35.64 
L 98.052 34.92 
L 97.4472 34.2 
L 96.8136 33.48 
L 96.1512 32.76 
L 95.46 32.04 
" clip-path="url(#p520b6820e4)" style="fill: none; stroke: #000000; stroke-width: 2; stroke-linecap: round"/>
   </g>
   <g id="line2d_3">
    <path d="M 88.26 58.68 
L 101.8536 58.68 
" clip-path="url(#p520b6820e4)" style="fill: none; stroke: #000000; stroke-width: 2; stroke-linecap: round"/>
   </g>
   <g id="line2d_4">
    <path d="M 88.26 40.68 
L 101.8536 40.68 
" clip-path="url(#p520b6820e4)" style="fill: none; stroke: #000000; stroke-width: 2; stroke-linecap: round"/>
   </g>
   <g id="line2d_5">
    <path d="M 144.06 49.68 
L 156.66 49.68 
" clip-path="url(#p520b6820e4)" style="fill: none; stroke: #000000; stroke-width: 2; stroke-linecap: round"/>
   </g>
   <g id="line2d_6">
    <path d="M 54.06 40.68 
L 55.213264 40.643017 
L 56.361789 40.53222 
L 57.500855 40.348065 
L 58.625783 40.091308 
L 59.731948 39.763003 
L 60.814806 39.364502 
L 61.869907 38.89744 
L 62.892916 38.363737 
L 63.879628 37.765586 
L 64.82599 37.105445 
L 65.728111 36.386027 
L 66.582286 35.610288 
L 67.385004 34.781416 
L 68.132967 33.902816 
L 68.823101 32.9781 
L 69.45257 32.011066 
L 70.018788 31.005689 
L 70.519427 29.9661 
L 70.952432 28.896571 
L 71.316021 27.801497 
L 71.608702 26.685377 
L 71.829272 25.552798 
L 71.976824 24.408414 
L 72.050752 23.256928 
L 72.050752 22.103072 
L 71.976824 20.951586 
L 71.829272 19.807202 
L 71.608702 18.674623 
L 71.316021 17.558503 
L 70.952432 16.463429 
L 70.519427 15.3939 
L 70.018788 14.354311 
L 69.45257 13.348934 
L 68.823101 12.3819 
L 68.132967 11.457184 
L 67.385004 10.578584 
L 66.582286 9.749712 
L 65.728111 8.973973 
L 64.82599 8.254555 
L 63.879628 7.594414 
L 62.892916 6.996263 
L 61.869907 6.46256 
L 60.814806 5.995498 
L 59.731948 5.596997 
L 58.625783 5.268692 
L 57.500855 5.011935 
L 56.361789 4.82778 
L 55.213264 4.716983 
L 54.06 4.68 
L 54.06 4.68 
L 30.66 4.68 
L 30.66 22.68 
L 30.66 40.68 
L 54.06 40.68 
" clip-path="url(#p520b6820e4)" style="fill: none; stroke: #000000; stroke-width: 2; stroke-linecap: round"/>
   </g>
   <g id="line2d_7">
    <path d="M 18.06 31.68 
L 30.66 31.68 
" clip-path="url(#p520b6820e4)" style="fill: none; stroke: #000000; stroke-width: 2; stroke-linecap: round"/>
   </g>
   <g id="line2d_8">
    <path d="M 18.06 13.68 
L 30.66 13.68 
" clip-path="url(#p520b6820e4)" style="fill: none; stroke: #000000; stroke-width: 2; stroke-linecap: round"/>
   </g>
   <g id="line2d_9">
    <path d="M 72.06 22.68 
L 84.66 22.68 
" clip-path="url(#p520b6820e4)" style="fill: none; stroke: #000000; stroke-width: 2; stroke-linecap: round"/>
   </g>
   <g id="line2d_10">
    <path d="M 88.26 40.68 
L 84.66 40.68 
L 84.66 22.68 
" clip-path="url(#p520b6820e4)" style="fill: none; stroke: #000000; stroke-width: 2; stroke-linecap: round"/>
   </g>
   <g id="line2d_11">
    <path d="M 28.86 94.32 
L 48.402857 94.253878 
L 50.46 93.96 
L 52.517143 93.43102 
L 54.574286 92.666939 
L 56.631429 91.667755 
L 58.688571 90.433469 
L 60.745714 88.964082 
L 62.802857 87.259592 
L 65.374286 84.798367 
L 67.945714 81.969796 
L 70.517143 78.773878 
L 72.06 76.68 
L 72.06 76.68 
L 69.488571 73.263673 
L 66.917143 70.214694 
L 64.345714 67.533061 
L 61.774286 65.218776 
L 59.717143 63.631837 
L 57.66 62.28 
L 55.602857 61.163265 
L 53.545714 60.281633 
L 51.488571 59.635102 
L 49.431429 59.223673 
L 47.374286 59.047347 
L 46.86 59.04 
L 28.86 59.04 
L 28.86 59.04 
L 30.8472 61.2 
L 32.5752 63.36 
L 34.044 65.52 
L 35.2536 67.68 
L 36.204 69.84 
L 36.8952 72 
L 37.3272 74.16 
L 37.5 76.32 
L 37.4136 78.48 
L 37.068 80.64 
L 36.4632 82.8 
L 35.5992 84.96 
L 34.476 87.12 
L 33.0936 89.28 
L 31.452 91.44 
L 29.5512 93.6 
L 28.86 94.32 
L 28.86 94.32 
" clip-path="url(#p520b6820e4)" style="fill: none; stroke: #000000; stroke-width: 2; stroke-linecap: round"/>
   </g>
   <g id="line2d_12">
    <path d="M 23.46 94.32 
L 24.1512 93.6 
L 24.8136 92.88 
L 25.4472 92.16 
L 26.052 91.44 
L 26.628 90.72 
L 27.1752 90 
L 27.6936 89.28 
L 28.1832 88.56 
L 28.644 87.84 
L 29.076 87.12 
L 29.4792 86.4 
L 29.8536 85.68 
L 30.1992 84.96 
L 30.516 84.24 
L 30.804 83.52 
L 31.0632 82.8 
L 31.2936 82.08 
L 31.4952 81.36 
L 31.668 80.64 
L 31.812 79.92 
L 31.9272 79.2 
L 32.0136 78.48 
L 32.0712 77.76 
L 32.1 77.04 
L 32.1 76.32 
L 32.0712 75.6 
L 32.0136 74.88 
L 31.9272 74.16 
L 31.812 73.44 
L 31.668 72.72 
L 31.4952 72 
L 31.2936 71.28 
L 31.0632 70.56 
L 30.804 69.84 
L 30.516 69.12 
L 30.1992 68.4 
L 29.8536 67.68 
L 29.4792 66.96 
L 29.076 66.24 
L 28.644 65.52 
L 28.1832 64.8 
L 27.6936 64.08 
L 27.1752 63.36 
L 26.628 62.64 
L 26.052 61.92 
L 25.4472 61.2 
L 24.8136 60.48 
L 24.1512 59.76 
L 23.46 59.04 
" clip-path="url(#p520b6820e4)" style="fill: none; stroke: #000000; stroke-width: 2; stroke-linecap: round"/>
   </g>
   <g id="line2d_13">
    <path d="M 16.26 85.68 
L 29.8536 85.68 
" clip-path="url(#p520b6820e4)" style="fill: none; stroke: #000000; stroke-width: 2; stroke-linecap: round"/>
   </g>
   <g id="line2d_14">
    <path d="M 16.26 67.68 
L 29.8536 67.68 
" clip-path="url(#p520b6820e4)" style="fill: none; stroke: #000000; stroke-width: 2; stroke-linecap: round"/>
   </g>
   <g id="line2d_15">
    <path d="M 80.7 76.68 
L 84.66 76.68 
" clip-path="url(#p520b6820e4)" style="fill: none; stroke: #000000; stroke-width: 2; stroke-linecap: round"/>
   </g>
   <g id="line2d_16">
    <path d="M 88.26 58.68 
L 84.66 58.68 
L 84.66 76.68 
" clip-path="url(#p520b6820e4)" style="fill: none; stroke: #000000; stroke-width: 2; stroke-linecap: round"/>
   </g>
   <g id="text_1">
    <!-- $\text{Output}$ -->
    <g transform="translate(160.26 53.514687) scale(0.14 -0.14)">
     <defs>
      <path id="DejaVuSans-4f" d="M 2522 4238 
Q 1834 4238 1429 3725 
Q 1025 3213 1025 2328 
Q 1025 1447 1429 934 
Q 1834 422 2522 422 
Q 3209 422 3611 934 
Q 4013 1447 4013 2328 
Q 4013 3213 3611 3725 
Q 3209 4238 2522 4238 
z
M 2522 4750 
Q 3503 4750 4090 4092 
Q 4678 3434 4678 2328 
Q 4678 1225 4090 567 
Q 3503 -91 2522 -91 
Q 1538 -91 948 565 
Q 359 1222 359 2328 
Q 359 3434 948 4092 
Q 1538 4750 2522 4750 
z
" transform="scale(0.015625)"/>
      <path id="DejaVuSans-75" d="M 544 1381 
L 544 3500 
L 1119 3500 
L 1119 1403 
Q 1119 906 1312 657 
Q 1506 409 1894 409 
Q 2359 409 2629 706 
Q 2900 1003 2900 1516 
L 2900 3500 
L 3475 3500 
L 3475 0 
L 2900 0 
L 2900 538 
Q 2691 219 2414 64 
Q 2138 -91 1772 -91 
Q 1169 -91 856 284 
Q 544 659 544 1381 
z
M 1991 3584 
L 1991 3584 
z
" transform="scale(0.015625)"/>
      <path id="DejaVuSans-74" d="M 1172 4494 
L 1172 3500 
L 2356 3500 
L 2356 3053 
L 1172 3053 
L 1172 1153 
Q 1172 725 1289 603 
Q 1406 481 1766 481 
L 2356 481 
L 2356 0 
L 1766 0 
Q 1100 0 847 248 
Q 594 497 594 1153 
L 594 3053 
L 172 3053 
L 172 3500 
L 594 3500 
L 594 4494 
L 1172 4494 
z
" transform="scale(0.015625)"/>
      <path id="DejaVuSans-70" d="M 1159 525 
L 1159 -1331 
L 581 -1331 
L 581 3500 
L 1159 3500 
L 1159 2969 
Q 1341 3281 1617 3432 
Q 1894 3584 2278 3584 
Q 2916 3584 3314 3078 
Q 3713 2572 3713 1747 
Q 3713 922 3314 415 
Q 2916 -91 2278 -91 
Q 1894 -91 1617 61 
Q 1341 213 1159 525 
z
M 3116 1747 
Q 3116 2381 2855 2742 
Q 2594 3103 2138 3103 
Q 1681 3103 1420 2742 
Q 1159 2381 1159 1747 
Q 1159 1113 1420 752 
Q 1681 391 2138 391 
Q 2594 391 2855 752 
Q 3116 1113 3116 1747 
z
" transform="scale(0.015625)"/>
     </defs>
     <use xlink:href="#DejaVuSans-4f" transform="translate(0 0.78125)"/>
     <use xlink:href="#DejaVuSans-75" transform="translate(78.710938 0.78125)"/>
     <use xlink:href="#DejaVuSans-74" transform="translate(142.089844 0.78125)"/>
     <use xlink:href="#DejaVuSans-70" transform="translate(181.298828 0.78125)"/>
     <use xlink:href="#DejaVuSans-75" transform="translate(244.775391 0.78125)"/>
     <use xlink:href="#DejaVuSans-74" transform="translate(308.154297 0.78125)"/>
    </g>
   </g>
   <g id="text_2">
    <!-- b -->
    <g transform="translate(5.572187 17.543125) scale(0.14 -0.14)">
     <defs>
      <path id="DejaVuSans-62" d="M 3116 1747 
Q 3116 2381 2855 2742 
Q 2594 3103 2138 3103 
Q 1681 3103 1420 2742 
Q 1159 2381 1159 1747 
Q 1159 1113 1420 752 
Q 1681 391 2138 391 
Q 2594 391 2855 752 
Q 3116 1113 3116 1747 
z
M 1159 2969 
Q 1341 3281 1617 3432 
Q 1894 3584 2278 3584 
Q 2916 3584 3314 3078 
Q 3713 2572 3713 1747 
Q 3713 922 3314 415 
Q 2916 -91 2278 -91 
Q 1894 -91 1617 61 
Q 1341 213 1159 525 
L 1159 0 
L 581 0 
L 581 4863 
L 1159 4863 
L 1159 2969 
z
" transform="scale(0.015625)"/>
     </defs>
     <use xlink:href="#DejaVuSans-62"/>
    </g>
   </g>
   <g id="text_3">
    <!-- b -->
    <g transform="translate(5.572187 35.543125) scale(0.14 -0.14)">
     <use xlink:href="#DejaVuSans-62"/>
    </g>
   </g>
   <g id="text_4">
    <!-- a -->
    <g transform="translate(4.080625 71.543125) scale(0.14 -0.14)">
     <defs>
      <path id="DejaVuSans-61" d="M 2194 1759 
Q 1497 1759 1228 1600 
Q 959 1441 959 1056 
Q 959 750 1161 570 
Q 1363 391 1709 391 
Q 2188 391 2477 730 
Q 2766 1069 2766 1631 
L 2766 1759 
L 2194 1759 
z
M 3341 1997 
L 3341 0 
L 2766 0 
L 2766 531 
Q 2569 213 2275 61 
Q 1981 -91 1556 -91 
Q 1019 -91 701 211 
Q 384 513 384 1019 
Q 384 1609 779 1909 
Q 1175 2209 1959 2209 
L 2766 2209 
L 2766 2266 
Q 2766 2663 2505 2880 
Q 2244 3097 1772 3097 
Q 1472 3097 1187 3025 
Q 903 2953 641 2809 
L 641 3341 
Q 956 3463 1253 3523 
Q 1550 3584 1831 3584 
Q 2591 3584 2966 3190 
Q 3341 2797 3341 1997 
z
" transform="scale(0.015625)"/>
     </defs>
     <use xlink:href="#DejaVuSans-61"/>
    </g>
   </g>
   <g id="text_5">
    <!-- c -->
    <g transform="translate(4.962187 89.543125) scale(0.14 -0.14)">
     <defs>
      <path id="DejaVuSans-63" d="M 3122 3366 
L 3122 2828 
Q 2878 2963 2633 3030 
Q 2388 3097 2138 3097 
Q 1578 3097 1268 2742 
Q 959 2388 959 1747 
Q 959 1106 1268 751 
Q 1578 397 2138 397 
Q 2388 397 2633 464 
Q 2878 531 3122 666 
L 3122 134 
Q 2881 22 2623 -34 
Q 2366 -91 2075 -91 
Q 1284 -91 818 406 
Q 353 903 353 1747 
Q 353 2603 823 3093 
Q 1294 3584 2113 3584 
Q 2378 3584 2631 3529 
Q 2884 3475 3122 3366 
z
" transform="scale(0.015625)"/>
     </defs>
     <use xlink:href="#DejaVuSans-63"/>
    </g>
   </g>
  </g>
 </g>
 <defs>
  <clipPath id="p520b6820e4">
   <rect x="0" y="0" width="246.84" height="99"/>
  </clipPath>
 </defs>
</svg>
