<?xml version="1.0" encoding="utf-8" standalone="no"?>
<!DOCTYPE svg PUBLIC "-//W3C//DTD SVG 1.1//EN"
  "http://www.w3.org/Graphics/SVG/1.1/DTD/svg11.dtd">
<svg xmlns:xlink="http://www.w3.org/1999/xlink" width="317.04pt" height="139.5pt" viewBox="0 0 317.04 139.5" xmlns="http://www.w3.org/2000/svg" version="1.1">
 <metadata>
  <rdf:RDF xmlns:dc="http://purl.org/dc/elements/1.1/" xmlns:cc="http://creativecommons.org/ns#" xmlns:rdf="http://www.w3.org/1999/02/22-rdf-syntax-ns#">
   <cc:Work>
    <dc:type rdf:resource="http://purl.org/dc/dcmitype/StillImage"/>
    <dc:date>2024-09-01T12:28:29.537808</dc:date>
    <dc:format>image/svg+xml</dc:format>
    <dc:creator>
     <cc:Agent>
      <dc:title>Matplotlib v3.9.0, https://matplotlib.org/</dc:title>
     </cc:Agent>
    </dc:creator>
   </cc:Work>
  </rdf:RDF>
 </metadata>
 <defs>
  <style type="text/css">*{stroke-linejoin: round; stroke-linecap: butt}</style>
 </defs>
 <g id="figure_1">
  <g id="patch_1">
   <path d="M 0 139.5 
L 317.04 139.5 
L 317.04 0 
L 0 0 
L 0 139.5 
z
" style="fill: none"/>
  </g>
  <g id="axes_1">
   <g id="patch_2">
    <path d="M 146.58 26.64 
C 147.725677 26.64 148.824585 26.184818 149.634701 25.374701 
C 150.444818 24.564585 150.9 23.465677 150.9 22.32 
C 150.9 21.174323 150.444818 20.075415 149.634701 19.265299 
C 148.824585 18.455182 147.725677 18 146.58 18 
C 145.434323 18 144.335415 18.455182 143.525299 19.265299 
C 142.715182 20.075415 142.26 21.174323 142.26 22.32 
C 142.26 23.465677 142.715182 24.564585 143.525299 25.374701 
C 144.335415 26.184818 145.434323 26.64 146.58 26.64 
L 146.58 26.64 
z
" clip-path="url(#p01b1a3ca73)" style="fill: none; stroke: #000000; stroke-width: 2; stroke-linejoin: miter"/>
   </g>
   <g id="patch_3">
    <path d="M 146.58 94.14 
C 147.725677 94.14 148.824585 93.684818 149.634701 92.874701 
C 150.444818 92.064585 150.9 90.965677 150.9 89.82 
C 150.9 88.674323 150.444818 87.575415 149.634701 86.765299 
C 148.824585 85.955182 147.725677 85.5 146.58 85.5 
C 145.434323 85.5 144.335415 85.955182 143.525299 86.765299 
C 142.715182 87.575415 142.26 88.674323 142.26 89.82 
C 142.26 90.965677 142.715182 92.064585 143.525299 92.874701 
C 144.335415 93.684818 145.434323 94.14 146.58 94.14 
L 146.58 94.14 
z
" clip-path="url(#p01b1a3ca73)" style="fill: none; stroke: #000000; stroke-width: 2; stroke-linejoin: miter"/>
   </g>
   <g id="patch_4">
    <path d="M 74.58 121.14 
C 75.725677 121.14 76.824585 120.684818 77.634701 119.874701 
C 78.444818 119.064585 78.9 117.965677 78.9 116.82 
C 78.9 115.674323 78.444818 114.575415 77.634701 113.765299 
C 76.824585 112.955182 75.725677 112.5 74.58 112.5 
C 73.434323 112.5 72.335415 112.955182 71.525299 113.765299 
C 70.715182 114.575415 70.26 115.674323 70.26 116.82 
C 70.26 117.965677 70.715182 119.064585 71.525299 119.874701 
C 72.335415 120.684818 73.434323 121.14 74.58 121.14 
L 74.58 121.14 
z
" clip-path="url(#p01b1a3ca73)" style="fill: none; stroke: #000000; stroke-width: 2; stroke-linejoin: miter"/>
   </g>
   <g id="line2d_1">
    <path d="M 171.06 73.71 
L 190.602857 73.643878 
L 192.66 73.35 
L 194.717143 72.82102 
L 196.774286 72.056939 
L 198.831429 71.057755 
L 200.888571 69.823469 
L 202.945714 68.354082 
L 205.002857 66.649592 
L 207.574286 64.188367 
L 210.145714 61.359796 
L 212.717143 58.163878 
L 214.26 56.07 
L 214.26 56.07 
L 211.688571 52.653673 
L 209.117143 49.604694 
L 206.545714 46.923061 
L 203.974286 44.608776 
L 201.917143 43.021837 
L 199.86 41.67 
L 197.802857 40.553265 
L 195.745714 39.671633 
L 193.688571 39.025102 
L 191.631429 38.613673 
L 189.574286 38.437347 
L 189.06 38.43 
L 171.06 38.43 
L 171.06 38.43 
L 173.0472 40.59 
L 174.7752 42.75 
L 176.244 44.91 
L 177.4536 47.07 
L 178.404 49.23 
L 179.0952 51.39 
L 179.5272 53.55 
L 179.7 55.71 
L 179.6136 57.87 
L 179.268 60.03 
L 178.6632 62.19 
L 177.7992 64.35 
L 176.676 66.51 
L 175.2936 68.67 
L 173.652 70.83 
L 171.7512 72.99 
L 171.06 73.71 
L 171.06 73.71 
" clip-path="url(#p01b1a3ca73)" style="fill: none; stroke: #000000; stroke-width: 2; stroke-linecap: round"/>
   </g>
   <g id="line2d_2">
    <path d="M 158.46 65.07 
L 177.4536 65.07 
" clip-path="url(#p01b1a3ca73)" style="fill: none; stroke: #000000; stroke-width: 2; stroke-linecap: round"/>
   </g>
   <g id="line2d_3">
    <path d="M 158.46 47.07 
L 177.4536 47.07 
" clip-path="url(#p01b1a3ca73)" style="fill: none; stroke: #000000; stroke-width: 2; stroke-linecap: round"/>
   </g>
   <g id="line2d_4">
    <path d="M 214.26 56.07 
L 226.86 56.07 
" clip-path="url(#p01b1a3ca73)" style="fill: none; stroke: #000000; stroke-width: 2; stroke-linecap: round"/>
   </g>
   <g id="line2d_5">
    <path d="M 99.06 39.96 
L 118.602857 39.893878 
L 120.66 39.6 
L 122.717143 39.07102 
L 124.774286 38.306939 
L 126.831429 37.307755 
L 128.888571 36.073469 
L 130.945714 34.604082 
L 133.002857 32.899592 
L 135.574286 30.438367 
L 138.145714 27.609796 
L 140.717143 24.413878 
L 142.26 22.32 
L 142.26 22.32 
L 139.688571 18.903673 
L 137.117143 15.854694 
L 134.545714 13.173061 
L 131.974286 10.858776 
L 129.917143 9.271837 
L 127.86 7.92 
L 125.802857 6.803265 
L 123.745714 5.921633 
L 121.688571 5.275102 
L 119.631429 4.863673 
L 117.574286 4.687347 
L 117.06 4.68 
L 99.06 4.68 
L 99.06 4.68 
L 101.0472 6.84 
L 102.7752 9 
L 104.244 11.16 
L 105.4536 13.32 
L 106.404 15.48 
L 107.0952 17.64 
L 107.5272 19.8 
L 107.7 21.96 
L 107.6136 24.12 
L 107.268 26.28 
L 106.6632 28.44 
L 105.7992 30.6 
L 104.676 32.76 
L 103.2936 34.92 
L 101.652 37.08 
L 99.7512 39.24 
L 99.06 39.96 
L 99.06 39.96 
" clip-path="url(#p01b1a3ca73)" style="fill: none; stroke: #000000; stroke-width: 2; stroke-linecap: round"/>
   </g>
   <g id="line2d_6">
    <path d="M 93.66 39.96 
L 94.3512 39.24 
L 95.0136 38.52 
L 95.6472 37.8 
L 96.252 37.08 
L 96.828 36.36 
L 97.3752 35.64 
L 97.8936 34.92 
L 98.3832 34.2 
L 98.844 33.48 
L 99.276 32.76 
L 99.6792 32.04 
L 100.0536 31.32 
L 100.3992 30.6 
L 100.716 29.88 
L 101.004 29.16 
L 101.2632 28.44 
L 101.4936 27.72 
L 101.6952 27 
L 101.868 26.28 
L 102.012 25.56 
L 102.1272 24.84 
L 102.2136 24.12 
L 102.2712 23.4 
L 102.3 22.68 
L 102.3 21.96 
L 102.2712 21.24 
L 102.2136 20.52 
L 102.1272 19.8 
L 102.012 19.08 
L 101.868 18.36 
L 101.6952 17.64 
L 101.4936 16.92 
L 101.2632 16.2 
L 101.004 15.48 
L 100.716 14.76 
L 100.3992 14.04 
L 100.0536 13.32 
L 99.6792 12.6 
L 99.276 11.88 
L 98.844 11.16 
L 98.3832 10.44 
L 97.8936 9.72 
L 97.3752 9 
L 96.828 8.28 
L 96.252 7.56 
L 95.6472 6.84 
L 95.0136 6.12 
L 94.3512 5.4 
L 93.66 4.68 
" clip-path="url(#p01b1a3ca73)" style="fill: none; stroke: #000000; stroke-width: 2; stroke-linecap: round"/>
   </g>
   <g id="line2d_7">
    <path d="M 86.46 31.32 
L 100.0536 31.32 
" clip-path="url(#p01b1a3ca73)" style="fill: none; stroke: #000000; stroke-width: 2; stroke-linecap: round"/>
   </g>
   <g id="line2d_8">
    <path d="M 86.46 13.32 
L 100.0536 13.32 
" clip-path="url(#p01b1a3ca73)" style="fill: none; stroke: #000000; stroke-width: 2; stroke-linecap: round"/>
   </g>
   <g id="line2d_9">
    <path d="M 150.9 22.32 
L 154.86 22.32 
" clip-path="url(#p01b1a3ca73)" style="fill: none; stroke: #000000; stroke-width: 2; stroke-linecap: round"/>
   </g>
   <g id="line2d_10">
    <path d="M 158.46 47.07 
L 154.86 47.07 
L 154.86 22.32 
" clip-path="url(#p01b1a3ca73)" style="fill: none; stroke: #000000; stroke-width: 2; stroke-linecap: round"/>
   </g>
   <g id="line2d_11">
    <path d="M 124.26 107.82 
L 125.413264 107.783017 
L 126.561789 107.67222 
L 127.700855 107.488065 
L 128.825783 107.231308 
L 129.931948 106.903003 
L 131.014806 106.504502 
L 132.069907 106.03744 
L 133.092916 105.503737 
L 134.079628 104.905586 
L 135.02599 104.245445 
L 135.928111 103.526027 
L 136.782286 102.750288 
L 137.585004 101.921416 
L 138.332967 101.042816 
L 139.023101 100.1181 
L 139.65257 99.151066 
L 140.218788 98.145689 
L 140.719427 97.1061 
L 141.152432 96.036571 
L 141.516021 94.941497 
L 141.808702 93.825377 
L 142.029272 92.692798 
L 142.176824 91.548414 
L 142.250752 90.396928 
L 142.250752 89.243072 
L 142.176824 88.091586 
L 142.029272 86.947202 
L 141.808702 85.814623 
L 141.516021 84.698503 
L 141.152432 83.603429 
L 140.719427 82.5339 
L 140.218788 81.494311 
L 139.65257 80.488934 
L 139.023101 79.5219 
L 138.332967 78.597184 
L 137.585004 77.718584 
L 136.782286 76.889712 
L 135.928111 76.113973 
L 135.02599 75.394555 
L 134.079628 74.734414 
L 133.092916 74.136263 
L 132.069907 73.60256 
L 131.014806 73.135498 
L 129.931948 72.736997 
L 128.825783 72.408692 
L 127.700855 72.151935 
L 126.561789 71.96778 
L 125.413264 71.856983 
L 124.26 71.82 
L 124.26 71.82 
L 100.86 71.82 
L 100.86 89.82 
L 100.86 107.82 
L 124.26 107.82 
" clip-path="url(#p01b1a3ca73)" style="fill: none; stroke: #000000; stroke-width: 2; stroke-linecap: round"/>
   </g>
   <g id="line2d_12">
    <path d="M 88.26 98.82 
L 100.86 98.82 
" clip-path="url(#p01b1a3ca73)" style="fill: none; stroke: #000000; stroke-width: 2; stroke-linecap: round"/>
   </g>
   <g id="line2d_13">
    <path d="M 88.26 80.82 
L 100.86 80.82 
" clip-path="url(#p01b1a3ca73)" style="fill: none; stroke: #000000; stroke-width: 2; stroke-linecap: round"/>
   </g>
   <g id="line2d_14">
    <path d="M 150.9 89.82 
L 154.86 89.82 
" clip-path="url(#p01b1a3ca73)" style="fill: none; stroke: #000000; stroke-width: 2; stroke-linecap: round"/>
   </g>
   <g id="line2d_15">
    <path d="M 52.26 80.82 
L 53.413264 80.783017 
L 54.561789 80.67222 
L 55.700855 80.488065 
L 56.825783 80.231308 
L 57.931948 79.903003 
L 59.014806 79.504502 
L 60.069907 79.03744 
L 61.092916 78.503737 
L 62.079628 77.905586 
L 63.02599 77.245445 
L 63.928111 76.526027 
L 64.782286 75.750288 
L 65.585004 74.921416 
L 66.332967 74.042816 
L 67.023101 73.1181 
L 67.65257 72.151066 
L 68.218788 71.145689 
L 68.719427 70.1061 
L 69.152432 69.036571 
L 69.516021 67.941497 
L 69.808702 66.825377 
L 70.029272 65.692798 
L 70.176824 64.548414 
L 70.250752 63.396928 
L 70.250752 62.243072 
L 70.176824 61.091586 
L 70.029272 59.947202 
L 69.808702 58.814623 
L 69.516021 57.698503 
L 69.152432 56.603429 
L 68.719427 55.5339 
L 68.218788 54.494311 
L 67.65257 53.488934 
L 67.023101 52.5219 
L 66.332967 51.597184 
L 65.585004 50.718584 
L 64.782286 49.889712 
L 63.928111 49.113973 
L 63.02599 48.394555 
L 62.079628 47.734414 
L 61.092916 47.136263 
L 60.069907 46.60256 
L 59.014806 46.135498 
L 57.931948 45.736997 
L 56.825783 45.408692 
L 55.700855 45.151935 
L 54.561789 44.96778 
L 53.413264 44.856983 
L 52.26 44.82 
L 52.26 44.82 
L 28.86 44.82 
L 28.86 62.82 
L 28.86 80.82 
L 52.26 80.82 
" clip-path="url(#p01b1a3ca73)" style="fill: none; stroke: #000000; stroke-width: 2; stroke-linecap: round"/>
   </g>
   <g id="line2d_16">
    <path d="M 16.26 71.82 
L 28.86 71.82 
" clip-path="url(#p01b1a3ca73)" style="fill: none; stroke: #000000; stroke-width: 2; stroke-linecap: round"/>
   </g>
   <g id="line2d_17">
    <path d="M 16.26 53.82 
L 28.86 53.82 
" clip-path="url(#p01b1a3ca73)" style="fill: none; stroke: #000000; stroke-width: 2; stroke-linecap: round"/>
   </g>
   <g id="line2d_18">
    <path d="M 70.26 62.82 
L 82.86 62.82 
" clip-path="url(#p01b1a3ca73)" style="fill: none; stroke: #000000; stroke-width: 2; stroke-linecap: round"/>
   </g>
   <g id="line2d_19">
    <path d="M 88.26 80.82 
L 82.86 80.82 
L 82.86 62.82 
" clip-path="url(#p01b1a3ca73)" style="fill: none; stroke: #000000; stroke-width: 2; stroke-linecap: round"/>
   </g>
   <g id="line2d_20">
    <path d="M 52.26 134.82 
L 53.413264 134.783017 
L 54.561789 134.67222 
L 55.700855 134.488065 
L 56.825783 134.231308 
L 57.931948 133.903003 
L 59.014806 133.504502 
L 60.069907 133.03744 
L 61.092916 132.503737 
L 62.079628 131.905586 
L 63.02599 131.245445 
L 63.928111 130.526027 
L 64.782286 129.750288 
L 65.585004 128.921416 
L 66.332967 128.042816 
L 67.023101 127.1181 
L 67.65257 126.151066 
L 68.218788 125.145689 
L 68.719427 124.1061 
L 69.152432 123.036571 
L 69.516021 121.941497 
L 69.808702 120.825377 
L 70.029272 119.692798 
L 70.176824 118.548414 
L 70.250752 117.396928 
L 70.250752 116.243072 
L 70.176824 115.091586 
L 70.029272 113.947202 
L 69.808702 112.814623 
L 69.516021 111.698503 
L 69.152432 110.603429 
L 68.719427 109.5339 
L 68.218788 108.494311 
L 67.65257 107.488934 
L 67.023101 106.5219 
L 66.332967 105.597184 
L 65.585004 104.718584 
L 64.782286 103.889712 
L 63.928111 103.113973 
L 63.02599 102.394555 
L 62.079628 101.734414 
L 61.092916 101.136263 
L 60.069907 100.60256 
L 59.014806 100.135498 
L 57.931948 99.736997 
L 56.825783 99.408692 
L 55.700855 99.151935 
L 54.561789 98.96778 
L 53.413264 98.856983 
L 52.26 98.82 
L 52.26 98.82 
L 28.86 98.82 
L 28.86 116.82 
L 28.86 134.82 
L 52.26 134.82 
" clip-path="url(#p01b1a3ca73)" style="fill: none; stroke: #000000; stroke-width: 2; stroke-linecap: round"/>
   </g>
   <g id="line2d_21">
    <path d="M 16.26 125.82 
L 28.86 125.82 
" clip-path="url(#p01b1a3ca73)" style="fill: none; stroke: #000000; stroke-width: 2; stroke-linecap: round"/>
   </g>
   <g id="line2d_22">
    <path d="M 16.26 107.82 
L 28.86 107.82 
" clip-path="url(#p01b1a3ca73)" style="fill: none; stroke: #000000; stroke-width: 2; stroke-linecap: round"/>
   </g>
   <g id="line2d_23">
    <path d="M 78.9 116.82 
L 82.86 116.82 
" clip-path="url(#p01b1a3ca73)" style="fill: none; stroke: #000000; stroke-width: 2; stroke-linecap: round"/>
   </g>
   <g id="line2d_24">
    <path d="M 88.26 98.82 
L 82.86 98.82 
L 82.86 116.82 
" clip-path="url(#p01b1a3ca73)" style="fill: none; stroke: #000000; stroke-width: 2; stroke-linecap: round"/>
   </g>
   <g id="line2d_25">
    <path d="M 158.46 65.07 
L 154.86 65.07 
L 154.86 89.82 
" clip-path="url(#p01b1a3ca73)" style="fill: none; stroke: #000000; stroke-width: 2; stroke-linecap: round"/>
   </g>
   <g id="text_1">
    <!-- $\text{Output}$ -->
    <g transform="translate(230.46 59.904687) scale(0.14 -0.14)">
     <defs>
      <path id="DejaVuSans-4f" d="M 2522 4238 
Q 1834 4238 1429 3725 
Q 1025 3213 1025 2328 
Q 1025 1447 1429 934 
Q 1834 422 2522 422 
Q 3209 422 3611 934 
Q 4013 1447 4013 2328 
Q 4013 3213 3611 3725 
Q 3209 4238 2522 4238 
z
M 2522 4750 
Q 3503 4750 4090 4092 
Q 4678 3434 4678 2328 
Q 4678 1225 4090 567 
Q 3503 -91 2522 -91 
Q 1538 -91 948 565 
Q 359 1222 359 2328 
Q 359 3434 948 4092 
Q 1538 4750 2522 4750 
z
" transform="scale(0.015625)"/>
      <path id="DejaVuSans-75" d="M 544 1381 
L 544 3500 
L 1119 3500 
L 1119 1403 
Q 1119 906 1312 657 
Q 1506 409 1894 409 
Q 2359 409 2629 706 
Q 2900 1003 2900 1516 
L 2900 3500 
L 3475 3500 
L 3475 0 
L 2900 0 
L 2900 538 
Q 2691 219 2414 64 
Q 2138 -91 1772 -91 
Q 1169 -91 856 284 
Q 544 659 544 1381 
z
M 1991 3584 
L 1991 3584 
z
" transform="scale(0.015625)"/>
      <path id="DejaVuSans-74" d="M 1172 4494 
L 1172 3500 
L 2356 3500 
L 2356 3053 
L 1172 3053 
L 1172 1153 
Q 1172 725 1289 603 
Q 1406 481 1766 481 
L 2356 481 
L 2356 0 
L 1766 0 
Q 1100 0 847 248 
Q 594 497 594 1153 
L 594 3053 
L 172 3053 
L 172 3500 
L 594 3500 
L 594 4494 
L 1172 4494 
z
" transform="scale(0.015625)"/>
      <path id="DejaVuSans-70" d="M 1159 525 
L 1159 -1331 
L 581 -1331 
L 581 3500 
L 1159 3500 
L 1159 2969 
Q 1341 3281 1617 3432 
Q 1894 3584 2278 3584 
Q 2916 3584 3314 3078 
Q 3713 2572 3713 1747 
Q 3713 922 3314 415 
Q 2916 -91 2278 -91 
Q 1894 -91 1617 61 
Q 1341 213 1159 525 
z
M 3116 1747 
Q 3116 2381 2855 2742 
Q 2594 3103 2138 3103 
Q 1681 3103 1420 2742 
Q 1159 2381 1159 1747 
Q 1159 1113 1420 752 
Q 1681 391 2138 391 
Q 2594 391 2855 752 
Q 3116 1113 3116 1747 
z
" transform="scale(0.015625)"/>
     </defs>
     <use xlink:href="#DejaVuSans-4f" transform="translate(0 0.78125)"/>
     <use xlink:href="#DejaVuSans-75" transform="translate(78.710938 0.78125)"/>
     <use xlink:href="#DejaVuSans-74" transform="translate(142.089844 0.78125)"/>
     <use xlink:href="#DejaVuSans-70" transform="translate(181.298828 0.78125)"/>
     <use xlink:href="#DejaVuSans-75" transform="translate(244.775391 0.78125)"/>
     <use xlink:href="#DejaVuSans-74" transform="translate(308.154297 0.78125)"/>
    </g>
   </g>
   <g id="text_2">
    <!-- b -->
    <g transform="translate(73.972187 17.183125) scale(0.14 -0.14)">
     <defs>
      <path id="DejaVuSans-62" d="M 3116 1747 
Q 3116 2381 2855 2742 
Q 2594 3103 2138 3103 
Q 1681 3103 1420 2742 
Q 1159 2381 1159 1747 
Q 1159 1113 1420 752 
Q 1681 391 2138 391 
Q 2594 391 2855 752 
Q 3116 1113 3116 1747 
z
M 1159 2969 
Q 1341 3281 1617 3432 
Q 1894 3584 2278 3584 
Q 2916 3584 3314 3078 
Q 3713 2572 3713 1747 
Q 3713 922 3314 415 
Q 2916 -91 2278 -91 
Q 1894 -91 1617 61 
Q 1341 213 1159 525 
L 1159 0 
L 581 0 
L 581 4863 
L 1159 4863 
L 1159 2969 
z
" transform="scale(0.015625)"/>
     </defs>
     <use xlink:href="#DejaVuSans-62"/>
    </g>
   </g>
   <g id="text_3">
    <!-- b -->
    <g transform="translate(73.972187 35.183125) scale(0.14 -0.14)">
     <use xlink:href="#DejaVuSans-62"/>
    </g>
   </g>
   <g id="text_4">
    <!-- c -->
    <g transform="translate(4.962187 57.683125) scale(0.14 -0.14)">
     <defs>
      <path id="DejaVuSans-63" d="M 3122 3366 
L 3122 2828 
Q 2878 2963 2633 3030 
Q 2388 3097 2138 3097 
Q 1578 3097 1268 2742 
Q 959 2388 959 1747 
Q 959 1106 1268 751 
Q 1578 397 2138 397 
Q 2388 397 2633 464 
Q 2878 531 3122 666 
L 3122 134 
Q 2881 22 2623 -34 
Q 2366 -91 2075 -91 
Q 1284 -91 818 406 
Q 353 903 353 1747 
Q 353 2603 823 3093 
Q 1294 3584 2113 3584 
Q 2378 3584 2631 3529 
Q 2884 3475 3122 3366 
z
" transform="scale(0.015625)"/>
     </defs>
     <use xlink:href="#DejaVuSans-63"/>
    </g>
   </g>
   <g id="text_5">
    <!-- a -->
    <g transform="translate(4.080625 75.683125) scale(0.14 -0.14)">
     <defs>
      <path id="DejaVuSans-61" d="M 2194 1759 
Q 1497 1759 1228 1600 
Q 959 1441 959 1056 
Q 959 750 1161 570 
Q 1363 391 1709 391 
Q 2188 391 2477 730 
Q 2766 1069 2766 1631 
L 2766 1759 
L 2194 1759 
z
M 3341 1997 
L 3341 0 
L 2766 0 
L 2766 531 
Q 2569 213 2275 61 
Q 1981 -91 1556 -91 
Q 1019 -91 701 211 
Q 384 513 384 1019 
Q 384 1609 779 1909 
Q 1175 2209 1959 2209 
L 2766 2209 
L 2766 2266 
Q 2766 2663 2505 2880 
Q 2244 3097 1772 3097 
Q 1472 3097 1187 3025 
Q 903 2953 641 2809 
L 641 3341 
Q 956 3463 1253 3523 
Q 1550 3584 1831 3584 
Q 2591 3584 2966 3190 
Q 3341 2797 3341 1997 
z
" transform="scale(0.015625)"/>
     </defs>
     <use xlink:href="#DejaVuSans-61"/>
    </g>
   </g>
   <g id="text_6">
    <!-- b -->
    <g transform="translate(3.772187 111.683125) scale(0.14 -0.14)">
     <use xlink:href="#DejaVuSans-62"/>
    </g>
   </g>
   <g id="text_7">
    <!-- b -->
    <g transform="translate(3.772187 129.683125) scale(0.14 -0.14)">
     <use xlink:href="#DejaVuSans-62"/>
    </g>
   </g>
  </g>
 </g>
 <defs>
  <clipPath id="p01b1a3ca73">
   <rect x="0" y="0" width="317.04" height="139.5"/>
  </clipPath>
 </defs>
</svg>
