<?xml version="1.0" encoding="utf-8" standalone="no"?>
<!DOCTYPE svg PUBLIC "-//W3C//DTD SVG 1.1//EN"
  "http://www.w3.org/Graphics/SVG/1.1/DTD/svg11.dtd">
<svg xmlns:xlink="http://www.w3.org/1999/xlink" width="322.44pt" height="166.5pt" viewBox="0 0 322.44 166.5" xmlns="http://www.w3.org/2000/svg" version="1.1">
 <metadata>
  <rdf:RDF xmlns:dc="http://purl.org/dc/elements/1.1/" xmlns:cc="http://creativecommons.org/ns#" xmlns:rdf="http://www.w3.org/1999/02/22-rdf-syntax-ns#">
   <cc:Work>
    <dc:type rdf:resource="http://purl.org/dc/dcmitype/StillImage"/>
    <dc:date>2024-08-25T11:07:09.163117</dc:date>
    <dc:format>image/svg+xml</dc:format>
    <dc:creator>
     <cc:Agent>
      <dc:title>Matplotlib v3.9.0, https://matplotlib.org/</dc:title>
     </cc:Agent>
    </dc:creator>
   </cc:Work>
  </rdf:RDF>
 </metadata>
 <defs>
  <style type="text/css">*{stroke-linejoin: round; stroke-linecap: butt}</style>
 </defs>
 <g id="figure_1">
  <g id="patch_1">
   <path d="M 0 166.5 
L 322.44 166.5 
L 322.44 0 
L 0 0 
L 0 166.5 
z
" style="fill: none"/>
  </g>
  <g id="axes_1">
   <g id="patch_2">
    <path d="M 151.98 47.25 
C 153.125677 47.25 154.224585 46.794818 155.034701 45.984701 
C 155.844818 45.174585 156.3 44.075677 156.3 42.93 
C 156.3 41.784323 155.844818 40.685415 155.034701 39.875299 
C 154.224585 39.065182 153.125677 38.61 151.98 38.61 
C 150.834323 38.61 149.735415 39.065182 148.925299 39.875299 
C 148.115182 40.685415 147.66 41.784323 147.66 42.93 
C 147.66 44.075677 148.115182 45.174585 148.925299 45.984701 
C 149.735415 46.794818 150.834323 47.25 151.98 47.25 
L 151.98 47.25 
z
" clip-path="url(#p7c5ea5f709)" style="fill: none; stroke: #000000; stroke-width: 2; stroke-linejoin: miter"/>
   </g>
   <g id="patch_3">
    <path d="M 63.96 27 
C 65.105677 27 66.204585 26.544818 67.014701 25.734701 
C 67.824818 24.924585 68.28 23.825677 68.28 22.68 
C 68.28 21.534323 67.824818 20.435415 67.014701 19.625299 
C 66.204585 18.815182 65.105677 18.36 63.96 18.36 
C 62.814323 18.36 61.715415 18.815182 60.905299 19.625299 
C 60.095182 20.435415 59.64 21.534323 59.64 22.68 
C 59.64 23.825677 60.095182 24.924585 60.905299 25.734701 
C 61.715415 26.544818 62.814323 27 63.96 27 
L 63.96 27 
z
" clip-path="url(#p7c5ea5f709)" style="fill: none; stroke: #000000; stroke-width: 2; stroke-linejoin: miter"/>
   </g>
   <g id="patch_4">
    <path d="M 63.96 108 
C 65.105677 108 66.204585 107.544818 67.014701 106.734701 
C 67.824818 105.924585 68.28 104.825677 68.28 103.68 
C 68.28 102.534323 67.824818 101.435415 67.014701 100.625299 
C 66.204585 99.815182 65.105677 99.36 63.96 99.36 
C 62.814323 99.36 61.715415 99.815182 60.905299 100.625299 
C 60.095182 101.435415 59.64 102.534323 59.64 103.68 
C 59.64 104.825677 60.095182 105.924585 60.905299 106.734701 
C 61.715415 107.544818 62.814323 108 63.96 108 
L 63.96 108 
z
" clip-path="url(#p7c5ea5f709)" style="fill: none; stroke: #000000; stroke-width: 2; stroke-linejoin: miter"/>
   </g>
   <g id="line2d_1">
    <path d="M 201.66 101.43 
L 202.813264 101.393017 
L 203.961789 101.28222 
L 205.100855 101.098065 
L 206.225783 100.841308 
L 207.331948 100.513003 
L 208.414806 100.114502 
L 209.469907 99.64744 
L 210.492916 99.113737 
L 211.479628 98.515586 
L 212.42599 97.855445 
L 213.328111 97.136027 
L 214.182286 96.360288 
L 214.985004 95.531416 
L 215.732967 94.652816 
L 216.423101 93.7281 
L 217.05257 92.761066 
L 217.618788 91.755689 
L 218.119427 90.7161 
L 218.552432 89.646571 
L 218.916021 88.551497 
L 219.208702 87.435377 
L 219.429272 86.302798 
L 219.576824 85.158414 
L 219.650752 84.006928 
L 219.650752 82.853072 
L 219.576824 81.701586 
L 219.429272 80.557202 
L 219.208702 79.424623 
L 218.916021 78.308503 
L 218.552432 77.213429 
L 218.119427 76.1439 
L 217.618788 75.104311 
L 217.05257 74.098934 
L 216.423101 73.1319 
L 215.732967 72.207184 
L 214.985004 71.328584 
L 214.182286 70.499712 
L 213.328111 69.723973 
L 212.42599 69.004555 
L 211.479628 68.344414 
L 210.492916 67.746263 
L 209.469907 67.21256 
L 208.414806 66.745498 
L 207.331948 66.346997 
L 206.225783 66.018692 
L 205.100855 65.761935 
L 203.961789 65.57778 
L 202.813264 65.466983 
L 201.66 65.43 
L 201.66 65.43 
L 178.26 65.43 
L 178.26 83.43 
L 178.26 101.43 
L 201.66 101.43 
" clip-path="url(#p7c5ea5f709)" style="fill: none; stroke: #000000; stroke-width: 2; stroke-linecap: round"/>
   </g>
   <g id="line2d_2">
    <path d="M 165.66 92.43 
L 178.26 92.43 
" clip-path="url(#p7c5ea5f709)" style="fill: none; stroke: #000000; stroke-width: 2; stroke-linecap: round"/>
   </g>
   <g id="line2d_3">
    <path d="M 165.66 74.43 
L 178.26 74.43 
" clip-path="url(#p7c5ea5f709)" style="fill: none; stroke: #000000; stroke-width: 2; stroke-linecap: round"/>
   </g>
   <g id="line2d_4">
    <path d="M 219.66 83.43 
L 232.26 83.43 
" clip-path="url(#p7c5ea5f709)" style="fill: none; stroke: #000000; stroke-width: 2; stroke-linecap: round"/>
   </g>
   <g id="line2d_5">
    <path d="M 129.66 60.93 
L 130.813264 60.893017 
L 131.961789 60.78222 
L 133.100855 60.598065 
L 134.225783 60.341308 
L 135.331948 60.013003 
L 136.414806 59.614502 
L 137.469907 59.14744 
L 138.492916 58.613737 
L 139.479628 58.015586 
L 140.42599 57.355445 
L 141.328111 56.636027 
L 142.182286 55.860288 
L 142.985004 55.031416 
L 143.732967 54.152816 
L 144.423101 53.2281 
L 145.05257 52.261066 
L 145.618788 51.255689 
L 146.119427 50.2161 
L 146.552432 49.146571 
L 146.916021 48.051497 
L 147.208702 46.935377 
L 147.429272 45.802798 
L 147.576824 44.658414 
L 147.650752 43.506928 
L 147.650752 42.353072 
L 147.576824 41.201586 
L 147.429272 40.057202 
L 147.208702 38.924623 
L 146.916021 37.808503 
L 146.552432 36.713429 
L 146.119427 35.6439 
L 145.618788 34.604311 
L 145.05257 33.598934 
L 144.423101 32.6319 
L 143.732967 31.707184 
L 142.985004 30.828584 
L 142.182286 29.999712 
L 141.328111 29.223973 
L 140.42599 28.504555 
L 139.479628 27.844414 
L 138.492916 27.246263 
L 137.469907 26.71256 
L 136.414806 26.245498 
L 135.331948 25.846997 
L 134.225783 25.518692 
L 133.100855 25.261935 
L 131.961789 25.07778 
L 130.813264 24.966983 
L 129.66 24.93 
L 129.66 24.93 
L 106.26 24.93 
L 106.26 42.93 
L 106.26 60.93 
L 129.66 60.93 
" clip-path="url(#p7c5ea5f709)" style="fill: none; stroke: #000000; stroke-width: 2; stroke-linecap: round"/>
   </g>
   <g id="line2d_6">
    <path d="M 93.66 51.93 
L 106.26 51.93 
" clip-path="url(#p7c5ea5f709)" style="fill: none; stroke: #000000; stroke-width: 2; stroke-linecap: round"/>
   </g>
   <g id="line2d_7">
    <path d="M 93.66 33.93 
L 106.26 33.93 
" clip-path="url(#p7c5ea5f709)" style="fill: none; stroke: #000000; stroke-width: 2; stroke-linecap: round"/>
   </g>
   <g id="line2d_8">
    <path d="M 156.3 42.93 
L 160.26 42.93 
" clip-path="url(#p7c5ea5f709)" style="fill: none; stroke: #000000; stroke-width: 2; stroke-linecap: round"/>
   </g>
   <g id="line2d_9">
    <path d="M 16.26 22.68 
L 36.24 22.68 
M 68.28 22.68 
L 88.26 22.68 
" clip-path="url(#p7c5ea5f709)" style="fill: none; stroke: #000000; stroke-width: 2; stroke-linecap: round"/>
   </g>
   <g id="line2d_10">
    <path d="M 36.24 4.68 
L 59.64 22.68 
L 36.24 40.68 
L 36.24 4.68 
" clip-path="url(#p7c5ea5f709)" style="fill: none; stroke: #000000; stroke-width: 2; stroke-linecap: round"/>
   </g>
   <g id="line2d_11">
    <path d="M 93.66 33.93 
L 88.26 33.93 
L 88.26 22.68 
" clip-path="url(#p7c5ea5f709)" style="fill: none; stroke: #000000; stroke-width: 2; stroke-linecap: round"/>
   </g>
   <g id="line2d_12">
    <path d="M 32.46 80.82 
L 52.002857 80.753878 
L 54.06 80.46 
L 56.117143 79.93102 
L 58.174286 79.166939 
L 60.231429 78.167755 
L 62.288571 76.933469 
L 64.345714 75.464082 
L 66.402857 73.759592 
L 68.974286 71.298367 
L 71.545714 68.469796 
L 74.117143 65.273878 
L 75.66 63.18 
L 75.66 63.18 
L 73.088571 59.763673 
L 70.517143 56.714694 
L 67.945714 54.033061 
L 65.374286 51.718776 
L 63.317143 50.131837 
L 61.26 48.78 
L 59.202857 47.663265 
L 57.145714 46.781633 
L 55.088571 46.135102 
L 53.031429 45.723673 
L 50.974286 45.547347 
L 50.46 45.54 
L 32.46 45.54 
L 32.46 45.54 
L 34.4472 47.7 
L 36.1752 49.86 
L 37.644 52.02 
L 38.8536 54.18 
L 39.804 56.34 
L 40.4952 58.5 
L 40.9272 60.66 
L 41.1 62.82 
L 41.0136 64.98 
L 40.668 67.14 
L 40.0632 69.3 
L 39.1992 71.46 
L 38.076 73.62 
L 36.6936 75.78 
L 35.052 77.94 
L 33.1512 80.1 
L 32.46 80.82 
L 32.46 80.82 
" clip-path="url(#p7c5ea5f709)" style="fill: none; stroke: #000000; stroke-width: 2; stroke-linecap: round"/>
   </g>
   <g id="line2d_13">
    <path d="M 27.06 80.82 
L 27.7512 80.1 
L 28.4136 79.38 
L 29.0472 78.66 
L 29.652 77.94 
L 30.228 77.22 
L 30.7752 76.5 
L 31.2936 75.78 
L 31.7832 75.06 
L 32.244 74.34 
L 32.676 73.62 
L 33.0792 72.9 
L 33.4536 72.18 
L 33.7992 71.46 
L 34.116 70.74 
L 34.404 70.02 
L 34.6632 69.3 
L 34.8936 68.58 
L 35.0952 67.86 
L 35.268 67.14 
L 35.412 66.42 
L 35.5272 65.7 
L 35.6136 64.98 
L 35.6712 64.26 
L 35.7 63.54 
L 35.7 62.82 
L 35.6712 62.1 
L 35.6136 61.38 
L 35.5272 60.66 
L 35.412 59.94 
L 35.268 59.22 
L 35.0952 58.5 
L 34.8936 57.78 
L 34.6632 57.06 
L 34.404 56.34 
L 34.116 55.62 
L 33.7992 54.9 
L 33.4536 54.18 
L 33.0792 53.46 
L 32.676 52.74 
L 32.244 52.02 
L 31.7832 51.3 
L 31.2936 50.58 
L 30.7752 49.86 
L 30.228 49.14 
L 29.652 48.42 
L 29.0472 47.7 
L 28.4136 46.98 
L 27.7512 46.26 
L 27.06 45.54 
" clip-path="url(#p7c5ea5f709)" style="fill: none; stroke: #000000; stroke-width: 2; stroke-linecap: round"/>
   </g>
   <g id="line2d_14">
    <path d="M 19.86 72.18 
L 33.4536 72.18 
" clip-path="url(#p7c5ea5f709)" style="fill: none; stroke: #000000; stroke-width: 2; stroke-linecap: round"/>
   </g>
   <g id="line2d_15">
    <path d="M 19.86 54.18 
L 33.4536 54.18 
" clip-path="url(#p7c5ea5f709)" style="fill: none; stroke: #000000; stroke-width: 2; stroke-linecap: round"/>
   </g>
   <g id="line2d_16">
    <path d="M 75.66 63.18 
L 88.26 63.18 
" clip-path="url(#p7c5ea5f709)" style="fill: none; stroke: #000000; stroke-width: 2; stroke-linecap: round"/>
   </g>
   <g id="line2d_17">
    <path d="M 93.66 51.93 
L 88.26 51.93 
L 88.26 63.18 
" clip-path="url(#p7c5ea5f709)" style="fill: none; stroke: #000000; stroke-width: 2; stroke-linecap: round"/>
   </g>
   <g id="line2d_18">
    <path d="M 165.66 74.43 
L 160.26 74.43 
L 160.26 42.93 
" clip-path="url(#p7c5ea5f709)" style="fill: none; stroke: #000000; stroke-width: 2; stroke-linecap: round"/>
   </g>
   <g id="line2d_19">
    <path d="M 104.46 141.57 
L 124.002857 141.503878 
L 126.06 141.21 
L 128.117143 140.68102 
L 130.174286 139.916939 
L 132.231429 138.917755 
L 134.288571 137.683469 
L 136.345714 136.214082 
L 138.402857 134.509592 
L 140.974286 132.048367 
L 143.545714 129.219796 
L 146.117143 126.023878 
L 147.66 123.93 
L 147.66 123.93 
L 145.088571 120.513673 
L 142.517143 117.464694 
L 139.945714 114.783061 
L 137.374286 112.468776 
L 135.317143 110.881837 
L 133.26 109.53 
L 131.202857 108.413265 
L 129.145714 107.531633 
L 127.088571 106.885102 
L 125.031429 106.473673 
L 122.974286 106.297347 
L 122.46 106.29 
L 104.46 106.29 
L 104.46 106.29 
L 106.4472 108.45 
L 108.1752 110.61 
L 109.644 112.77 
L 110.8536 114.93 
L 111.804 117.09 
L 112.4952 119.25 
L 112.9272 121.41 
L 113.1 123.57 
L 113.0136 125.73 
L 112.668 127.89 
L 112.0632 130.05 
L 111.1992 132.21 
L 110.076 134.37 
L 108.6936 136.53 
L 107.052 138.69 
L 105.1512 140.85 
L 104.46 141.57 
L 104.46 141.57 
" clip-path="url(#p7c5ea5f709)" style="fill: none; stroke: #000000; stroke-width: 2; stroke-linecap: round"/>
   </g>
   <g id="line2d_20">
    <path d="M 99.06 141.57 
L 99.7512 140.85 
L 100.4136 140.13 
L 101.0472 139.41 
L 101.652 138.69 
L 102.228 137.97 
L 102.7752 137.25 
L 103.2936 136.53 
L 103.7832 135.81 
L 104.244 135.09 
L 104.676 134.37 
L 105.0792 133.65 
L 105.4536 132.93 
L 105.7992 132.21 
L 106.116 131.49 
L 106.404 130.77 
L 106.6632 130.05 
L 106.8936 129.33 
L 107.0952 128.61 
L 107.268 127.89 
L 107.412 127.17 
L 107.5272 126.45 
L 107.6136 125.73 
L 107.6712 125.01 
L 107.7 124.29 
L 107.7 123.57 
L 107.6712 122.85 
L 107.6136 122.13 
L 107.5272 121.41 
L 107.412 120.69 
L 107.268 119.97 
L 107.0952 119.25 
L 106.8936 118.53 
L 106.6632 117.81 
L 106.404 117.09 
L 106.116 116.37 
L 105.7992 115.65 
L 105.4536 114.93 
L 105.0792 114.21 
L 104.676 113.49 
L 104.244 112.77 
L 103.7832 112.05 
L 103.2936 111.33 
L 102.7752 110.61 
L 102.228 109.89 
L 101.652 109.17 
L 101.0472 108.45 
L 100.4136 107.73 
L 99.7512 107.01 
L 99.06 106.29 
" clip-path="url(#p7c5ea5f709)" style="fill: none; stroke: #000000; stroke-width: 2; stroke-linecap: round"/>
   </g>
   <g id="line2d_21">
    <path d="M 91.86 132.93 
L 105.4536 132.93 
" clip-path="url(#p7c5ea5f709)" style="fill: none; stroke: #000000; stroke-width: 2; stroke-linecap: round"/>
   </g>
   <g id="line2d_22">
    <path d="M 91.86 114.93 
L 105.4536 114.93 
" clip-path="url(#p7c5ea5f709)" style="fill: none; stroke: #000000; stroke-width: 2; stroke-linecap: round"/>
   </g>
   <g id="line2d_23">
    <path d="M 147.66 123.93 
L 160.26 123.93 
" clip-path="url(#p7c5ea5f709)" style="fill: none; stroke: #000000; stroke-width: 2; stroke-linecap: round"/>
   </g>
   <g id="line2d_24">
    <path d="M 16.26 103.68 
L 36.24 103.68 
M 68.28 103.68 
L 88.26 103.68 
" clip-path="url(#p7c5ea5f709)" style="fill: none; stroke: #000000; stroke-width: 2; stroke-linecap: round"/>
   </g>
   <g id="line2d_25">
    <path d="M 36.24 85.68 
L 59.64 103.68 
L 36.24 121.68 
L 36.24 85.68 
" clip-path="url(#p7c5ea5f709)" style="fill: none; stroke: #000000; stroke-width: 2; stroke-linecap: round"/>
   </g>
   <g id="line2d_26">
    <path d="M 91.86 114.93 
L 88.26 114.93 
L 88.26 103.68 
" clip-path="url(#p7c5ea5f709)" style="fill: none; stroke: #000000; stroke-width: 2; stroke-linecap: round"/>
   </g>
   <g id="line2d_27">
    <path d="M 32.46 161.82 
L 52.002857 161.753878 
L 54.06 161.46 
L 56.117143 160.93102 
L 58.174286 160.166939 
L 60.231429 159.167755 
L 62.288571 157.933469 
L 64.345714 156.464082 
L 66.402857 154.759592 
L 68.974286 152.298367 
L 71.545714 149.469796 
L 74.117143 146.273878 
L 75.66 144.18 
L 75.66 144.18 
L 73.088571 140.763673 
L 70.517143 137.714694 
L 67.945714 135.033061 
L 65.374286 132.718776 
L 63.317143 131.131837 
L 61.26 129.78 
L 59.202857 128.663265 
L 57.145714 127.781633 
L 55.088571 127.135102 
L 53.031429 126.723673 
L 50.974286 126.547347 
L 50.46 126.54 
L 32.46 126.54 
L 32.46 126.54 
L 34.4472 128.7 
L 36.1752 130.86 
L 37.644 133.02 
L 38.8536 135.18 
L 39.804 137.34 
L 40.4952 139.5 
L 40.9272 141.66 
L 41.1 143.82 
L 41.0136 145.98 
L 40.668 148.14 
L 40.0632 150.3 
L 39.1992 152.46 
L 38.076 154.62 
L 36.6936 156.78 
L 35.052 158.94 
L 33.1512 161.1 
L 32.46 161.82 
L 32.46 161.82 
" clip-path="url(#p7c5ea5f709)" style="fill: none; stroke: #000000; stroke-width: 2; stroke-linecap: round"/>
   </g>
   <g id="line2d_28">
    <path d="M 27.06 161.82 
L 27.7512 161.1 
L 28.4136 160.38 
L 29.0472 159.66 
L 29.652 158.94 
L 30.228 158.22 
L 30.7752 157.5 
L 31.2936 156.78 
L 31.7832 156.06 
L 32.244 155.34 
L 32.676 154.62 
L 33.0792 153.9 
L 33.4536 153.18 
L 33.7992 152.46 
L 34.116 151.74 
L 34.404 151.02 
L 34.6632 150.3 
L 34.8936 149.58 
L 35.0952 148.86 
L 35.268 148.14 
L 35.412 147.42 
L 35.5272 146.7 
L 35.6136 145.98 
L 35.6712 145.26 
L 35.7 144.54 
L 35.7 143.82 
L 35.6712 143.1 
L 35.6136 142.38 
L 35.5272 141.66 
L 35.412 140.94 
L 35.268 140.22 
L 35.0952 139.5 
L 34.8936 138.78 
L 34.6632 138.06 
L 34.404 137.34 
L 34.116 136.62 
L 33.7992 135.9 
L 33.4536 135.18 
L 33.0792 134.46 
L 32.676 133.74 
L 32.244 133.02 
L 31.7832 132.3 
L 31.2936 131.58 
L 30.7752 130.86 
L 30.228 130.14 
L 29.652 129.42 
L 29.0472 128.7 
L 28.4136 127.98 
L 27.7512 127.26 
L 27.06 126.54 
" clip-path="url(#p7c5ea5f709)" style="fill: none; stroke: #000000; stroke-width: 2; stroke-linecap: round"/>
   </g>
   <g id="line2d_29">
    <path d="M 19.86 153.18 
L 33.4536 153.18 
" clip-path="url(#p7c5ea5f709)" style="fill: none; stroke: #000000; stroke-width: 2; stroke-linecap: round"/>
   </g>
   <g id="line2d_30">
    <path d="M 19.86 135.18 
L 33.4536 135.18 
" clip-path="url(#p7c5ea5f709)" style="fill: none; stroke: #000000; stroke-width: 2; stroke-linecap: round"/>
   </g>
   <g id="line2d_31">
    <path d="M 75.66 144.18 
L 88.26 144.18 
" clip-path="url(#p7c5ea5f709)" style="fill: none; stroke: #000000; stroke-width: 2; stroke-linecap: round"/>
   </g>
   <g id="line2d_32">
    <path d="M 91.86 132.93 
L 88.26 132.93 
L 88.26 144.18 
" clip-path="url(#p7c5ea5f709)" style="fill: none; stroke: #000000; stroke-width: 2; stroke-linecap: round"/>
   </g>
   <g id="line2d_33">
    <path d="M 165.66 92.43 
L 160.26 92.43 
L 160.26 123.93 
" clip-path="url(#p7c5ea5f709)" style="fill: none; stroke: #000000; stroke-width: 2; stroke-linecap: round"/>
   </g>
   <g id="text_1">
    <!-- $\text{Output}$ -->
    <g transform="translate(235.86 87.264687) scale(0.14 -0.14)">
     <defs>
      <path id="DejaVuSans-4f" d="M 2522 4238 
Q 1834 4238 1429 3725 
Q 1025 3213 1025 2328 
Q 1025 1447 1429 934 
Q 1834 422 2522 422 
Q 3209 422 3611 934 
Q 4013 1447 4013 2328 
Q 4013 3213 3611 3725 
Q 3209 4238 2522 4238 
z
M 2522 4750 
Q 3503 4750 4090 4092 
Q 4678 3434 4678 2328 
Q 4678 1225 4090 567 
Q 3503 -91 2522 -91 
Q 1538 -91 948 565 
Q 359 1222 359 2328 
Q 359 3434 948 4092 
Q 1538 4750 2522 4750 
z
" transform="scale(0.015625)"/>
      <path id="DejaVuSans-75" d="M 544 1381 
L 544 3500 
L 1119 3500 
L 1119 1403 
Q 1119 906 1312 657 
Q 1506 409 1894 409 
Q 2359 409 2629 706 
Q 2900 1003 2900 1516 
L 2900 3500 
L 3475 3500 
L 3475 0 
L 2900 0 
L 2900 538 
Q 2691 219 2414 64 
Q 2138 -91 1772 -91 
Q 1169 -91 856 284 
Q 544 659 544 1381 
z
M 1991 3584 
L 1991 3584 
z
" transform="scale(0.015625)"/>
      <path id="DejaVuSans-74" d="M 1172 4494 
L 1172 3500 
L 2356 3500 
L 2356 3053 
L 1172 3053 
L 1172 1153 
Q 1172 725 1289 603 
Q 1406 481 1766 481 
L 2356 481 
L 2356 0 
L 1766 0 
Q 1100 0 847 248 
Q 594 497 594 1153 
L 594 3053 
L 172 3053 
L 172 3500 
L 594 3500 
L 594 4494 
L 1172 4494 
z
" transform="scale(0.015625)"/>
      <path id="DejaVuSans-70" d="M 1159 525 
L 1159 -1331 
L 581 -1331 
L 581 3500 
L 1159 3500 
L 1159 2969 
Q 1341 3281 1617 3432 
Q 1894 3584 2278 3584 
Q 2916 3584 3314 3078 
Q 3713 2572 3713 1747 
Q 3713 922 3314 415 
Q 2916 -91 2278 -91 
Q 1894 -91 1617 61 
Q 1341 213 1159 525 
z
M 3116 1747 
Q 3116 2381 2855 2742 
Q 2594 3103 2138 3103 
Q 1681 3103 1420 2742 
Q 1159 2381 1159 1747 
Q 1159 1113 1420 752 
Q 1681 391 2138 391 
Q 2594 391 2855 752 
Q 3116 1113 3116 1747 
z
" transform="scale(0.015625)"/>
     </defs>
     <use xlink:href="#DejaVuSans-4f" transform="translate(0 0.78125)"/>
     <use xlink:href="#DejaVuSans-75" transform="translate(78.710938 0.78125)"/>
     <use xlink:href="#DejaVuSans-74" transform="translate(142.089844 0.78125)"/>
     <use xlink:href="#DejaVuSans-70" transform="translate(181.298828 0.78125)"/>
     <use xlink:href="#DejaVuSans-75" transform="translate(244.775391 0.78125)"/>
     <use xlink:href="#DejaVuSans-74" transform="translate(308.154297 0.78125)"/>
    </g>
   </g>
   <g id="text_2">
    <!-- b -->
    <g transform="translate(3.772187 26.543125) scale(0.14 -0.14)">
     <defs>
      <path id="DejaVuSans-62" d="M 3116 1747 
Q 3116 2381 2855 2742 
Q 2594 3103 2138 3103 
Q 1681 3103 1420 2742 
Q 1159 2381 1159 1747 
Q 1159 1113 1420 752 
Q 1681 391 2138 391 
Q 2594 391 2855 752 
Q 3116 1113 3116 1747 
z
M 1159 2969 
Q 1341 3281 1617 3432 
Q 1894 3584 2278 3584 
Q 2916 3584 3314 3078 
Q 3713 2572 3713 1747 
Q 3713 922 3314 415 
Q 2916 -91 2278 -91 
Q 1894 -91 1617 61 
Q 1341 213 1159 525 
L 1159 0 
L 581 0 
L 581 4863 
L 1159 4863 
L 1159 2969 
z
" transform="scale(0.015625)"/>
     </defs>
     <use xlink:href="#DejaVuSans-62"/>
    </g>
   </g>
   <g id="text_3">
    <!-- a -->
    <g transform="translate(7.680625 58.043125) scale(0.14 -0.14)">
     <defs>
      <path id="DejaVuSans-61" d="M 2194 1759 
Q 1497 1759 1228 1600 
Q 959 1441 959 1056 
Q 959 750 1161 570 
Q 1363 391 1709 391 
Q 2188 391 2477 730 
Q 2766 1069 2766 1631 
L 2766 1759 
L 2194 1759 
z
M 3341 1997 
L 3341 0 
L 2766 0 
L 2766 531 
Q 2569 213 2275 61 
Q 1981 -91 1556 -91 
Q 1019 -91 701 211 
Q 384 513 384 1019 
Q 384 1609 779 1909 
Q 1175 2209 1959 2209 
L 2766 2209 
L 2766 2266 
Q 2766 2663 2505 2880 
Q 2244 3097 1772 3097 
Q 1472 3097 1187 3025 
Q 903 2953 641 2809 
L 641 3341 
Q 956 3463 1253 3523 
Q 1550 3584 1831 3584 
Q 2591 3584 2966 3190 
Q 3341 2797 3341 1997 
z
" transform="scale(0.015625)"/>
     </defs>
     <use xlink:href="#DejaVuSans-61"/>
    </g>
   </g>
   <g id="text_4">
    <!-- b -->
    <g transform="translate(7.372187 76.043125) scale(0.14 -0.14)">
     <use xlink:href="#DejaVuSans-62"/>
    </g>
   </g>
   <g id="text_5">
    <!-- c -->
    <g transform="translate(4.962187 107.543125) scale(0.14 -0.14)">
     <defs>
      <path id="DejaVuSans-63" d="M 3122 3366 
L 3122 2828 
Q 2878 2963 2633 3030 
Q 2388 3097 2138 3097 
Q 1578 3097 1268 2742 
Q 959 2388 959 1747 
Q 959 1106 1268 751 
Q 1578 397 2138 397 
Q 2388 397 2633 464 
Q 2878 531 3122 666 
L 3122 134 
Q 2881 22 2623 -34 
Q 2366 -91 2075 -91 
Q 1284 -91 818 406 
Q 353 903 353 1747 
Q 353 2603 823 3093 
Q 1294 3584 2113 3584 
Q 2378 3584 2631 3529 
Q 2884 3475 3122 3366 
z
" transform="scale(0.015625)"/>
     </defs>
     <use xlink:href="#DejaVuSans-63"/>
    </g>
   </g>
   <g id="text_6">
    <!-- c -->
    <g transform="translate(8.562187 139.043125) scale(0.14 -0.14)">
     <use xlink:href="#DejaVuSans-63"/>
    </g>
   </g>
   <g id="text_7">
    <!-- b -->
    <g transform="translate(7.372187 157.043125) scale(0.14 -0.14)">
     <use xlink:href="#DejaVuSans-62"/>
    </g>
   </g>
  </g>
 </g>
 <defs>
  <clipPath id="p7c5ea5f709">
   <rect x="0" y="0" width="322.44" height="166.5"/>
  </clipPath>
 </defs>
</svg>
