<?xml version="1.0" encoding="utf-8" standalone="no"?>
<!DOCTYPE svg PUBLIC "-//W3C//DTD SVG 1.1//EN"
  "http://www.w3.org/Graphics/SVG/1.1/DTD/svg11.dtd">
<svg xmlns:xlink="http://www.w3.org/1999/xlink" width="322.44pt" height="180.36pt" viewBox="0 0 322.44 180.36" xmlns="http://www.w3.org/2000/svg" version="1.1">
 <metadata>
  <rdf:RDF xmlns:dc="http://purl.org/dc/elements/1.1/" xmlns:cc="http://creativecommons.org/ns#" xmlns:rdf="http://www.w3.org/1999/02/22-rdf-syntax-ns#">
   <cc:Work>
    <dc:type rdf:resource="http://purl.org/dc/dcmitype/StillImage"/>
    <dc:date>2024-08-25T11:07:06.736350</dc:date>
    <dc:format>image/svg+xml</dc:format>
    <dc:creator>
     <cc:Agent>
      <dc:title>Matplotlib v3.9.0, https://matplotlib.org/</dc:title>
     </cc:Agent>
    </dc:creator>
   </cc:Work>
  </rdf:RDF>
 </metadata>
 <defs>
  <style type="text/css">*{stroke-linejoin: round; stroke-linecap: butt}</style>
 </defs>
 <g id="figure_1">
  <g id="patch_1">
   <path d="M 0 180.36 
L 322.44 180.36 
L 322.44 0 
L 0 0 
L 0 180.36 
z
" style="fill: none"/>
  </g>
  <g id="axes_1">
   <g id="patch_2">
    <path d="M 223.98 94.5 
C 225.125677 94.5 226.224585 94.044818 227.034701 93.234701 
C 227.844818 92.424585 228.3 91.325677 228.3 90.18 
C 228.3 89.034323 227.844818 87.935415 227.034701 87.125299 
C 226.224585 86.315182 225.125677 85.86 223.98 85.86 
C 222.834323 85.86 221.735415 86.315182 220.925299 87.125299 
C 220.115182 87.935415 219.66 89.034323 219.66 90.18 
C 219.66 91.325677 220.115182 92.424585 220.925299 93.234701 
C 221.735415 94.044818 222.834323 94.5 223.98 94.5 
L 223.98 94.5 
z
" clip-path="url(#p49bd8ac315)" style="fill: none; stroke: #000000; stroke-width: 2; stroke-linejoin: miter"/>
   </g>
   <g id="patch_3">
    <path d="M 151.98 47.25 
C 153.125677 47.25 154.224585 46.794818 155.034701 45.984701 
C 155.844818 45.174585 156.3 44.075677 156.3 42.93 
C 156.3 41.784323 155.844818 40.685415 155.034701 39.875299 
C 154.224585 39.065182 153.125677 38.61 151.98 38.61 
C 150.834323 38.61 149.735415 39.065182 148.925299 39.875299 
C 148.115182 40.685415 147.66 41.784323 147.66 42.93 
C 147.66 44.075677 148.115182 45.174585 148.925299 45.984701 
C 149.735415 46.794818 150.834323 47.25 151.98 47.25 
L 151.98 47.25 
z
" clip-path="url(#p49bd8ac315)" style="fill: none; stroke: #000000; stroke-width: 2; stroke-linejoin: miter"/>
   </g>
   <g id="patch_4">
    <path d="M 63.96 27 
C 65.105677 27 66.204585 26.544818 67.014701 25.734701 
C 67.824818 24.924585 68.28 23.825677 68.28 22.68 
C 68.28 21.534323 67.824818 20.435415 67.014701 19.625299 
C 66.204585 18.815182 65.105677 18.36 63.96 18.36 
C 62.814323 18.36 61.715415 18.815182 60.905299 19.625299 
C 60.095182 20.435415 59.64 21.534323 59.64 22.68 
C 59.64 23.825677 60.095182 24.924585 60.905299 25.734701 
C 61.715415 26.544818 62.814323 27 63.96 27 
L 63.96 27 
z
" clip-path="url(#p49bd8ac315)" style="fill: none; stroke: #000000; stroke-width: 2; stroke-linejoin: miter"/>
   </g>
   <g id="patch_5">
    <path d="M 63.96 162 
C 65.105677 162 66.204585 161.544818 67.014701 160.734701 
C 67.824818 159.924585 68.28 158.825677 68.28 157.68 
C 68.28 156.534323 67.824818 155.435415 67.014701 154.625299 
C 66.204585 153.815182 65.105677 153.36 63.96 153.36 
C 62.814323 153.36 61.715415 153.815182 60.905299 154.625299 
C 60.095182 155.435415 59.64 156.534323 59.64 157.68 
C 59.64 158.825677 60.095182 159.924585 60.905299 160.734701 
C 61.715415 161.544818 62.814323 162 63.96 162 
L 63.96 162 
z
" clip-path="url(#p49bd8ac315)" style="fill: none; stroke: #000000; stroke-width: 2; stroke-linejoin: miter"/>
   </g>
   <g id="line2d_1">
    <path d="M 176.46 107.82 
L 196.002857 107.753878 
L 198.06 107.46 
L 200.117143 106.93102 
L 202.174286 106.166939 
L 204.231429 105.167755 
L 206.288571 103.933469 
L 208.345714 102.464082 
L 210.402857 100.759592 
L 212.974286 98.298367 
L 215.545714 95.469796 
L 218.117143 92.273878 
L 219.66 90.18 
L 219.66 90.18 
L 217.088571 86.763673 
L 214.517143 83.714694 
L 211.945714 81.033061 
L 209.374286 78.718776 
L 207.317143 77.131837 
L 205.26 75.78 
L 203.202857 74.663265 
L 201.145714 73.781633 
L 199.088571 73.135102 
L 197.031429 72.723673 
L 194.974286 72.547347 
L 194.46 72.54 
L 176.46 72.54 
L 176.46 72.54 
L 178.4472 74.7 
L 180.1752 76.86 
L 181.644 79.02 
L 182.8536 81.18 
L 183.804 83.34 
L 184.4952 85.5 
L 184.9272 87.66 
L 185.1 89.82 
L 185.0136 91.98 
L 184.668 94.14 
L 184.0632 96.3 
L 183.1992 98.46 
L 182.076 100.62 
L 180.6936 102.78 
L 179.052 104.94 
L 177.1512 107.1 
L 176.46 107.82 
L 176.46 107.82 
" clip-path="url(#p49bd8ac315)" style="fill: none; stroke: #000000; stroke-width: 2; stroke-linecap: round"/>
   </g>
   <g id="line2d_2">
    <path d="M 171.06 107.82 
L 171.7512 107.1 
L 172.4136 106.38 
L 173.0472 105.66 
L 173.652 104.94 
L 174.228 104.22 
L 174.7752 103.5 
L 175.2936 102.78 
L 175.7832 102.06 
L 176.244 101.34 
L 176.676 100.62 
L 177.0792 99.9 
L 177.4536 99.18 
L 177.7992 98.46 
L 178.116 97.74 
L 178.404 97.02 
L 178.6632 96.3 
L 178.8936 95.58 
L 179.0952 94.86 
L 179.268 94.14 
L 179.412 93.42 
L 179.5272 92.7 
L 179.6136 91.98 
L 179.6712 91.26 
L 179.7 90.54 
L 179.7 89.82 
L 179.6712 89.1 
L 179.6136 88.38 
L 179.5272 87.66 
L 179.412 86.94 
L 179.268 86.22 
L 179.0952 85.5 
L 178.8936 84.78 
L 178.6632 84.06 
L 178.404 83.34 
L 178.116 82.62 
L 177.7992 81.9 
L 177.4536 81.18 
L 177.0792 80.46 
L 176.676 79.74 
L 176.244 79.02 
L 175.7832 78.3 
L 175.2936 77.58 
L 174.7752 76.86 
L 174.228 76.14 
L 173.652 75.42 
L 173.0472 74.7 
L 172.4136 73.98 
L 171.7512 73.26 
L 171.06 72.54 
" clip-path="url(#p49bd8ac315)" style="fill: none; stroke: #000000; stroke-width: 2; stroke-linecap: round"/>
   </g>
   <g id="line2d_3">
    <path d="M 163.86 99.18 
L 177.4536 99.18 
" clip-path="url(#p49bd8ac315)" style="fill: none; stroke: #000000; stroke-width: 2; stroke-linecap: round"/>
   </g>
   <g id="line2d_4">
    <path d="M 163.86 81.18 
L 177.4536 81.18 
" clip-path="url(#p49bd8ac315)" style="fill: none; stroke: #000000; stroke-width: 2; stroke-linecap: round"/>
   </g>
   <g id="line2d_5">
    <path d="M 228.3 90.18 
L 232.26 90.18 
" clip-path="url(#p49bd8ac315)" style="fill: none; stroke: #000000; stroke-width: 2; stroke-linecap: round"/>
   </g>
   <g id="line2d_6">
    <path d="M 104.46 60.57 
L 124.002857 60.503878 
L 126.06 60.21 
L 128.117143 59.68102 
L 130.174286 58.916939 
L 132.231429 57.917755 
L 134.288571 56.683469 
L 136.345714 55.214082 
L 138.402857 53.509592 
L 140.974286 51.048367 
L 143.545714 48.219796 
L 146.117143 45.023878 
L 147.66 42.93 
L 147.66 42.93 
L 145.088571 39.513673 
L 142.517143 36.464694 
L 139.945714 33.783061 
L 137.374286 31.468776 
L 135.317143 29.881837 
L 133.26 28.53 
L 131.202857 27.413265 
L 129.145714 26.531633 
L 127.088571 25.885102 
L 125.031429 25.473673 
L 122.974286 25.297347 
L 122.46 25.29 
L 104.46 25.29 
L 104.46 25.29 
L 106.4472 27.45 
L 108.1752 29.61 
L 109.644 31.77 
L 110.8536 33.93 
L 111.804 36.09 
L 112.4952 38.25 
L 112.9272 40.41 
L 113.1 42.57 
L 113.0136 44.73 
L 112.668 46.89 
L 112.0632 49.05 
L 111.1992 51.21 
L 110.076 53.37 
L 108.6936 55.53 
L 107.052 57.69 
L 105.1512 59.85 
L 104.46 60.57 
L 104.46 60.57 
" clip-path="url(#p49bd8ac315)" style="fill: none; stroke: #000000; stroke-width: 2; stroke-linecap: round"/>
   </g>
   <g id="line2d_7">
    <path d="M 91.86 51.93 
L 110.8536 51.93 
" clip-path="url(#p49bd8ac315)" style="fill: none; stroke: #000000; stroke-width: 2; stroke-linecap: round"/>
   </g>
   <g id="line2d_8">
    <path d="M 91.86 33.93 
L 110.8536 33.93 
" clip-path="url(#p49bd8ac315)" style="fill: none; stroke: #000000; stroke-width: 2; stroke-linecap: round"/>
   </g>
   <g id="line2d_9">
    <path d="M 156.3 42.93 
L 160.26 42.93 
" clip-path="url(#p49bd8ac315)" style="fill: none; stroke: #000000; stroke-width: 2; stroke-linecap: round"/>
   </g>
   <g id="line2d_10">
    <path d="M 16.26 22.68 
L 36.24 22.68 
M 68.28 22.68 
L 88.26 22.68 
" clip-path="url(#p49bd8ac315)" style="fill: none; stroke: #000000; stroke-width: 2; stroke-linecap: round"/>
   </g>
   <g id="line2d_11">
    <path d="M 36.24 4.68 
L 59.64 22.68 
L 36.24 40.68 
L 36.24 4.68 
" clip-path="url(#p49bd8ac315)" style="fill: none; stroke: #000000; stroke-width: 2; stroke-linecap: round"/>
   </g>
   <g id="line2d_12">
    <path d="M 91.86 33.93 
L 88.26 33.93 
L 88.26 22.68 
" clip-path="url(#p49bd8ac315)" style="fill: none; stroke: #000000; stroke-width: 2; stroke-linecap: round"/>
   </g>
   <g id="line2d_13">
    <path d="M 57.66 81.18 
L 58.813264 81.143017 
L 59.961789 81.03222 
L 61.100855 80.848065 
L 62.225783 80.591308 
L 63.331948 80.263003 
L 64.414806 79.864502 
L 65.469907 79.39744 
L 66.492916 78.863737 
L 67.479628 78.265586 
L 68.42599 77.605445 
L 69.328111 76.886027 
L 70.182286 76.110288 
L 70.985004 75.281416 
L 71.732967 74.402816 
L 72.423101 73.4781 
L 73.05257 72.511066 
L 73.618788 71.505689 
L 74.119427 70.4661 
L 74.552432 69.396571 
L 74.916021 68.301497 
L 75.208702 67.185377 
L 75.429272 66.052798 
L 75.576824 64.908414 
L 75.650752 63.756928 
L 75.650752 62.603072 
L 75.576824 61.451586 
L 75.429272 60.307202 
L 75.208702 59.174623 
L 74.916021 58.058503 
L 74.552432 56.963429 
L 74.119427 55.8939 
L 73.618788 54.854311 
L 73.05257 53.848934 
L 72.423101 52.8819 
L 71.732967 51.957184 
L 70.985004 51.078584 
L 70.182286 50.249712 
L 69.328111 49.473973 
L 68.42599 48.754555 
L 67.479628 48.094414 
L 66.492916 47.496263 
L 65.469907 46.96256 
L 64.414806 46.495498 
L 63.331948 46.096997 
L 62.225783 45.768692 
L 61.100855 45.511935 
L 59.961789 45.32778 
L 58.813264 45.216983 
L 57.66 45.18 
L 57.66 45.18 
L 34.26 45.18 
L 34.26 63.18 
L 34.26 81.18 
L 57.66 81.18 
" clip-path="url(#p49bd8ac315)" style="fill: none; stroke: #000000; stroke-width: 2; stroke-linecap: round"/>
   </g>
   <g id="line2d_14">
    <path d="M 21.66 72.18 
L 34.26 72.18 
" clip-path="url(#p49bd8ac315)" style="fill: none; stroke: #000000; stroke-width: 2; stroke-linecap: round"/>
   </g>
   <g id="line2d_15">
    <path d="M 21.66 54.18 
L 34.26 54.18 
" clip-path="url(#p49bd8ac315)" style="fill: none; stroke: #000000; stroke-width: 2; stroke-linecap: round"/>
   </g>
   <g id="line2d_16">
    <path d="M 75.66 63.18 
L 88.26 63.18 
" clip-path="url(#p49bd8ac315)" style="fill: none; stroke: #000000; stroke-width: 2; stroke-linecap: round"/>
   </g>
   <g id="line2d_17">
    <path d="M 91.86 51.93 
L 88.26 51.93 
L 88.26 63.18 
" clip-path="url(#p49bd8ac315)" style="fill: none; stroke: #000000; stroke-width: 2; stroke-linecap: round"/>
   </g>
   <g id="line2d_18">
    <path d="M 163.86 81.18 
L 160.26 81.18 
L 160.26 42.93 
" clip-path="url(#p49bd8ac315)" style="fill: none; stroke: #000000; stroke-width: 2; stroke-linecap: round"/>
   </g>
   <g id="line2d_19">
    <path d="M 129.66 155.43 
L 130.813264 155.393017 
L 131.961789 155.28222 
L 133.100855 155.098065 
L 134.225783 154.841308 
L 135.331948 154.513003 
L 136.414806 154.114502 
L 137.469907 153.64744 
L 138.492916 153.113737 
L 139.479628 152.515586 
L 140.42599 151.855445 
L 141.328111 151.136027 
L 142.182286 150.360288 
L 142.985004 149.531416 
L 143.732967 148.652816 
L 144.423101 147.7281 
L 145.05257 146.761066 
L 145.618788 145.755689 
L 146.119427 144.7161 
L 146.552432 143.646571 
L 146.916021 142.551497 
L 147.208702 141.435377 
L 147.429272 140.302798 
L 147.576824 139.158414 
L 147.650752 138.006928 
L 147.650752 136.853072 
L 147.576824 135.701586 
L 147.429272 134.557202 
L 147.208702 133.424623 
L 146.916021 132.308503 
L 146.552432 131.213429 
L 146.119427 130.1439 
L 145.618788 129.104311 
L 145.05257 128.098934 
L 144.423101 127.1319 
L 143.732967 126.207184 
L 142.985004 125.328584 
L 142.182286 124.499712 
L 141.328111 123.723973 
L 140.42599 123.004555 
L 139.479628 122.344414 
L 138.492916 121.746263 
L 137.469907 121.21256 
L 136.414806 120.745498 
L 135.331948 120.346997 
L 134.225783 120.018692 
L 133.100855 119.761935 
L 131.961789 119.57778 
L 130.813264 119.466983 
L 129.66 119.43 
L 129.66 119.43 
L 106.26 119.43 
L 106.26 137.43 
L 106.26 155.43 
L 129.66 155.43 
" clip-path="url(#p49bd8ac315)" style="fill: none; stroke: #000000; stroke-width: 2; stroke-linecap: round"/>
   </g>
   <g id="line2d_20">
    <path d="M 93.66 146.43 
L 106.26 146.43 
" clip-path="url(#p49bd8ac315)" style="fill: none; stroke: #000000; stroke-width: 2; stroke-linecap: round"/>
   </g>
   <g id="line2d_21">
    <path d="M 93.66 128.43 
L 106.26 128.43 
" clip-path="url(#p49bd8ac315)" style="fill: none; stroke: #000000; stroke-width: 2; stroke-linecap: round"/>
   </g>
   <g id="line2d_22">
    <path d="M 147.66 137.43 
L 160.26 137.43 
" clip-path="url(#p49bd8ac315)" style="fill: none; stroke: #000000; stroke-width: 2; stroke-linecap: round"/>
   </g>
   <g id="line2d_23">
    <path d="M 32.46 134.82 
L 52.002857 134.753878 
L 54.06 134.46 
L 56.117143 133.93102 
L 58.174286 133.166939 
L 60.231429 132.167755 
L 62.288571 130.933469 
L 64.345714 129.464082 
L 66.402857 127.759592 
L 68.974286 125.298367 
L 71.545714 122.469796 
L 74.117143 119.273878 
L 75.66 117.18 
L 75.66 117.18 
L 73.088571 113.763673 
L 70.517143 110.714694 
L 67.945714 108.033061 
L 65.374286 105.718776 
L 63.317143 104.131837 
L 61.26 102.78 
L 59.202857 101.663265 
L 57.145714 100.781633 
L 55.088571 100.135102 
L 53.031429 99.723673 
L 50.974286 99.547347 
L 50.46 99.54 
L 32.46 99.54 
L 32.46 99.54 
L 34.4472 101.7 
L 36.1752 103.86 
L 37.644 106.02 
L 38.8536 108.18 
L 39.804 110.34 
L 40.4952 112.5 
L 40.9272 114.66 
L 41.1 116.82 
L 41.0136 118.98 
L 40.668 121.14 
L 40.0632 123.3 
L 39.1992 125.46 
L 38.076 127.62 
L 36.6936 129.78 
L 35.052 131.94 
L 33.1512 134.1 
L 32.46 134.82 
L 32.46 134.82 
" clip-path="url(#p49bd8ac315)" style="fill: none; stroke: #000000; stroke-width: 2; stroke-linecap: round"/>
   </g>
   <g id="line2d_24">
    <path d="M 19.86 126.18 
L 38.8536 126.18 
" clip-path="url(#p49bd8ac315)" style="fill: none; stroke: #000000; stroke-width: 2; stroke-linecap: round"/>
   </g>
   <g id="line2d_25">
    <path d="M 19.86 108.18 
L 38.8536 108.18 
" clip-path="url(#p49bd8ac315)" style="fill: none; stroke: #000000; stroke-width: 2; stroke-linecap: round"/>
   </g>
   <g id="line2d_26">
    <path d="M 75.66 117.18 
L 88.26 117.18 
" clip-path="url(#p49bd8ac315)" style="fill: none; stroke: #000000; stroke-width: 2; stroke-linecap: round"/>
   </g>
   <g id="line2d_27">
    <path d="M 93.66 128.43 
L 88.26 128.43 
L 88.26 117.18 
" clip-path="url(#p49bd8ac315)" style="fill: none; stroke: #000000; stroke-width: 2; stroke-linecap: round"/>
   </g>
   <g id="line2d_28">
    <path d="M 16.26 157.68 
L 36.24 157.68 
M 68.28 157.68 
L 88.26 157.68 
" clip-path="url(#p49bd8ac315)" style="fill: none; stroke: #000000; stroke-width: 2; stroke-linecap: round"/>
   </g>
   <g id="line2d_29">
    <path d="M 36.24 139.68 
L 59.64 157.68 
L 36.24 175.68 
L 36.24 139.68 
" clip-path="url(#p49bd8ac315)" style="fill: none; stroke: #000000; stroke-width: 2; stroke-linecap: round"/>
   </g>
   <g id="line2d_30">
    <path d="M 93.66 146.43 
L 88.26 146.43 
L 88.26 157.68 
" clip-path="url(#p49bd8ac315)" style="fill: none; stroke: #000000; stroke-width: 2; stroke-linecap: round"/>
   </g>
   <g id="line2d_31">
    <path d="M 163.86 99.18 
L 160.26 99.18 
L 160.26 137.43 
" clip-path="url(#p49bd8ac315)" style="fill: none; stroke: #000000; stroke-width: 2; stroke-linecap: round"/>
   </g>
   <g id="text_1">
    <!-- $\text{Output}$ -->
    <g transform="translate(235.86 94.014687) scale(0.14 -0.14)">
     <defs>
      <path id="DejaVuSans-4f" d="M 2522 4238 
Q 1834 4238 1429 3725 
Q 1025 3213 1025 2328 
Q 1025 1447 1429 934 
Q 1834 422 2522 422 
Q 3209 422 3611 934 
Q 4013 1447 4013 2328 
Q 4013 3213 3611 3725 
Q 3209 4238 2522 4238 
z
M 2522 4750 
Q 3503 4750 4090 4092 
Q 4678 3434 4678 2328 
Q 4678 1225 4090 567 
Q 3503 -91 2522 -91 
Q 1538 -91 948 565 
Q 359 1222 359 2328 
Q 359 3434 948 4092 
Q 1538 4750 2522 4750 
z
" transform="scale(0.015625)"/>
      <path id="DejaVuSans-75" d="M 544 1381 
L 544 3500 
L 1119 3500 
L 1119 1403 
Q 1119 906 1312 657 
Q 1506 409 1894 409 
Q 2359 409 2629 706 
Q 2900 1003 2900 1516 
L 2900 3500 
L 3475 3500 
L 3475 0 
L 2900 0 
L 2900 538 
Q 2691 219 2414 64 
Q 2138 -91 1772 -91 
Q 1169 -91 856 284 
Q 544 659 544 1381 
z
M 1991 3584 
L 1991 3584 
z
" transform="scale(0.015625)"/>
      <path id="DejaVuSans-74" d="M 1172 4494 
L 1172 3500 
L 2356 3500 
L 2356 3053 
L 1172 3053 
L 1172 1153 
Q 1172 725 1289 603 
Q 1406 481 1766 481 
L 2356 481 
L 2356 0 
L 1766 0 
Q 1100 0 847 248 
Q 594 497 594 1153 
L 594 3053 
L 172 3053 
L 172 3500 
L 594 3500 
L 594 4494 
L 1172 4494 
z
" transform="scale(0.015625)"/>
      <path id="DejaVuSans-70" d="M 1159 525 
L 1159 -1331 
L 581 -1331 
L 581 3500 
L 1159 3500 
L 1159 2969 
Q 1341 3281 1617 3432 
Q 1894 3584 2278 3584 
Q 2916 3584 3314 3078 
Q 3713 2572 3713 1747 
Q 3713 922 3314 415 
Q 2916 -91 2278 -91 
Q 1894 -91 1617 61 
Q 1341 213 1159 525 
z
M 3116 1747 
Q 3116 2381 2855 2742 
Q 2594 3103 2138 3103 
Q 1681 3103 1420 2742 
Q 1159 2381 1159 1747 
Q 1159 1113 1420 752 
Q 1681 391 2138 391 
Q 2594 391 2855 752 
Q 3116 1113 3116 1747 
z
" transform="scale(0.015625)"/>
     </defs>
     <use xlink:href="#DejaVuSans-4f" transform="translate(0 0.78125)"/>
     <use xlink:href="#DejaVuSans-75" transform="translate(78.710938 0.78125)"/>
     <use xlink:href="#DejaVuSans-74" transform="translate(142.089844 0.78125)"/>
     <use xlink:href="#DejaVuSans-70" transform="translate(181.298828 0.78125)"/>
     <use xlink:href="#DejaVuSans-75" transform="translate(244.775391 0.78125)"/>
     <use xlink:href="#DejaVuSans-74" transform="translate(308.154297 0.78125)"/>
    </g>
   </g>
   <g id="text_2">
    <!-- a -->
    <g transform="translate(4.080625 26.543125) scale(0.14 -0.14)">
     <defs>
      <path id="DejaVuSans-61" d="M 2194 1759 
Q 1497 1759 1228 1600 
Q 959 1441 959 1056 
Q 959 750 1161 570 
Q 1363 391 1709 391 
Q 2188 391 2477 730 
Q 2766 1069 2766 1631 
L 2766 1759 
L 2194 1759 
z
M 3341 1997 
L 3341 0 
L 2766 0 
L 2766 531 
Q 2569 213 2275 61 
Q 1981 -91 1556 -91 
Q 1019 -91 701 211 
Q 384 513 384 1019 
Q 384 1609 779 1909 
Q 1175 2209 1959 2209 
L 2766 2209 
L 2766 2266 
Q 2766 2663 2505 2880 
Q 2244 3097 1772 3097 
Q 1472 3097 1187 3025 
Q 903 2953 641 2809 
L 641 3341 
Q 956 3463 1253 3523 
Q 1550 3584 1831 3584 
Q 2591 3584 2966 3190 
Q 3341 2797 3341 1997 
z
" transform="scale(0.015625)"/>
     </defs>
     <use xlink:href="#DejaVuSans-61"/>
    </g>
   </g>
   <g id="text_3">
    <!-- b -->
    <g transform="translate(9.172187 58.043125) scale(0.14 -0.14)">
     <defs>
      <path id="DejaVuSans-62" d="M 3116 1747 
Q 3116 2381 2855 2742 
Q 2594 3103 2138 3103 
Q 1681 3103 1420 2742 
Q 1159 2381 1159 1747 
Q 1159 1113 1420 752 
Q 1681 391 2138 391 
Q 2594 391 2855 752 
Q 3116 1113 3116 1747 
z
M 1159 2969 
Q 1341 3281 1617 3432 
Q 1894 3584 2278 3584 
Q 2916 3584 3314 3078 
Q 3713 2572 3713 1747 
Q 3713 922 3314 415 
Q 2916 -91 2278 -91 
Q 1894 -91 1617 61 
Q 1341 213 1159 525 
L 1159 0 
L 581 0 
L 581 4863 
L 1159 4863 
L 1159 2969 
z
" transform="scale(0.015625)"/>
     </defs>
     <use xlink:href="#DejaVuSans-62"/>
    </g>
   </g>
   <g id="text_4">
    <!-- b -->
    <g transform="translate(9.172187 76.043125) scale(0.14 -0.14)">
     <use xlink:href="#DejaVuSans-62"/>
    </g>
   </g>
   <g id="text_5">
    <!-- c -->
    <g transform="translate(8.562187 112.043125) scale(0.14 -0.14)">
     <defs>
      <path id="DejaVuSans-63" d="M 3122 3366 
L 3122 2828 
Q 2878 2963 2633 3030 
Q 2388 3097 2138 3097 
Q 1578 3097 1268 2742 
Q 959 2388 959 1747 
Q 959 1106 1268 751 
Q 1578 397 2138 397 
Q 2388 397 2633 464 
Q 2878 531 3122 666 
L 3122 134 
Q 2881 22 2623 -34 
Q 2366 -91 2075 -91 
Q 1284 -91 818 406 
Q 353 903 353 1747 
Q 353 2603 823 3093 
Q 1294 3584 2113 3584 
Q 2378 3584 2631 3529 
Q 2884 3475 3122 3366 
z
" transform="scale(0.015625)"/>
     </defs>
     <use xlink:href="#DejaVuSans-63"/>
    </g>
   </g>
   <g id="text_6">
    <!-- c -->
    <g transform="translate(8.562187 130.043125) scale(0.14 -0.14)">
     <use xlink:href="#DejaVuSans-63"/>
    </g>
   </g>
   <g id="text_7">
    <!-- b -->
    <g transform="translate(3.772187 161.543125) scale(0.14 -0.14)">
     <use xlink:href="#DejaVuSans-62"/>
    </g>
   </g>
  </g>
 </g>
 <defs>
  <clipPath id="p49bd8ac315">
   <rect x="0" y="-0" width="322.44" height="180.36"/>
  </clipPath>
 </defs>
</svg>
