<?xml version="1.0" encoding="utf-8" standalone="no"?>
<!DOCTYPE svg PUBLIC "-//W3C//DTD SVG 1.1//EN"
  "http://www.w3.org/Graphics/SVG/1.1/DTD/svg11.dtd">
<svg xmlns:xlink="http://www.w3.org/1999/xlink" width="317.04pt" height="139.5pt" viewBox="0 0 317.04 139.5" xmlns="http://www.w3.org/2000/svg" version="1.1">
 <metadata>
  <rdf:RDF xmlns:dc="http://purl.org/dc/elements/1.1/" xmlns:cc="http://creativecommons.org/ns#" xmlns:rdf="http://www.w3.org/1999/02/22-rdf-syntax-ns#">
   <cc:Work>
    <dc:type rdf:resource="http://purl.org/dc/dcmitype/StillImage"/>
    <dc:date>2024-08-14T09:22:30.631391</dc:date>
    <dc:format>image/svg+xml</dc:format>
    <dc:creator>
     <cc:Agent>
      <dc:title>Matplotlib v3.9.0, https://matplotlib.org/</dc:title>
     </cc:Agent>
    </dc:creator>
   </cc:Work>
  </rdf:RDF>
 </metadata>
 <defs>
  <style type="text/css">*{stroke-linejoin: round; stroke-linecap: butt}</style>
 </defs>
 <g id="figure_1">
  <g id="patch_1">
   <path d="M 0 139.5 
L 317.04 139.5 
L 317.04 0 
L 0 0 
L 0 139.5 
z
" style="fill: none"/>
  </g>
  <g id="axes_1">
   <g id="patch_2">
    <path d="M 74.58 81 
C 75.725677 81 76.824585 80.544818 77.634701 79.734701 
C 78.444818 78.924585 78.9 77.825677 78.9 76.68 
C 78.9 75.534323 78.444818 74.435415 77.634701 73.625299 
C 76.824585 72.815182 75.725677 72.36 74.58 72.36 
C 73.434323 72.36 72.335415 72.815182 71.525299 73.625299 
C 70.715182 74.435415 70.26 75.534323 70.26 76.68 
C 70.26 77.825677 70.715182 78.924585 71.525299 79.734701 
C 72.335415 80.544818 73.434323 81 74.58 81 
L 74.58 81 
z
" clip-path="url(#p5038b5b83d)" style="fill: none; stroke: #000000; stroke-width: 2; stroke-linejoin: miter"/>
   </g>
   <g id="line2d_1">
    <path d="M 171.06 101.07 
L 190.602857 101.003878 
L 192.66 100.71 
L 194.717143 100.18102 
L 196.774286 99.416939 
L 198.831429 98.417755 
L 200.888571 97.183469 
L 202.945714 95.714082 
L 205.002857 94.009592 
L 207.574286 91.548367 
L 210.145714 88.719796 
L 212.717143 85.523878 
L 214.26 83.43 
L 214.26 83.43 
L 211.688571 80.013673 
L 209.117143 76.964694 
L 206.545714 74.283061 
L 203.974286 71.968776 
L 201.917143 70.381837 
L 199.86 69.03 
L 197.802857 67.913265 
L 195.745714 67.031633 
L 193.688571 66.385102 
L 191.631429 65.973673 
L 189.574286 65.797347 
L 189.06 65.79 
L 171.06 65.79 
L 171.06 65.79 
L 173.0472 67.95 
L 174.7752 70.11 
L 176.244 72.27 
L 177.4536 74.43 
L 178.404 76.59 
L 179.0952 78.75 
L 179.5272 80.91 
L 179.7 83.07 
L 179.6136 85.23 
L 179.268 87.39 
L 178.6632 89.55 
L 177.7992 91.71 
L 176.676 93.87 
L 175.2936 96.03 
L 173.652 98.19 
L 171.7512 100.35 
L 171.06 101.07 
L 171.06 101.07 
" clip-path="url(#p5038b5b83d)" style="fill: none; stroke: #000000; stroke-width: 2; stroke-linecap: round"/>
   </g>
   <g id="line2d_2">
    <path d="M 165.66 101.07 
L 166.3512 100.35 
L 167.0136 99.63 
L 167.6472 98.91 
L 168.252 98.19 
L 168.828 97.47 
L 169.3752 96.75 
L 169.8936 96.03 
L 170.3832 95.31 
L 170.844 94.59 
L 171.276 93.87 
L 171.6792 93.15 
L 172.0536 92.43 
L 172.3992 91.71 
L 172.716 90.99 
L 173.004 90.27 
L 173.2632 89.55 
L 173.4936 88.83 
L 173.6952 88.11 
L 173.868 87.39 
L 174.012 86.67 
L 174.1272 85.95 
L 174.2136 85.23 
L 174.2712 84.51 
L 174.3 83.79 
L 174.3 83.07 
L 174.2712 82.35 
L 174.2136 81.63 
L 174.1272 80.91 
L 174.012 80.19 
L 173.868 79.47 
L 173.6952 78.75 
L 173.4936 78.03 
L 173.2632 77.31 
L 173.004 76.59 
L 172.716 75.87 
L 172.3992 75.15 
L 172.0536 74.43 
L 171.6792 73.71 
L 171.276 72.99 
L 170.844 72.27 
L 170.3832 71.55 
L 169.8936 70.83 
L 169.3752 70.11 
L 168.828 69.39 
L 168.252 68.67 
L 167.6472 67.95 
L 167.0136 67.23 
L 166.3512 66.51 
L 165.66 65.79 
" clip-path="url(#p5038b5b83d)" style="fill: none; stroke: #000000; stroke-width: 2; stroke-linecap: round"/>
   </g>
   <g id="line2d_3">
    <path d="M 158.46 92.43 
L 172.0536 92.43 
" clip-path="url(#p5038b5b83d)" style="fill: none; stroke: #000000; stroke-width: 2; stroke-linecap: round"/>
   </g>
   <g id="line2d_4">
    <path d="M 158.46 74.43 
L 172.0536 74.43 
" clip-path="url(#p5038b5b83d)" style="fill: none; stroke: #000000; stroke-width: 2; stroke-linecap: round"/>
   </g>
   <g id="line2d_5">
    <path d="M 214.26 83.43 
L 226.86 83.43 
" clip-path="url(#p5038b5b83d)" style="fill: none; stroke: #000000; stroke-width: 2; stroke-linecap: round"/>
   </g>
   <g id="line2d_6">
    <path d="M 99.06 67.32 
L 118.602857 67.253878 
L 120.66 66.96 
L 122.717143 66.43102 
L 124.774286 65.666939 
L 126.831429 64.667755 
L 128.888571 63.433469 
L 130.945714 61.964082 
L 133.002857 60.259592 
L 135.574286 57.798367 
L 138.145714 54.969796 
L 140.717143 51.773878 
L 142.26 49.68 
L 142.26 49.68 
L 139.688571 46.263673 
L 137.117143 43.214694 
L 134.545714 40.533061 
L 131.974286 38.218776 
L 129.917143 36.631837 
L 127.86 35.28 
L 125.802857 34.163265 
L 123.745714 33.281633 
L 121.688571 32.635102 
L 119.631429 32.223673 
L 117.574286 32.047347 
L 117.06 32.04 
L 99.06 32.04 
L 99.06 32.04 
L 101.0472 34.2 
L 102.7752 36.36 
L 104.244 38.52 
L 105.4536 40.68 
L 106.404 42.84 
L 107.0952 45 
L 107.5272 47.16 
L 107.7 49.32 
L 107.6136 51.48 
L 107.268 53.64 
L 106.6632 55.8 
L 105.7992 57.96 
L 104.676 60.12 
L 103.2936 62.28 
L 101.652 64.44 
L 99.7512 66.6 
L 99.06 67.32 
L 99.06 67.32 
" clip-path="url(#p5038b5b83d)" style="fill: none; stroke: #000000; stroke-width: 2; stroke-linecap: round"/>
   </g>
   <g id="line2d_7">
    <path d="M 93.66 67.32 
L 94.3512 66.6 
L 95.0136 65.88 
L 95.6472 65.16 
L 96.252 64.44 
L 96.828 63.72 
L 97.3752 63 
L 97.8936 62.28 
L 98.3832 61.56 
L 98.844 60.84 
L 99.276 60.12 
L 99.6792 59.4 
L 100.0536 58.68 
L 100.3992 57.96 
L 100.716 57.24 
L 101.004 56.52 
L 101.2632 55.8 
L 101.4936 55.08 
L 101.6952 54.36 
L 101.868 53.64 
L 102.012 52.92 
L 102.1272 52.2 
L 102.2136 51.48 
L 102.2712 50.76 
L 102.3 50.04 
L 102.3 49.32 
L 102.2712 48.6 
L 102.2136 47.88 
L 102.1272 47.16 
L 102.012 46.44 
L 101.868 45.72 
L 101.6952 45 
L 101.4936 44.28 
L 101.2632 43.56 
L 101.004 42.84 
L 100.716 42.12 
L 100.3992 41.4 
L 100.0536 40.68 
L 99.6792 39.96 
L 99.276 39.24 
L 98.844 38.52 
L 98.3832 37.8 
L 97.8936 37.08 
L 97.3752 36.36 
L 96.828 35.64 
L 96.252 34.92 
L 95.6472 34.2 
L 95.0136 33.48 
L 94.3512 32.76 
L 93.66 32.04 
" clip-path="url(#p5038b5b83d)" style="fill: none; stroke: #000000; stroke-width: 2; stroke-linecap: round"/>
   </g>
   <g id="line2d_8">
    <path d="M 86.46 58.68 
L 100.0536 58.68 
" clip-path="url(#p5038b5b83d)" style="fill: none; stroke: #000000; stroke-width: 2; stroke-linecap: round"/>
   </g>
   <g id="line2d_9">
    <path d="M 86.46 40.68 
L 100.0536 40.68 
" clip-path="url(#p5038b5b83d)" style="fill: none; stroke: #000000; stroke-width: 2; stroke-linecap: round"/>
   </g>
   <g id="line2d_10">
    <path d="M 142.26 49.68 
L 154.86 49.68 
" clip-path="url(#p5038b5b83d)" style="fill: none; stroke: #000000; stroke-width: 2; stroke-linecap: round"/>
   </g>
   <g id="line2d_11">
    <path d="M 52.26 40.68 
L 53.413264 40.643017 
L 54.561789 40.53222 
L 55.700855 40.348065 
L 56.825783 40.091308 
L 57.931948 39.763003 
L 59.014806 39.364502 
L 60.069907 38.89744 
L 61.092916 38.363737 
L 62.079628 37.765586 
L 63.02599 37.105445 
L 63.928111 36.386027 
L 64.782286 35.610288 
L 65.585004 34.781416 
L 66.332967 33.902816 
L 67.023101 32.9781 
L 67.65257 32.011066 
L 68.218788 31.005689 
L 68.719427 29.9661 
L 69.152432 28.896571 
L 69.516021 27.801497 
L 69.808702 26.685377 
L 70.029272 25.552798 
L 70.176824 24.408414 
L 70.250752 23.256928 
L 70.250752 22.103072 
L 70.176824 20.951586 
L 70.029272 19.807202 
L 69.808702 18.674623 
L 69.516021 17.558503 
L 69.152432 16.463429 
L 68.719427 15.3939 
L 68.218788 14.354311 
L 67.65257 13.348934 
L 67.023101 12.3819 
L 66.332967 11.457184 
L 65.585004 10.578584 
L 64.782286 9.749712 
L 63.928111 8.973973 
L 63.02599 8.254555 
L 62.079628 7.594414 
L 61.092916 6.996263 
L 60.069907 6.46256 
L 59.014806 5.995498 
L 57.931948 5.596997 
L 56.825783 5.268692 
L 55.700855 5.011935 
L 54.561789 4.82778 
L 53.413264 4.716983 
L 52.26 4.68 
L 52.26 4.68 
L 28.86 4.68 
L 28.86 22.68 
L 28.86 40.68 
L 52.26 40.68 
" clip-path="url(#p5038b5b83d)" style="fill: none; stroke: #000000; stroke-width: 2; stroke-linecap: round"/>
   </g>
   <g id="line2d_12">
    <path d="M 16.26 31.68 
L 28.86 31.68 
" clip-path="url(#p5038b5b83d)" style="fill: none; stroke: #000000; stroke-width: 2; stroke-linecap: round"/>
   </g>
   <g id="line2d_13">
    <path d="M 16.26 13.68 
L 28.86 13.68 
" clip-path="url(#p5038b5b83d)" style="fill: none; stroke: #000000; stroke-width: 2; stroke-linecap: round"/>
   </g>
   <g id="line2d_14">
    <path d="M 70.26 22.68 
L 82.86 22.68 
" clip-path="url(#p5038b5b83d)" style="fill: none; stroke: #000000; stroke-width: 2; stroke-linecap: round"/>
   </g>
   <g id="line2d_15">
    <path d="M 86.46 40.68 
L 82.86 40.68 
L 82.86 22.68 
" clip-path="url(#p5038b5b83d)" style="fill: none; stroke: #000000; stroke-width: 2; stroke-linecap: round"/>
   </g>
   <g id="line2d_16">
    <path d="M 52.26 94.68 
L 53.413264 94.643017 
L 54.561789 94.53222 
L 55.700855 94.348065 
L 56.825783 94.091308 
L 57.931948 93.763003 
L 59.014806 93.364502 
L 60.069907 92.89744 
L 61.092916 92.363737 
L 62.079628 91.765586 
L 63.02599 91.105445 
L 63.928111 90.386027 
L 64.782286 89.610288 
L 65.585004 88.781416 
L 66.332967 87.902816 
L 67.023101 86.9781 
L 67.65257 86.011066 
L 68.218788 85.005689 
L 68.719427 83.9661 
L 69.152432 82.896571 
L 69.516021 81.801497 
L 69.808702 80.685377 
L 70.029272 79.552798 
L 70.176824 78.408414 
L 70.250752 77.256928 
L 70.250752 76.103072 
L 70.176824 74.951586 
L 70.029272 73.807202 
L 69.808702 72.674623 
L 69.516021 71.558503 
L 69.152432 70.463429 
L 68.719427 69.3939 
L 68.218788 68.354311 
L 67.65257 67.348934 
L 67.023101 66.3819 
L 66.332967 65.457184 
L 65.585004 64.578584 
L 64.782286 63.749712 
L 63.928111 62.973973 
L 63.02599 62.254555 
L 62.079628 61.594414 
L 61.092916 60.996263 
L 60.069907 60.46256 
L 59.014806 59.995498 
L 57.931948 59.596997 
L 56.825783 59.268692 
L 55.700855 59.011935 
L 54.561789 58.82778 
L 53.413264 58.716983 
L 52.26 58.68 
L 52.26 58.68 
L 28.86 58.68 
L 28.86 76.68 
L 28.86 94.68 
L 52.26 94.68 
" clip-path="url(#p5038b5b83d)" style="fill: none; stroke: #000000; stroke-width: 2; stroke-linecap: round"/>
   </g>
   <g id="line2d_17">
    <path d="M 16.26 85.68 
L 28.86 85.68 
" clip-path="url(#p5038b5b83d)" style="fill: none; stroke: #000000; stroke-width: 2; stroke-linecap: round"/>
   </g>
   <g id="line2d_18">
    <path d="M 16.26 67.68 
L 28.86 67.68 
" clip-path="url(#p5038b5b83d)" style="fill: none; stroke: #000000; stroke-width: 2; stroke-linecap: round"/>
   </g>
   <g id="line2d_19">
    <path d="M 78.9 76.68 
L 82.86 76.68 
" clip-path="url(#p5038b5b83d)" style="fill: none; stroke: #000000; stroke-width: 2; stroke-linecap: round"/>
   </g>
   <g id="line2d_20">
    <path d="M 86.46 58.68 
L 82.86 58.68 
L 82.86 76.68 
" clip-path="url(#p5038b5b83d)" style="fill: none; stroke: #000000; stroke-width: 2; stroke-linecap: round"/>
   </g>
   <g id="line2d_21">
    <path d="M 158.46 74.43 
L 154.86 74.43 
L 154.86 49.68 
" clip-path="url(#p5038b5b83d)" style="fill: none; stroke: #000000; stroke-width: 2; stroke-linecap: round"/>
   </g>
   <g id="line2d_22">
    <path d="M 99.06 134.82 
L 118.602857 134.753878 
L 120.66 134.46 
L 122.717143 133.93102 
L 124.774286 133.166939 
L 126.831429 132.167755 
L 128.888571 130.933469 
L 130.945714 129.464082 
L 133.002857 127.759592 
L 135.574286 125.298367 
L 138.145714 122.469796 
L 140.717143 119.273878 
L 142.26 117.18 
L 142.26 117.18 
L 139.688571 113.763673 
L 137.117143 110.714694 
L 134.545714 108.033061 
L 131.974286 105.718776 
L 129.917143 104.131837 
L 127.86 102.78 
L 125.802857 101.663265 
L 123.745714 100.781633 
L 121.688571 100.135102 
L 119.631429 99.723673 
L 117.574286 99.547347 
L 117.06 99.54 
L 99.06 99.54 
L 99.06 99.54 
L 101.0472 101.7 
L 102.7752 103.86 
L 104.244 106.02 
L 105.4536 108.18 
L 106.404 110.34 
L 107.0952 112.5 
L 107.5272 114.66 
L 107.7 116.82 
L 107.6136 118.98 
L 107.268 121.14 
L 106.6632 123.3 
L 105.7992 125.46 
L 104.676 127.62 
L 103.2936 129.78 
L 101.652 131.94 
L 99.7512 134.1 
L 99.06 134.82 
L 99.06 134.82 
" clip-path="url(#p5038b5b83d)" style="fill: none; stroke: #000000; stroke-width: 2; stroke-linecap: round"/>
   </g>
   <g id="line2d_23">
    <path d="M 86.46 126.18 
L 105.4536 126.18 
" clip-path="url(#p5038b5b83d)" style="fill: none; stroke: #000000; stroke-width: 2; stroke-linecap: round"/>
   </g>
   <g id="line2d_24">
    <path d="M 86.46 108.18 
L 105.4536 108.18 
" clip-path="url(#p5038b5b83d)" style="fill: none; stroke: #000000; stroke-width: 2; stroke-linecap: round"/>
   </g>
   <g id="line2d_25">
    <path d="M 142.26 117.18 
L 154.86 117.18 
" clip-path="url(#p5038b5b83d)" style="fill: none; stroke: #000000; stroke-width: 2; stroke-linecap: round"/>
   </g>
   <g id="line2d_26">
    <path d="M 158.46 92.43 
L 154.86 92.43 
L 154.86 117.18 
" clip-path="url(#p5038b5b83d)" style="fill: none; stroke: #000000; stroke-width: 2; stroke-linecap: round"/>
   </g>
   <g id="text_1">
    <!-- $\text{Output}$ -->
    <g transform="translate(230.46 87.264688) scale(0.14 -0.14)">
     <defs>
      <path id="DejaVuSans-4f" d="M 2522 4238 
Q 1834 4238 1429 3725 
Q 1025 3213 1025 2328 
Q 1025 1447 1429 934 
Q 1834 422 2522 422 
Q 3209 422 3611 934 
Q 4013 1447 4013 2328 
Q 4013 3213 3611 3725 
Q 3209 4238 2522 4238 
z
M 2522 4750 
Q 3503 4750 4090 4092 
Q 4678 3434 4678 2328 
Q 4678 1225 4090 567 
Q 3503 -91 2522 -91 
Q 1538 -91 948 565 
Q 359 1222 359 2328 
Q 359 3434 948 4092 
Q 1538 4750 2522 4750 
z
" transform="scale(0.015625)"/>
      <path id="DejaVuSans-75" d="M 544 1381 
L 544 3500 
L 1119 3500 
L 1119 1403 
Q 1119 906 1312 657 
Q 1506 409 1894 409 
Q 2359 409 2629 706 
Q 2900 1003 2900 1516 
L 2900 3500 
L 3475 3500 
L 3475 0 
L 2900 0 
L 2900 538 
Q 2691 219 2414 64 
Q 2138 -91 1772 -91 
Q 1169 -91 856 284 
Q 544 659 544 1381 
z
M 1991 3584 
L 1991 3584 
z
" transform="scale(0.015625)"/>
      <path id="DejaVuSans-74" d="M 1172 4494 
L 1172 3500 
L 2356 3500 
L 2356 3053 
L 1172 3053 
L 1172 1153 
Q 1172 725 1289 603 
Q 1406 481 1766 481 
L 2356 481 
L 2356 0 
L 1766 0 
Q 1100 0 847 248 
Q 594 497 594 1153 
L 594 3053 
L 172 3053 
L 172 3500 
L 594 3500 
L 594 4494 
L 1172 4494 
z
" transform="scale(0.015625)"/>
      <path id="DejaVuSans-70" d="M 1159 525 
L 1159 -1331 
L 581 -1331 
L 581 3500 
L 1159 3500 
L 1159 2969 
Q 1341 3281 1617 3432 
Q 1894 3584 2278 3584 
Q 2916 3584 3314 3078 
Q 3713 2572 3713 1747 
Q 3713 922 3314 415 
Q 2916 -91 2278 -91 
Q 1894 -91 1617 61 
Q 1341 213 1159 525 
z
M 3116 1747 
Q 3116 2381 2855 2742 
Q 2594 3103 2138 3103 
Q 1681 3103 1420 2742 
Q 1159 2381 1159 1747 
Q 1159 1113 1420 752 
Q 1681 391 2138 391 
Q 2594 391 2855 752 
Q 3116 1113 3116 1747 
z
" transform="scale(0.015625)"/>
     </defs>
     <use xlink:href="#DejaVuSans-4f" transform="translate(0 0.78125)"/>
     <use xlink:href="#DejaVuSans-75" transform="translate(78.710938 0.78125)"/>
     <use xlink:href="#DejaVuSans-74" transform="translate(142.089844 0.78125)"/>
     <use xlink:href="#DejaVuSans-70" transform="translate(181.298828 0.78125)"/>
     <use xlink:href="#DejaVuSans-75" transform="translate(244.775391 0.78125)"/>
     <use xlink:href="#DejaVuSans-74" transform="translate(308.154297 0.78125)"/>
    </g>
   </g>
   <g id="text_2">
    <!-- a -->
    <g transform="translate(4.080625 17.543125) scale(0.14 -0.14)">
     <defs>
      <path id="DejaVuSans-61" d="M 2194 1759 
Q 1497 1759 1228 1600 
Q 959 1441 959 1056 
Q 959 750 1161 570 
Q 1363 391 1709 391 
Q 2188 391 2477 730 
Q 2766 1069 2766 1631 
L 2766 1759 
L 2194 1759 
z
M 3341 1997 
L 3341 0 
L 2766 0 
L 2766 531 
Q 2569 213 2275 61 
Q 1981 -91 1556 -91 
Q 1019 -91 701 211 
Q 384 513 384 1019 
Q 384 1609 779 1909 
Q 1175 2209 1959 2209 
L 2766 2209 
L 2766 2266 
Q 2766 2663 2505 2880 
Q 2244 3097 1772 3097 
Q 1472 3097 1187 3025 
Q 903 2953 641 2809 
L 641 3341 
Q 956 3463 1253 3523 
Q 1550 3584 1831 3584 
Q 2591 3584 2966 3190 
Q 3341 2797 3341 1997 
z
" transform="scale(0.015625)"/>
     </defs>
     <use xlink:href="#DejaVuSans-61"/>
    </g>
   </g>
   <g id="text_3">
    <!-- a -->
    <g transform="translate(4.080625 35.543125) scale(0.14 -0.14)">
     <use xlink:href="#DejaVuSans-61"/>
    </g>
   </g>
   <g id="text_4">
    <!-- a -->
    <g transform="translate(4.080625 71.543125) scale(0.14 -0.14)">
     <use xlink:href="#DejaVuSans-61"/>
    </g>
   </g>
   <g id="text_5">
    <!-- a -->
    <g transform="translate(4.080625 89.543125) scale(0.14 -0.14)">
     <use xlink:href="#DejaVuSans-61"/>
    </g>
   </g>
   <g id="text_6">
    <!-- a -->
    <g transform="translate(74.280625 112.043125) scale(0.14 -0.14)">
     <use xlink:href="#DejaVuSans-61"/>
    </g>
   </g>
   <g id="text_7">
    <!-- a -->
    <g transform="translate(74.280625 130.043125) scale(0.14 -0.14)">
     <use xlink:href="#DejaVuSans-61"/>
    </g>
   </g>
  </g>
 </g>
 <defs>
  <clipPath id="p5038b5b83d">
   <rect x="0" y="0" width="317.04" height="139.5"/>
  </clipPath>
 </defs>
</svg>
