<?xml version="1.0" encoding="utf-8" standalone="no"?>
<!DOCTYPE svg PUBLIC "-//W3C//DTD SVG 1.1//EN"
  "http://www.w3.org/Graphics/SVG/1.1/DTD/svg11.dtd">
<svg xmlns:xlink="http://www.w3.org/1999/xlink" width="318.84pt" height="206.64pt" viewBox="0 0 318.84 206.64" xmlns="http://www.w3.org/2000/svg" version="1.1">
 <metadata>
  <rdf:RDF xmlns:dc="http://purl.org/dc/elements/1.1/" xmlns:cc="http://creativecommons.org/ns#" xmlns:rdf="http://www.w3.org/1999/02/22-rdf-syntax-ns#">
   <cc:Work>
    <dc:type rdf:resource="http://purl.org/dc/dcmitype/StillImage"/>
    <dc:date>2024-09-01T12:28:25.018290</dc:date>
    <dc:format>image/svg+xml</dc:format>
    <dc:creator>
     <cc:Agent>
      <dc:title>Matplotlib v3.9.0, https://matplotlib.org/</dc:title>
     </cc:Agent>
    </dc:creator>
   </cc:Work>
  </rdf:RDF>
 </metadata>
 <defs>
  <style type="text/css">*{stroke-linejoin: round; stroke-linecap: butt}</style>
 </defs>
 <g id="figure_1">
  <g id="patch_1">
   <path d="M 0 206.64 
L 318.84 206.64 
L 318.84 0 
L 0 0 
L 0 206.64 
z
" style="fill: none"/>
  </g>
  <g id="axes_1">
   <g id="patch_2">
    <path d="M 76.38 26.64 
C 77.525677 26.64 78.624585 26.184818 79.434701 25.374701 
C 80.244818 24.564585 80.7 23.465677 80.7 22.32 
C 80.7 21.174323 80.244818 20.075415 79.434701 19.265299 
C 78.624585 18.455182 77.525677 18 76.38 18 
C 75.234323 18 74.135415 18.455182 73.325299 19.265299 
C 72.515182 20.075415 72.06 21.174323 72.06 22.32 
C 72.06 23.465677 72.515182 24.564585 73.325299 25.374701 
C 74.135415 26.184818 75.234323 26.64 76.38 26.64 
L 76.38 26.64 
z
" clip-path="url(#pfcab18a672)" style="fill: none; stroke: #000000; stroke-width: 2; stroke-linejoin: miter"/>
   </g>
   <g id="patch_3">
    <path d="M 76.38 80.64 
C 77.525677 80.64 78.624585 80.184818 79.434701 79.374701 
C 80.244818 78.564585 80.7 77.465677 80.7 76.32 
C 80.7 75.174323 80.244818 74.075415 79.434701 73.265299 
C 78.624585 72.455182 77.525677 72 76.38 72 
C 75.234323 72 74.135415 72.455182 73.325299 73.265299 
C 72.515182 74.075415 72.06 75.174323 72.06 76.32 
C 72.06 77.465677 72.515182 78.564585 73.325299 79.374701 
C 74.135415 80.184818 75.234323 80.64 76.38 80.64 
L 76.38 80.64 
z
" clip-path="url(#pfcab18a672)" style="fill: none; stroke: #000000; stroke-width: 2; stroke-linejoin: miter"/>
   </g>
   <g id="patch_4">
    <path d="M 76.38 188.64 
C 77.525677 188.64 78.624585 188.184818 79.434701 187.374701 
C 80.244818 186.564585 80.7 185.465677 80.7 184.32 
C 80.7 183.174323 80.244818 182.075415 79.434701 181.265299 
C 78.624585 180.455182 77.525677 180 76.38 180 
C 75.234323 180 74.135415 180.455182 73.325299 181.265299 
C 72.515182 182.075415 72.06 183.174323 72.06 184.32 
C 72.06 185.465677 72.515182 186.564585 73.325299 187.374701 
C 74.135415 188.184818 75.234323 188.64 76.38 188.64 
L 76.38 188.64 
z
" clip-path="url(#pfcab18a672)" style="fill: none; stroke: #000000; stroke-width: 2; stroke-linejoin: miter"/>
   </g>
   <g id="line2d_1">
    <path d="M 172.86 120.96 
L 192.402857 120.893878 
L 194.46 120.6 
L 196.517143 120.07102 
L 198.574286 119.306939 
L 200.631429 118.307755 
L 202.688571 117.073469 
L 204.745714 115.604082 
L 206.802857 113.899592 
L 209.374286 111.438367 
L 211.945714 108.609796 
L 214.517143 105.413878 
L 216.06 103.32 
L 216.06 103.32 
L 213.488571 99.903673 
L 210.917143 96.854694 
L 208.345714 94.173061 
L 205.774286 91.858776 
L 203.717143 90.271837 
L 201.66 88.92 
L 199.602857 87.803265 
L 197.545714 86.921633 
L 195.488571 86.275102 
L 193.431429 85.863673 
L 191.374286 85.687347 
L 190.86 85.68 
L 172.86 85.68 
L 172.86 85.68 
L 174.8472 87.84 
L 176.5752 90 
L 178.044 92.16 
L 179.2536 94.32 
L 180.204 96.48 
L 180.8952 98.64 
L 181.3272 100.8 
L 181.5 102.96 
L 181.4136 105.12 
L 181.068 107.28 
L 180.4632 109.44 
L 179.5992 111.6 
L 178.476 113.76 
L 177.0936 115.92 
L 175.452 118.08 
L 173.5512 120.24 
L 172.86 120.96 
L 172.86 120.96 
" clip-path="url(#pfcab18a672)" style="fill: none; stroke: #000000; stroke-width: 2; stroke-linecap: round"/>
   </g>
   <g id="line2d_2">
    <path d="M 160.26 112.32 
L 179.2536 112.32 
" clip-path="url(#pfcab18a672)" style="fill: none; stroke: #000000; stroke-width: 2; stroke-linecap: round"/>
   </g>
   <g id="line2d_3">
    <path d="M 160.26 94.32 
L 179.2536 94.32 
" clip-path="url(#pfcab18a672)" style="fill: none; stroke: #000000; stroke-width: 2; stroke-linecap: round"/>
   </g>
   <g id="line2d_4">
    <path d="M 216.06 103.32 
L 228.66 103.32 
" clip-path="url(#pfcab18a672)" style="fill: none; stroke: #000000; stroke-width: 2; stroke-linecap: round"/>
   </g>
   <g id="line2d_5">
    <path d="M 126.06 67.32 
L 127.213264 67.283017 
L 128.361789 67.17222 
L 129.500855 66.988065 
L 130.625783 66.731308 
L 131.731948 66.403003 
L 132.814806 66.004502 
L 133.869907 65.53744 
L 134.892916 65.003737 
L 135.879628 64.405586 
L 136.82599 63.745445 
L 137.728111 63.026027 
L 138.582286 62.250288 
L 139.385004 61.421416 
L 140.132967 60.542816 
L 140.823101 59.6181 
L 141.45257 58.651066 
L 142.018788 57.645689 
L 142.519427 56.6061 
L 142.952432 55.536571 
L 143.316021 54.441497 
L 143.608702 53.325377 
L 143.829272 52.192798 
L 143.976824 51.048414 
L 144.050752 49.896928 
L 144.050752 48.743072 
L 143.976824 47.591586 
L 143.829272 46.447202 
L 143.608702 45.314623 
L 143.316021 44.198503 
L 142.952432 43.103429 
L 142.519427 42.0339 
L 142.018788 40.994311 
L 141.45257 39.988934 
L 140.823101 39.0219 
L 140.132967 38.097184 
L 139.385004 37.218584 
L 138.582286 36.389712 
L 137.728111 35.613973 
L 136.82599 34.894555 
L 135.879628 34.234414 
L 134.892916 33.636263 
L 133.869907 33.10256 
L 132.814806 32.635498 
L 131.731948 32.236997 
L 130.625783 31.908692 
L 129.500855 31.651935 
L 128.361789 31.46778 
L 127.213264 31.356983 
L 126.06 31.32 
L 126.06 31.32 
L 102.66 31.32 
L 102.66 49.32 
L 102.66 67.32 
L 126.06 67.32 
" clip-path="url(#pfcab18a672)" style="fill: none; stroke: #000000; stroke-width: 2; stroke-linecap: round"/>
   </g>
   <g id="line2d_6">
    <path d="M 90.06 58.32 
L 102.66 58.32 
" clip-path="url(#pfcab18a672)" style="fill: none; stroke: #000000; stroke-width: 2; stroke-linecap: round"/>
   </g>
   <g id="line2d_7">
    <path d="M 90.06 40.32 
L 102.66 40.32 
" clip-path="url(#pfcab18a672)" style="fill: none; stroke: #000000; stroke-width: 2; stroke-linecap: round"/>
   </g>
   <g id="line2d_8">
    <path d="M 144.06 49.32 
L 156.66 49.32 
" clip-path="url(#pfcab18a672)" style="fill: none; stroke: #000000; stroke-width: 2; stroke-linecap: round"/>
   </g>
   <g id="line2d_9">
    <path d="M 28.86 39.96 
L 48.402857 39.893878 
L 50.46 39.6 
L 52.517143 39.07102 
L 54.574286 38.306939 
L 56.631429 37.307755 
L 58.688571 36.073469 
L 60.745714 34.604082 
L 62.802857 32.899592 
L 65.374286 30.438367 
L 67.945714 27.609796 
L 70.517143 24.413878 
L 72.06 22.32 
L 72.06 22.32 
L 69.488571 18.903673 
L 66.917143 15.854694 
L 64.345714 13.173061 
L 61.774286 10.858776 
L 59.717143 9.271837 
L 57.66 7.92 
L 55.602857 6.803265 
L 53.545714 5.921633 
L 51.488571 5.275102 
L 49.431429 4.863673 
L 47.374286 4.687347 
L 46.86 4.68 
L 28.86 4.68 
L 28.86 4.68 
L 30.8472 6.84 
L 32.5752 9 
L 34.044 11.16 
L 35.2536 13.32 
L 36.204 15.48 
L 36.8952 17.64 
L 37.3272 19.8 
L 37.5 21.96 
L 37.4136 24.12 
L 37.068 26.28 
L 36.4632 28.44 
L 35.5992 30.6 
L 34.476 32.76 
L 33.0936 34.92 
L 31.452 37.08 
L 29.5512 39.24 
L 28.86 39.96 
L 28.86 39.96 
" clip-path="url(#pfcab18a672)" style="fill: none; stroke: #000000; stroke-width: 2; stroke-linecap: round"/>
   </g>
   <g id="line2d_10">
    <path d="M 16.26 31.32 
L 35.2536 31.32 
" clip-path="url(#pfcab18a672)" style="fill: none; stroke: #000000; stroke-width: 2; stroke-linecap: round"/>
   </g>
   <g id="line2d_11">
    <path d="M 16.26 13.32 
L 35.2536 13.32 
" clip-path="url(#pfcab18a672)" style="fill: none; stroke: #000000; stroke-width: 2; stroke-linecap: round"/>
   </g>
   <g id="line2d_12">
    <path d="M 80.7 22.32 
L 84.66 22.32 
" clip-path="url(#pfcab18a672)" style="fill: none; stroke: #000000; stroke-width: 2; stroke-linecap: round"/>
   </g>
   <g id="line2d_13">
    <path d="M 90.06 40.32 
L 84.66 40.32 
L 84.66 22.32 
" clip-path="url(#pfcab18a672)" style="fill: none; stroke: #000000; stroke-width: 2; stroke-linecap: round"/>
   </g>
   <g id="line2d_14">
    <path d="M 28.86 93.96 
L 48.402857 93.893878 
L 50.46 93.6 
L 52.517143 93.07102 
L 54.574286 92.306939 
L 56.631429 91.307755 
L 58.688571 90.073469 
L 60.745714 88.604082 
L 62.802857 86.899592 
L 65.374286 84.438367 
L 67.945714 81.609796 
L 70.517143 78.413878 
L 72.06 76.32 
L 72.06 76.32 
L 69.488571 72.903673 
L 66.917143 69.854694 
L 64.345714 67.173061 
L 61.774286 64.858776 
L 59.717143 63.271837 
L 57.66 61.92 
L 55.602857 60.803265 
L 53.545714 59.921633 
L 51.488571 59.275102 
L 49.431429 58.863673 
L 47.374286 58.687347 
L 46.86 58.68 
L 28.86 58.68 
L 28.86 58.68 
L 30.8472 60.84 
L 32.5752 63 
L 34.044 65.16 
L 35.2536 67.32 
L 36.204 69.48 
L 36.8952 71.64 
L 37.3272 73.8 
L 37.5 75.96 
L 37.4136 78.12 
L 37.068 80.28 
L 36.4632 82.44 
L 35.5992 84.6 
L 34.476 86.76 
L 33.0936 88.92 
L 31.452 91.08 
L 29.5512 93.24 
L 28.86 93.96 
L 28.86 93.96 
" clip-path="url(#pfcab18a672)" style="fill: none; stroke: #000000; stroke-width: 2; stroke-linecap: round"/>
   </g>
   <g id="line2d_15">
    <path d="M 23.46 93.96 
L 24.1512 93.24 
L 24.8136 92.52 
L 25.4472 91.8 
L 26.052 91.08 
L 26.628 90.36 
L 27.1752 89.64 
L 27.6936 88.92 
L 28.1832 88.2 
L 28.644 87.48 
L 29.076 86.76 
L 29.4792 86.04 
L 29.8536 85.32 
L 30.1992 84.6 
L 30.516 83.88 
L 30.804 83.16 
L 31.0632 82.44 
L 31.2936 81.72 
L 31.4952 81 
L 31.668 80.28 
L 31.812 79.56 
L 31.9272 78.84 
L 32.0136 78.12 
L 32.0712 77.4 
L 32.1 76.68 
L 32.1 75.96 
L 32.0712 75.24 
L 32.0136 74.52 
L 31.9272 73.8 
L 31.812 73.08 
L 31.668 72.36 
L 31.4952 71.64 
L 31.2936 70.92 
L 31.0632 70.2 
L 30.804 69.48 
L 30.516 68.76 
L 30.1992 68.04 
L 29.8536 67.32 
L 29.4792 66.6 
L 29.076 65.88 
L 28.644 65.16 
L 28.1832 64.44 
L 27.6936 63.72 
L 27.1752 63 
L 26.628 62.28 
L 26.052 61.56 
L 25.4472 60.84 
L 24.8136 60.12 
L 24.1512 59.4 
L 23.46 58.68 
" clip-path="url(#pfcab18a672)" style="fill: none; stroke: #000000; stroke-width: 2; stroke-linecap: round"/>
   </g>
   <g id="line2d_16">
    <path d="M 16.26 85.32 
L 29.8536 85.32 
" clip-path="url(#pfcab18a672)" style="fill: none; stroke: #000000; stroke-width: 2; stroke-linecap: round"/>
   </g>
   <g id="line2d_17">
    <path d="M 16.26 67.32 
L 29.8536 67.32 
" clip-path="url(#pfcab18a672)" style="fill: none; stroke: #000000; stroke-width: 2; stroke-linecap: round"/>
   </g>
   <g id="line2d_18">
    <path d="M 80.7 76.32 
L 84.66 76.32 
" clip-path="url(#pfcab18a672)" style="fill: none; stroke: #000000; stroke-width: 2; stroke-linecap: round"/>
   </g>
   <g id="line2d_19">
    <path d="M 90.06 58.32 
L 84.66 58.32 
L 84.66 76.32 
" clip-path="url(#pfcab18a672)" style="fill: none; stroke: #000000; stroke-width: 2; stroke-linecap: round"/>
   </g>
   <g id="line2d_20">
    <path d="M 160.26 94.32 
L 156.66 94.32 
L 156.66 49.32 
" clip-path="url(#pfcab18a672)" style="fill: none; stroke: #000000; stroke-width: 2; stroke-linecap: round"/>
   </g>
   <g id="line2d_21">
    <path d="M 100.86 174.96 
L 120.402857 174.893878 
L 122.46 174.6 
L 124.517143 174.07102 
L 126.574286 173.306939 
L 128.631429 172.307755 
L 130.688571 171.073469 
L 132.745714 169.604082 
L 134.802857 167.899592 
L 137.374286 165.438367 
L 139.945714 162.609796 
L 142.517143 159.413878 
L 144.06 157.32 
L 144.06 157.32 
L 141.488571 153.903673 
L 138.917143 150.854694 
L 136.345714 148.173061 
L 133.774286 145.858776 
L 131.717143 144.271837 
L 129.66 142.92 
L 127.602857 141.803265 
L 125.545714 140.921633 
L 123.488571 140.275102 
L 121.431429 139.863673 
L 119.374286 139.687347 
L 118.86 139.68 
L 100.86 139.68 
L 100.86 139.68 
L 102.8472 141.84 
L 104.5752 144 
L 106.044 146.16 
L 107.2536 148.32 
L 108.204 150.48 
L 108.8952 152.64 
L 109.3272 154.8 
L 109.5 156.96 
L 109.4136 159.12 
L 109.068 161.28 
L 108.4632 163.44 
L 107.5992 165.6 
L 106.476 167.76 
L 105.0936 169.92 
L 103.452 172.08 
L 101.5512 174.24 
L 100.86 174.96 
L 100.86 174.96 
" clip-path="url(#pfcab18a672)" style="fill: none; stroke: #000000; stroke-width: 2; stroke-linecap: round"/>
   </g>
   <g id="line2d_22">
    <path d="M 88.26 166.32 
L 107.2536 166.32 
" clip-path="url(#pfcab18a672)" style="fill: none; stroke: #000000; stroke-width: 2; stroke-linecap: round"/>
   </g>
   <g id="line2d_23">
    <path d="M 88.26 148.32 
L 107.2536 148.32 
" clip-path="url(#pfcab18a672)" style="fill: none; stroke: #000000; stroke-width: 2; stroke-linecap: round"/>
   </g>
   <g id="line2d_24">
    <path d="M 144.06 157.32 
L 156.66 157.32 
" clip-path="url(#pfcab18a672)" style="fill: none; stroke: #000000; stroke-width: 2; stroke-linecap: round"/>
   </g>
   <g id="line2d_25">
    <path d="M 28.86 147.96 
L 48.402857 147.893878 
L 50.46 147.6 
L 52.517143 147.07102 
L 54.574286 146.306939 
L 56.631429 145.307755 
L 58.688571 144.073469 
L 60.745714 142.604082 
L 62.802857 140.899592 
L 65.374286 138.438367 
L 67.945714 135.609796 
L 70.517143 132.413878 
L 72.06 130.32 
L 72.06 130.32 
L 69.488571 126.903673 
L 66.917143 123.854694 
L 64.345714 121.173061 
L 61.774286 118.858776 
L 59.717143 117.271837 
L 57.66 115.92 
L 55.602857 114.803265 
L 53.545714 113.921633 
L 51.488571 113.275102 
L 49.431429 112.863673 
L 47.374286 112.687347 
L 46.86 112.68 
L 28.86 112.68 
L 28.86 112.68 
L 30.8472 114.84 
L 32.5752 117 
L 34.044 119.16 
L 35.2536 121.32 
L 36.204 123.48 
L 36.8952 125.64 
L 37.3272 127.8 
L 37.5 129.96 
L 37.4136 132.12 
L 37.068 134.28 
L 36.4632 136.44 
L 35.5992 138.6 
L 34.476 140.76 
L 33.0936 142.92 
L 31.452 145.08 
L 29.5512 147.24 
L 28.86 147.96 
L 28.86 147.96 
" clip-path="url(#pfcab18a672)" style="fill: none; stroke: #000000; stroke-width: 2; stroke-linecap: round"/>
   </g>
   <g id="line2d_26">
    <path d="M 23.46 147.96 
L 24.1512 147.24 
L 24.8136 146.52 
L 25.4472 145.8 
L 26.052 145.08 
L 26.628 144.36 
L 27.1752 143.64 
L 27.6936 142.92 
L 28.1832 142.2 
L 28.644 141.48 
L 29.076 140.76 
L 29.4792 140.04 
L 29.8536 139.32 
L 30.1992 138.6 
L 30.516 137.88 
L 30.804 137.16 
L 31.0632 136.44 
L 31.2936 135.72 
L 31.4952 135 
L 31.668 134.28 
L 31.812 133.56 
L 31.9272 132.84 
L 32.0136 132.12 
L 32.0712 131.4 
L 32.1 130.68 
L 32.1 129.96 
L 32.0712 129.24 
L 32.0136 128.52 
L 31.9272 127.8 
L 31.812 127.08 
L 31.668 126.36 
L 31.4952 125.64 
L 31.2936 124.92 
L 31.0632 124.2 
L 30.804 123.48 
L 30.516 122.76 
L 30.1992 122.04 
L 29.8536 121.32 
L 29.4792 120.6 
L 29.076 119.88 
L 28.644 119.16 
L 28.1832 118.44 
L 27.6936 117.72 
L 27.1752 117 
L 26.628 116.28 
L 26.052 115.56 
L 25.4472 114.84 
L 24.8136 114.12 
L 24.1512 113.4 
L 23.46 112.68 
" clip-path="url(#pfcab18a672)" style="fill: none; stroke: #000000; stroke-width: 2; stroke-linecap: round"/>
   </g>
   <g id="line2d_27">
    <path d="M 16.26 139.32 
L 29.8536 139.32 
" clip-path="url(#pfcab18a672)" style="fill: none; stroke: #000000; stroke-width: 2; stroke-linecap: round"/>
   </g>
   <g id="line2d_28">
    <path d="M 16.26 121.32 
L 29.8536 121.32 
" clip-path="url(#pfcab18a672)" style="fill: none; stroke: #000000; stroke-width: 2; stroke-linecap: round"/>
   </g>
   <g id="line2d_29">
    <path d="M 72.06 130.32 
L 84.66 130.32 
" clip-path="url(#pfcab18a672)" style="fill: none; stroke: #000000; stroke-width: 2; stroke-linecap: round"/>
   </g>
   <g id="line2d_30">
    <path d="M 88.26 148.32 
L 84.66 148.32 
L 84.66 130.32 
" clip-path="url(#pfcab18a672)" style="fill: none; stroke: #000000; stroke-width: 2; stroke-linecap: round"/>
   </g>
   <g id="line2d_31">
    <path d="M 28.86 201.96 
L 48.402857 201.893878 
L 50.46 201.6 
L 52.517143 201.07102 
L 54.574286 200.306939 
L 56.631429 199.307755 
L 58.688571 198.073469 
L 60.745714 196.604082 
L 62.802857 194.899592 
L 65.374286 192.438367 
L 67.945714 189.609796 
L 70.517143 186.413878 
L 72.06 184.32 
L 72.06 184.32 
L 69.488571 180.903673 
L 66.917143 177.854694 
L 64.345714 175.173061 
L 61.774286 172.858776 
L 59.717143 171.271837 
L 57.66 169.92 
L 55.602857 168.803265 
L 53.545714 167.921633 
L 51.488571 167.275102 
L 49.431429 166.863673 
L 47.374286 166.687347 
L 46.86 166.68 
L 28.86 166.68 
L 28.86 166.68 
L 30.8472 168.84 
L 32.5752 171 
L 34.044 173.16 
L 35.2536 175.32 
L 36.204 177.48 
L 36.8952 179.64 
L 37.3272 181.8 
L 37.5 183.96 
L 37.4136 186.12 
L 37.068 188.28 
L 36.4632 190.44 
L 35.5992 192.6 
L 34.476 194.76 
L 33.0936 196.92 
L 31.452 199.08 
L 29.5512 201.24 
L 28.86 201.96 
L 28.86 201.96 
" clip-path="url(#pfcab18a672)" style="fill: none; stroke: #000000; stroke-width: 2; stroke-linecap: round"/>
   </g>
   <g id="line2d_32">
    <path d="M 23.46 201.96 
L 24.1512 201.24 
L 24.8136 200.52 
L 25.4472 199.8 
L 26.052 199.08 
L 26.628 198.36 
L 27.1752 197.64 
L 27.6936 196.92 
L 28.1832 196.2 
L 28.644 195.48 
L 29.076 194.76 
L 29.4792 194.04 
L 29.8536 193.32 
L 30.1992 192.6 
L 30.516 191.88 
L 30.804 191.16 
L 31.0632 190.44 
L 31.2936 189.72 
L 31.4952 189 
L 31.668 188.28 
L 31.812 187.56 
L 31.9272 186.84 
L 32.0136 186.12 
L 32.0712 185.4 
L 32.1 184.68 
L 32.1 183.96 
L 32.0712 183.24 
L 32.0136 182.52 
L 31.9272 181.8 
L 31.812 181.08 
L 31.668 180.36 
L 31.4952 179.64 
L 31.2936 178.92 
L 31.0632 178.2 
L 30.804 177.48 
L 30.516 176.76 
L 30.1992 176.04 
L 29.8536 175.32 
L 29.4792 174.6 
L 29.076 173.88 
L 28.644 173.16 
L 28.1832 172.44 
L 27.6936 171.72 
L 27.1752 171 
L 26.628 170.28 
L 26.052 169.56 
L 25.4472 168.84 
L 24.8136 168.12 
L 24.1512 167.4 
L 23.46 166.68 
" clip-path="url(#pfcab18a672)" style="fill: none; stroke: #000000; stroke-width: 2; stroke-linecap: round"/>
   </g>
   <g id="line2d_33">
    <path d="M 16.26 193.32 
L 29.8536 193.32 
" clip-path="url(#pfcab18a672)" style="fill: none; stroke: #000000; stroke-width: 2; stroke-linecap: round"/>
   </g>
   <g id="line2d_34">
    <path d="M 16.26 175.32 
L 29.8536 175.32 
" clip-path="url(#pfcab18a672)" style="fill: none; stroke: #000000; stroke-width: 2; stroke-linecap: round"/>
   </g>
   <g id="line2d_35">
    <path d="M 80.7 184.32 
L 84.66 184.32 
" clip-path="url(#pfcab18a672)" style="fill: none; stroke: #000000; stroke-width: 2; stroke-linecap: round"/>
   </g>
   <g id="line2d_36">
    <path d="M 88.26 166.32 
L 84.66 166.32 
L 84.66 184.32 
" clip-path="url(#pfcab18a672)" style="fill: none; stroke: #000000; stroke-width: 2; stroke-linecap: round"/>
   </g>
   <g id="line2d_37">
    <path d="M 160.26 112.32 
L 156.66 112.32 
L 156.66 157.32 
" clip-path="url(#pfcab18a672)" style="fill: none; stroke: #000000; stroke-width: 2; stroke-linecap: round"/>
   </g>
   <g id="text_1">
    <!-- $\text{Output}$ -->
    <g transform="translate(232.26 107.154688) scale(0.14 -0.14)">
     <defs>
      <path id="DejaVuSans-4f" d="M 2522 4238 
Q 1834 4238 1429 3725 
Q 1025 3213 1025 2328 
Q 1025 1447 1429 934 
Q 1834 422 2522 422 
Q 3209 422 3611 934 
Q 4013 1447 4013 2328 
Q 4013 3213 3611 3725 
Q 3209 4238 2522 4238 
z
M 2522 4750 
Q 3503 4750 4090 4092 
Q 4678 3434 4678 2328 
Q 4678 1225 4090 567 
Q 3503 -91 2522 -91 
Q 1538 -91 948 565 
Q 359 1222 359 2328 
Q 359 3434 948 4092 
Q 1538 4750 2522 4750 
z
" transform="scale(0.015625)"/>
      <path id="DejaVuSans-75" d="M 544 1381 
L 544 3500 
L 1119 3500 
L 1119 1403 
Q 1119 906 1312 657 
Q 1506 409 1894 409 
Q 2359 409 2629 706 
Q 2900 1003 2900 1516 
L 2900 3500 
L 3475 3500 
L 3475 0 
L 2900 0 
L 2900 538 
Q 2691 219 2414 64 
Q 2138 -91 1772 -91 
Q 1169 -91 856 284 
Q 544 659 544 1381 
z
M 1991 3584 
L 1991 3584 
z
" transform="scale(0.015625)"/>
      <path id="DejaVuSans-74" d="M 1172 4494 
L 1172 3500 
L 2356 3500 
L 2356 3053 
L 1172 3053 
L 1172 1153 
Q 1172 725 1289 603 
Q 1406 481 1766 481 
L 2356 481 
L 2356 0 
L 1766 0 
Q 1100 0 847 248 
Q 594 497 594 1153 
L 594 3053 
L 172 3053 
L 172 3500 
L 594 3500 
L 594 4494 
L 1172 4494 
z
" transform="scale(0.015625)"/>
      <path id="DejaVuSans-70" d="M 1159 525 
L 1159 -1331 
L 581 -1331 
L 581 3500 
L 1159 3500 
L 1159 2969 
Q 1341 3281 1617 3432 
Q 1894 3584 2278 3584 
Q 2916 3584 3314 3078 
Q 3713 2572 3713 1747 
Q 3713 922 3314 415 
Q 2916 -91 2278 -91 
Q 1894 -91 1617 61 
Q 1341 213 1159 525 
z
M 3116 1747 
Q 3116 2381 2855 2742 
Q 2594 3103 2138 3103 
Q 1681 3103 1420 2742 
Q 1159 2381 1159 1747 
Q 1159 1113 1420 752 
Q 1681 391 2138 391 
Q 2594 391 2855 752 
Q 3116 1113 3116 1747 
z
" transform="scale(0.015625)"/>
     </defs>
     <use xlink:href="#DejaVuSans-4f" transform="translate(0 0.78125)"/>
     <use xlink:href="#DejaVuSans-75" transform="translate(78.710938 0.78125)"/>
     <use xlink:href="#DejaVuSans-74" transform="translate(142.089844 0.78125)"/>
     <use xlink:href="#DejaVuSans-70" transform="translate(181.298828 0.78125)"/>
     <use xlink:href="#DejaVuSans-75" transform="translate(244.775391 0.78125)"/>
     <use xlink:href="#DejaVuSans-74" transform="translate(308.154297 0.78125)"/>
    </g>
   </g>
   <g id="text_2">
    <!-- b -->
    <g transform="translate(3.772188 17.183125) scale(0.14 -0.14)">
     <defs>
      <path id="DejaVuSans-62" d="M 3116 1747 
Q 3116 2381 2855 2742 
Q 2594 3103 2138 3103 
Q 1681 3103 1420 2742 
Q 1159 2381 1159 1747 
Q 1159 1113 1420 752 
Q 1681 391 2138 391 
Q 2594 391 2855 752 
Q 3116 1113 3116 1747 
z
M 1159 2969 
Q 1341 3281 1617 3432 
Q 1894 3584 2278 3584 
Q 2916 3584 3314 3078 
Q 3713 2572 3713 1747 
Q 3713 922 3314 415 
Q 2916 -91 2278 -91 
Q 1894 -91 1617 61 
Q 1341 213 1159 525 
L 1159 0 
L 581 0 
L 581 4863 
L 1159 4863 
L 1159 2969 
z
" transform="scale(0.015625)"/>
     </defs>
     <use xlink:href="#DejaVuSans-62"/>
    </g>
   </g>
   <g id="text_3">
    <!-- c -->
    <g transform="translate(4.962188 35.183125) scale(0.14 -0.14)">
     <defs>
      <path id="DejaVuSans-63" d="M 3122 3366 
L 3122 2828 
Q 2878 2963 2633 3030 
Q 2388 3097 2138 3097 
Q 1578 3097 1268 2742 
Q 959 2388 959 1747 
Q 959 1106 1268 751 
Q 1578 397 2138 397 
Q 2388 397 2633 464 
Q 2878 531 3122 666 
L 3122 134 
Q 2881 22 2623 -34 
Q 2366 -91 2075 -91 
Q 1284 -91 818 406 
Q 353 903 353 1747 
Q 353 2603 823 3093 
Q 1294 3584 2113 3584 
Q 2378 3584 2631 3529 
Q 2884 3475 3122 3366 
z
" transform="scale(0.015625)"/>
     </defs>
     <use xlink:href="#DejaVuSans-63"/>
    </g>
   </g>
   <g id="text_4">
    <!-- a -->
    <g transform="translate(4.080625 71.183125) scale(0.14 -0.14)">
     <defs>
      <path id="DejaVuSans-61" d="M 2194 1759 
Q 1497 1759 1228 1600 
Q 959 1441 959 1056 
Q 959 750 1161 570 
Q 1363 391 1709 391 
Q 2188 391 2477 730 
Q 2766 1069 2766 1631 
L 2766 1759 
L 2194 1759 
z
M 3341 1997 
L 3341 0 
L 2766 0 
L 2766 531 
Q 2569 213 2275 61 
Q 1981 -91 1556 -91 
Q 1019 -91 701 211 
Q 384 513 384 1019 
Q 384 1609 779 1909 
Q 1175 2209 1959 2209 
L 2766 2209 
L 2766 2266 
Q 2766 2663 2505 2880 
Q 2244 3097 1772 3097 
Q 1472 3097 1187 3025 
Q 903 2953 641 2809 
L 641 3341 
Q 956 3463 1253 3523 
Q 1550 3584 1831 3584 
Q 2591 3584 2966 3190 
Q 3341 2797 3341 1997 
z
" transform="scale(0.015625)"/>
     </defs>
     <use xlink:href="#DejaVuSans-61"/>
    </g>
   </g>
   <g id="text_5">
    <!-- a -->
    <g transform="translate(4.080625 89.183125) scale(0.14 -0.14)">
     <use xlink:href="#DejaVuSans-61"/>
    </g>
   </g>
   <g id="text_6">
    <!-- c -->
    <g transform="translate(4.962188 125.183125) scale(0.14 -0.14)">
     <use xlink:href="#DejaVuSans-63"/>
    </g>
   </g>
   <g id="text_7">
    <!-- c -->
    <g transform="translate(4.962188 143.183125) scale(0.14 -0.14)">
     <use xlink:href="#DejaVuSans-63"/>
    </g>
   </g>
   <g id="text_8">
    <!-- c -->
    <g transform="translate(4.962188 179.183125) scale(0.14 -0.14)">
     <use xlink:href="#DejaVuSans-63"/>
    </g>
   </g>
   <g id="text_9">
    <!-- c -->
    <g transform="translate(4.962188 197.183125) scale(0.14 -0.14)">
     <use xlink:href="#DejaVuSans-63"/>
    </g>
   </g>
  </g>
 </g>
 <defs>
  <clipPath id="pfcab18a672">
   <rect x="0" y="0" width="318.84" height="206.64"/>
  </clipPath>
 </defs>
</svg>
