<?xml version="1.0" encoding="utf-8" standalone="no"?>
<!DOCTYPE svg PUBLIC "-//W3C//DTD SVG 1.1//EN"
  "http://www.w3.org/Graphics/SVG/1.1/DTD/svg11.dtd">
<svg xmlns:xlink="http://www.w3.org/1999/xlink" width="174.84pt" height="44.64pt" viewBox="0 0 174.84 44.64" xmlns="http://www.w3.org/2000/svg" version="1.1">
 <metadata>
  <rdf:RDF xmlns:dc="http://purl.org/dc/elements/1.1/" xmlns:cc="http://creativecommons.org/ns#" xmlns:rdf="http://www.w3.org/1999/02/22-rdf-syntax-ns#">
   <cc:Work>
    <dc:type rdf:resource="http://purl.org/dc/dcmitype/StillImage"/>
    <dc:date>2024-08-14T09:22:27.288311</dc:date>
    <dc:format>image/svg+xml</dc:format>
    <dc:creator>
     <cc:Agent>
      <dc:title>Matplotlib v3.9.0, https://matplotlib.org/</dc:title>
     </cc:Agent>
    </dc:creator>
   </cc:Work>
  </rdf:RDF>
 </metadata>
 <defs>
  <style type="text/css">*{stroke-linejoin: round; stroke-linecap: butt}</style>
 </defs>
 <g id="figure_1">
  <g id="patch_1">
   <path d="M 0 44.64 
L 174.84 44.64 
L 174.84 0 
L 0 0 
L 0 44.64 
z
" style="fill: none"/>
  </g>
  <g id="axes_1">
   <g id="patch_2">
    <path d="M 76.38 26.64 
C 77.525677 26.64 78.624585 26.184818 79.434701 25.374701 
C 80.244818 24.564585 80.7 23.465677 80.7 22.32 
C 80.7 21.174323 80.244818 20.075415 79.434701 19.265299 
C 78.624585 18.455182 77.525677 18 76.38 18 
C 75.234323 18 74.135415 18.455182 73.325299 19.265299 
C 72.515182 20.075415 72.06 21.174323 72.06 22.32 
C 72.06 23.465677 72.515182 24.564585 73.325299 25.374701 
C 74.135415 26.184818 75.234323 26.64 76.38 26.64 
L 76.38 26.64 
z
" clip-path="url(#pfef6da0557)" style="fill: none; stroke: #000000; stroke-width: 2; stroke-linejoin: miter"/>
   </g>
   <g id="line2d_1">
    <path d="M 28.86 39.96 
L 48.402857 39.893878 
L 50.46 39.6 
L 52.517143 39.07102 
L 54.574286 38.306939 
L 56.631429 37.307755 
L 58.688571 36.073469 
L 60.745714 34.604082 
L 62.802857 32.899592 
L 65.374286 30.438367 
L 67.945714 27.609796 
L 70.517143 24.413878 
L 72.06 22.32 
L 72.06 22.32 
L 69.488571 18.903673 
L 66.917143 15.854694 
L 64.345714 13.173061 
L 61.774286 10.858776 
L 59.717143 9.271837 
L 57.66 7.92 
L 55.602857 6.803265 
L 53.545714 5.921633 
L 51.488571 5.275102 
L 49.431429 4.863673 
L 47.374286 4.687347 
L 46.86 4.68 
L 28.86 4.68 
L 28.86 4.68 
L 30.8472 6.84 
L 32.5752 9 
L 34.044 11.16 
L 35.2536 13.32 
L 36.204 15.48 
L 36.8952 17.64 
L 37.3272 19.8 
L 37.5 21.96 
L 37.4136 24.12 
L 37.068 26.28 
L 36.4632 28.44 
L 35.5992 30.6 
L 34.476 32.76 
L 33.0936 34.92 
L 31.452 37.08 
L 29.5512 39.24 
L 28.86 39.96 
L 28.86 39.96 
" clip-path="url(#pfef6da0557)" style="fill: none; stroke: #000000; stroke-width: 2; stroke-linecap: round"/>
   </g>
   <g id="line2d_2">
    <path d="M 16.26 31.32 
L 35.2536 31.32 
" clip-path="url(#pfef6da0557)" style="fill: none; stroke: #000000; stroke-width: 2; stroke-linecap: round"/>
   </g>
   <g id="line2d_3">
    <path d="M 16.26 13.32 
L 35.2536 13.32 
" clip-path="url(#pfef6da0557)" style="fill: none; stroke: #000000; stroke-width: 2; stroke-linecap: round"/>
   </g>
   <g id="line2d_4">
    <path d="M 80.7 22.32 
L 84.66 22.32 
" clip-path="url(#pfef6da0557)" style="fill: none; stroke: #000000; stroke-width: 2; stroke-linecap: round"/>
   </g>
   <g id="text_1">
    <!-- $\text{Output}$ -->
    <g transform="translate(88.26 26.154688) scale(0.14 -0.14)">
     <defs>
      <path id="DejaVuSans-4f" d="M 2522 4238 
Q 1834 4238 1429 3725 
Q 1025 3213 1025 2328 
Q 1025 1447 1429 934 
Q 1834 422 2522 422 
Q 3209 422 3611 934 
Q 4013 1447 4013 2328 
Q 4013 3213 3611 3725 
Q 3209 4238 2522 4238 
z
M 2522 4750 
Q 3503 4750 4090 4092 
Q 4678 3434 4678 2328 
Q 4678 1225 4090 567 
Q 3503 -91 2522 -91 
Q 1538 -91 948 565 
Q 359 1222 359 2328 
Q 359 3434 948 4092 
Q 1538 4750 2522 4750 
z
" transform="scale(0.015625)"/>
      <path id="DejaVuSans-75" d="M 544 1381 
L 544 3500 
L 1119 3500 
L 1119 1403 
Q 1119 906 1312 657 
Q 1506 409 1894 409 
Q 2359 409 2629 706 
Q 2900 1003 2900 1516 
L 2900 3500 
L 3475 3500 
L 3475 0 
L 2900 0 
L 2900 538 
Q 2691 219 2414 64 
Q 2138 -91 1772 -91 
Q 1169 -91 856 284 
Q 544 659 544 1381 
z
M 1991 3584 
L 1991 3584 
z
" transform="scale(0.015625)"/>
      <path id="DejaVuSans-74" d="M 1172 4494 
L 1172 3500 
L 2356 3500 
L 2356 3053 
L 1172 3053 
L 1172 1153 
Q 1172 725 1289 603 
Q 1406 481 1766 481 
L 2356 481 
L 2356 0 
L 1766 0 
Q 1100 0 847 248 
Q 594 497 594 1153 
L 594 3053 
L 172 3053 
L 172 3500 
L 594 3500 
L 594 4494 
L 1172 4494 
z
" transform="scale(0.015625)"/>
      <path id="DejaVuSans-70" d="M 1159 525 
L 1159 -1331 
L 581 -1331 
L 581 3500 
L 1159 3500 
L 1159 2969 
Q 1341 3281 1617 3432 
Q 1894 3584 2278 3584 
Q 2916 3584 3314 3078 
Q 3713 2572 3713 1747 
Q 3713 922 3314 415 
Q 2916 -91 2278 -91 
Q 1894 -91 1617 61 
Q 1341 213 1159 525 
z
M 3116 1747 
Q 3116 2381 2855 2742 
Q 2594 3103 2138 3103 
Q 1681 3103 1420 2742 
Q 1159 2381 1159 1747 
Q 1159 1113 1420 752 
Q 1681 391 2138 391 
Q 2594 391 2855 752 
Q 3116 1113 3116 1747 
z
" transform="scale(0.015625)"/>
     </defs>
     <use xlink:href="#DejaVuSans-4f" transform="translate(0 0.78125)"/>
     <use xlink:href="#DejaVuSans-75" transform="translate(78.710938 0.78125)"/>
     <use xlink:href="#DejaVuSans-74" transform="translate(142.089844 0.78125)"/>
     <use xlink:href="#DejaVuSans-70" transform="translate(181.298828 0.78125)"/>
     <use xlink:href="#DejaVuSans-75" transform="translate(244.775391 0.78125)"/>
     <use xlink:href="#DejaVuSans-74" transform="translate(308.154297 0.78125)"/>
    </g>
   </g>
   <g id="text_2">
    <!-- c -->
    <g transform="translate(4.962187 17.183125) scale(0.14 -0.14)">
     <defs>
      <path id="DejaVuSans-63" d="M 3122 3366 
L 3122 2828 
Q 2878 2963 2633 3030 
Q 2388 3097 2138 3097 
Q 1578 3097 1268 2742 
Q 959 2388 959 1747 
Q 959 1106 1268 751 
Q 1578 397 2138 397 
Q 2388 397 2633 464 
Q 2878 531 3122 666 
L 3122 134 
Q 2881 22 2623 -34 
Q 2366 -91 2075 -91 
Q 1284 -91 818 406 
Q 353 903 353 1747 
Q 353 2603 823 3093 
Q 1294 3584 2113 3584 
Q 2378 3584 2631 3529 
Q 2884 3475 3122 3366 
z
" transform="scale(0.015625)"/>
     </defs>
     <use xlink:href="#DejaVuSans-63"/>
    </g>
   </g>
   <g id="text_3">
    <!-- b -->
    <g transform="translate(3.772187 35.183125) scale(0.14 -0.14)">
     <defs>
      <path id="DejaVuSans-62" d="M 3116 1747 
Q 3116 2381 2855 2742 
Q 2594 3103 2138 3103 
Q 1681 3103 1420 2742 
Q 1159 2381 1159 1747 
Q 1159 1113 1420 752 
Q 1681 391 2138 391 
Q 2594 391 2855 752 
Q 3116 1113 3116 1747 
z
M 1159 2969 
Q 1341 3281 1617 3432 
Q 1894 3584 2278 3584 
Q 2916 3584 3314 3078 
Q 3713 2572 3713 1747 
Q 3713 922 3314 415 
Q 2916 -91 2278 -91 
Q 1894 -91 1617 61 
Q 1341 213 1159 525 
L 1159 0 
L 581 0 
L 581 4863 
L 1159 4863 
L 1159 2969 
z
" transform="scale(0.015625)"/>
     </defs>
     <use xlink:href="#DejaVuSans-62"/>
    </g>
   </g>
  </g>
 </g>
 <defs>
  <clipPath id="pfef6da0557">
   <rect x="0" y="0" width="174.84" height="44.64"/>
  </clipPath>
 </defs>
</svg>
