<?xml version="1.0" encoding="utf-8" standalone="no"?>
<!DOCTYPE svg PUBLIC "-//W3C//DTD SVG 1.1//EN"
  "http://www.w3.org/Graphics/SVG/1.1/DTD/svg11.dtd">
<svg xmlns:xlink="http://www.w3.org/1999/xlink" width="318.84pt" height="207.36pt" viewBox="0 0 318.84 207.36" xmlns="http://www.w3.org/2000/svg" version="1.1">
 <metadata>
  <rdf:RDF xmlns:dc="http://purl.org/dc/elements/1.1/" xmlns:cc="http://creativecommons.org/ns#" xmlns:rdf="http://www.w3.org/1999/02/22-rdf-syntax-ns#">
   <cc:Work>
    <dc:type rdf:resource="http://purl.org/dc/dcmitype/StillImage"/>
    <dc:date>2024-08-14T09:22:28.446256</dc:date>
    <dc:format>image/svg+xml</dc:format>
    <dc:creator>
     <cc:Agent>
      <dc:title>Matplotlib v3.9.0, https://matplotlib.org/</dc:title>
     </cc:Agent>
    </dc:creator>
   </cc:Work>
  </rdf:RDF>
 </metadata>
 <defs>
  <style type="text/css">*{stroke-linejoin: round; stroke-linecap: butt}</style>
 </defs>
 <g id="figure_1">
  <g id="patch_1">
   <path d="M 0 207.36 
L 318.84 207.36 
L 318.84 0 
L 0 0 
L 0 207.36 
z
" style="fill: none"/>
  </g>
  <g id="axes_1">
   <g id="patch_2">
    <path d="M 220.38 108 
C 221.525677 108 222.624585 107.544818 223.434701 106.734701 
C 224.244818 105.924585 224.7 104.825677 224.7 103.68 
C 224.7 102.534323 224.244818 101.435415 223.434701 100.625299 
C 222.624585 99.815182 221.525677 99.36 220.38 99.36 
C 219.234323 99.36 218.135415 99.815182 217.325299 100.625299 
C 216.515182 101.435415 216.06 102.534323 216.06 103.68 
C 216.06 104.825677 216.515182 105.924585 217.325299 106.734701 
C 218.135415 107.544818 219.234323 108 220.38 108 
L 220.38 108 
z
" clip-path="url(#p4281d56288)" style="fill: none; stroke: #000000; stroke-width: 2; stroke-linejoin: miter"/>
   </g>
   <g id="patch_3">
    <path d="M 148.38 54 
C 149.525677 54 150.624585 53.544818 151.434701 52.734701 
C 152.244818 51.924585 152.7 50.825677 152.7 49.68 
C 152.7 48.534323 152.244818 47.435415 151.434701 46.625299 
C 150.624585 45.815182 149.525677 45.36 148.38 45.36 
C 147.234323 45.36 146.135415 45.815182 145.325299 46.625299 
C 144.515182 47.435415 144.06 48.534323 144.06 49.68 
C 144.06 50.825677 144.515182 51.924585 145.325299 52.734701 
C 146.135415 53.544818 147.234323 54 148.38 54 
L 148.38 54 
z
" clip-path="url(#p4281d56288)" style="fill: none; stroke: #000000; stroke-width: 2; stroke-linejoin: miter"/>
   </g>
   <g id="patch_4">
    <path d="M 76.38 27 
C 77.525677 27 78.624585 26.544818 79.434701 25.734701 
C 80.244818 24.924585 80.7 23.825677 80.7 22.68 
C 80.7 21.534323 80.244818 20.435415 79.434701 19.625299 
C 78.624585 18.815182 77.525677 18.36 76.38 18.36 
C 75.234323 18.36 74.135415 18.815182 73.325299 19.625299 
C 72.515182 20.435415 72.06 21.534323 72.06 22.68 
C 72.06 23.825677 72.515182 24.924585 73.325299 25.734701 
C 74.135415 26.544818 75.234323 27 76.38 27 
L 76.38 27 
z
" clip-path="url(#p4281d56288)" style="fill: none; stroke: #000000; stroke-width: 2; stroke-linejoin: miter"/>
   </g>
   <g id="patch_5">
    <path d="M 76.38 81 
C 77.525677 81 78.624585 80.544818 79.434701 79.734701 
C 80.244818 78.924585 80.7 77.825677 80.7 76.68 
C 80.7 75.534323 80.244818 74.435415 79.434701 73.625299 
C 78.624585 72.815182 77.525677 72.36 76.38 72.36 
C 75.234323 72.36 74.135415 72.815182 73.325299 73.625299 
C 72.515182 74.435415 72.06 75.534323 72.06 76.68 
C 72.06 77.825677 72.515182 78.924585 73.325299 79.734701 
C 74.135415 80.544818 75.234323 81 76.38 81 
L 76.38 81 
z
" clip-path="url(#p4281d56288)" style="fill: none; stroke: #000000; stroke-width: 2; stroke-linejoin: miter"/>
   </g>
   <g id="patch_6">
    <path d="M 76.38 135 
C 77.525677 135 78.624585 134.544818 79.434701 133.734701 
C 80.244818 132.924585 80.7 131.825677 80.7 130.68 
C 80.7 129.534323 80.244818 128.435415 79.434701 127.625299 
C 78.624585 126.815182 77.525677 126.36 76.38 126.36 
C 75.234323 126.36 74.135415 126.815182 73.325299 127.625299 
C 72.515182 128.435415 72.06 129.534323 72.06 130.68 
C 72.06 131.825677 72.515182 132.924585 73.325299 133.734701 
C 74.135415 134.544818 75.234323 135 76.38 135 
L 76.38 135 
z
" clip-path="url(#p4281d56288)" style="fill: none; stroke: #000000; stroke-width: 2; stroke-linejoin: miter"/>
   </g>
   <g id="patch_7">
    <path d="M 76.38 189 
C 77.525677 189 78.624585 188.544818 79.434701 187.734701 
C 80.244818 186.924585 80.7 185.825677 80.7 184.68 
C 80.7 183.534323 80.244818 182.435415 79.434701 181.625299 
C 78.624585 180.815182 77.525677 180.36 76.38 180.36 
C 75.234323 180.36 74.135415 180.815182 73.325299 181.625299 
C 72.515182 182.435415 72.06 183.534323 72.06 184.68 
C 72.06 185.825677 72.515182 186.924585 73.325299 187.734701 
C 74.135415 188.544818 75.234323 189 76.38 189 
L 76.38 189 
z
" clip-path="url(#p4281d56288)" style="fill: none; stroke: #000000; stroke-width: 2; stroke-linejoin: miter"/>
   </g>
   <g id="line2d_1">
    <path d="M 172.86 121.32 
L 192.402857 121.253878 
L 194.46 120.96 
L 196.517143 120.43102 
L 198.574286 119.666939 
L 200.631429 118.667755 
L 202.688571 117.433469 
L 204.745714 115.964082 
L 206.802857 114.259592 
L 209.374286 111.798367 
L 211.945714 108.969796 
L 214.517143 105.773878 
L 216.06 103.68 
L 216.06 103.68 
L 213.488571 100.263673 
L 210.917143 97.214694 
L 208.345714 94.533061 
L 205.774286 92.218776 
L 203.717143 90.631837 
L 201.66 89.28 
L 199.602857 88.163265 
L 197.545714 87.281633 
L 195.488571 86.635102 
L 193.431429 86.223673 
L 191.374286 86.047347 
L 190.86 86.04 
L 172.86 86.04 
L 172.86 86.04 
L 174.8472 88.2 
L 176.5752 90.36 
L 178.044 92.52 
L 179.2536 94.68 
L 180.204 96.84 
L 180.8952 99 
L 181.3272 101.16 
L 181.5 103.32 
L 181.4136 105.48 
L 181.068 107.64 
L 180.4632 109.8 
L 179.5992 111.96 
L 178.476 114.12 
L 177.0936 116.28 
L 175.452 118.44 
L 173.5512 120.6 
L 172.86 121.32 
L 172.86 121.32 
" clip-path="url(#p4281d56288)" style="fill: none; stroke: #000000; stroke-width: 2; stroke-linecap: round"/>
   </g>
   <g id="line2d_2">
    <path d="M 160.26 112.68 
L 179.2536 112.68 
" clip-path="url(#p4281d56288)" style="fill: none; stroke: #000000; stroke-width: 2; stroke-linecap: round"/>
   </g>
   <g id="line2d_3">
    <path d="M 160.26 94.68 
L 179.2536 94.68 
" clip-path="url(#p4281d56288)" style="fill: none; stroke: #000000; stroke-width: 2; stroke-linecap: round"/>
   </g>
   <g id="line2d_4">
    <path d="M 224.7 103.68 
L 228.66 103.68 
" clip-path="url(#p4281d56288)" style="fill: none; stroke: #000000; stroke-width: 2; stroke-linecap: round"/>
   </g>
   <g id="line2d_5">
    <path d="M 126.06 67.68 
L 127.213264 67.643017 
L 128.361789 67.53222 
L 129.500855 67.348065 
L 130.625783 67.091308 
L 131.731948 66.763003 
L 132.814806 66.364502 
L 133.869907 65.89744 
L 134.892916 65.363737 
L 135.879628 64.765586 
L 136.82599 64.105445 
L 137.728111 63.386027 
L 138.582286 62.610288 
L 139.385004 61.781416 
L 140.132967 60.902816 
L 140.823101 59.9781 
L 141.45257 59.011066 
L 142.018788 58.005689 
L 142.519427 56.9661 
L 142.952432 55.896571 
L 143.316021 54.801497 
L 143.608702 53.685377 
L 143.829272 52.552798 
L 143.976824 51.408414 
L 144.050752 50.256928 
L 144.050752 49.103072 
L 143.976824 47.951586 
L 143.829272 46.807202 
L 143.608702 45.674623 
L 143.316021 44.558503 
L 142.952432 43.463429 
L 142.519427 42.3939 
L 142.018788 41.354311 
L 141.45257 40.348934 
L 140.823101 39.3819 
L 140.132967 38.457184 
L 139.385004 37.578584 
L 138.582286 36.749712 
L 137.728111 35.973973 
L 136.82599 35.254555 
L 135.879628 34.594414 
L 134.892916 33.996263 
L 133.869907 33.46256 
L 132.814806 32.995498 
L 131.731948 32.596997 
L 130.625783 32.268692 
L 129.500855 32.011935 
L 128.361789 31.82778 
L 127.213264 31.716983 
L 126.06 31.68 
L 126.06 31.68 
L 102.66 31.68 
L 102.66 49.68 
L 102.66 67.68 
L 126.06 67.68 
" clip-path="url(#p4281d56288)" style="fill: none; stroke: #000000; stroke-width: 2; stroke-linecap: round"/>
   </g>
   <g id="line2d_6">
    <path d="M 90.06 58.68 
L 102.66 58.68 
" clip-path="url(#p4281d56288)" style="fill: none; stroke: #000000; stroke-width: 2; stroke-linecap: round"/>
   </g>
   <g id="line2d_7">
    <path d="M 90.06 40.68 
L 102.66 40.68 
" clip-path="url(#p4281d56288)" style="fill: none; stroke: #000000; stroke-width: 2; stroke-linecap: round"/>
   </g>
   <g id="line2d_8">
    <path d="M 152.7 49.68 
L 156.66 49.68 
" clip-path="url(#p4281d56288)" style="fill: none; stroke: #000000; stroke-width: 2; stroke-linecap: round"/>
   </g>
   <g id="line2d_9">
    <path d="M 54.06 40.68 
L 55.213264 40.643017 
L 56.361789 40.53222 
L 57.500855 40.348065 
L 58.625783 40.091308 
L 59.731948 39.763003 
L 60.814806 39.364502 
L 61.869907 38.89744 
L 62.892916 38.363737 
L 63.879628 37.765586 
L 64.82599 37.105445 
L 65.728111 36.386027 
L 66.582286 35.610288 
L 67.385004 34.781416 
L 68.132967 33.902816 
L 68.823101 32.9781 
L 69.45257 32.011066 
L 70.018788 31.005689 
L 70.519427 29.9661 
L 70.952432 28.896571 
L 71.316021 27.801497 
L 71.608702 26.685377 
L 71.829272 25.552798 
L 71.976824 24.408414 
L 72.050752 23.256928 
L 72.050752 22.103072 
L 71.976824 20.951586 
L 71.829272 19.807202 
L 71.608702 18.674623 
L 71.316021 17.558503 
L 70.952432 16.463429 
L 70.519427 15.3939 
L 70.018788 14.354311 
L 69.45257 13.348934 
L 68.823101 12.3819 
L 68.132967 11.457184 
L 67.385004 10.578584 
L 66.582286 9.749712 
L 65.728111 8.973973 
L 64.82599 8.254555 
L 63.879628 7.594414 
L 62.892916 6.996263 
L 61.869907 6.46256 
L 60.814806 5.995498 
L 59.731948 5.596997 
L 58.625783 5.268692 
L 57.500855 5.011935 
L 56.361789 4.82778 
L 55.213264 4.716983 
L 54.06 4.68 
L 54.06 4.68 
L 30.66 4.68 
L 30.66 22.68 
L 30.66 40.68 
L 54.06 40.68 
" clip-path="url(#p4281d56288)" style="fill: none; stroke: #000000; stroke-width: 2; stroke-linecap: round"/>
   </g>
   <g id="line2d_10">
    <path d="M 18.06 31.68 
L 30.66 31.68 
" clip-path="url(#p4281d56288)" style="fill: none; stroke: #000000; stroke-width: 2; stroke-linecap: round"/>
   </g>
   <g id="line2d_11">
    <path d="M 18.06 13.68 
L 30.66 13.68 
" clip-path="url(#p4281d56288)" style="fill: none; stroke: #000000; stroke-width: 2; stroke-linecap: round"/>
   </g>
   <g id="line2d_12">
    <path d="M 80.7 22.68 
L 84.66 22.68 
" clip-path="url(#p4281d56288)" style="fill: none; stroke: #000000; stroke-width: 2; stroke-linecap: round"/>
   </g>
   <g id="line2d_13">
    <path d="M 90.06 40.68 
L 84.66 40.68 
L 84.66 22.68 
" clip-path="url(#p4281d56288)" style="fill: none; stroke: #000000; stroke-width: 2; stroke-linecap: round"/>
   </g>
   <g id="line2d_14">
    <path d="M 28.86 94.32 
L 48.402857 94.253878 
L 50.46 93.96 
L 52.517143 93.43102 
L 54.574286 92.666939 
L 56.631429 91.667755 
L 58.688571 90.433469 
L 60.745714 88.964082 
L 62.802857 87.259592 
L 65.374286 84.798367 
L 67.945714 81.969796 
L 70.517143 78.773878 
L 72.06 76.68 
L 72.06 76.68 
L 69.488571 73.263673 
L 66.917143 70.214694 
L 64.345714 67.533061 
L 61.774286 65.218776 
L 59.717143 63.631837 
L 57.66 62.28 
L 55.602857 61.163265 
L 53.545714 60.281633 
L 51.488571 59.635102 
L 49.431429 59.223673 
L 47.374286 59.047347 
L 46.86 59.04 
L 28.86 59.04 
L 28.86 59.04 
L 30.8472 61.2 
L 32.5752 63.36 
L 34.044 65.52 
L 35.2536 67.68 
L 36.204 69.84 
L 36.8952 72 
L 37.3272 74.16 
L 37.5 76.32 
L 37.4136 78.48 
L 37.068 80.64 
L 36.4632 82.8 
L 35.5992 84.96 
L 34.476 87.12 
L 33.0936 89.28 
L 31.452 91.44 
L 29.5512 93.6 
L 28.86 94.32 
L 28.86 94.32 
" clip-path="url(#p4281d56288)" style="fill: none; stroke: #000000; stroke-width: 2; stroke-linecap: round"/>
   </g>
   <g id="line2d_15">
    <path d="M 23.46 94.32 
L 24.1512 93.6 
L 24.8136 92.88 
L 25.4472 92.16 
L 26.052 91.44 
L 26.628 90.72 
L 27.1752 90 
L 27.6936 89.28 
L 28.1832 88.56 
L 28.644 87.84 
L 29.076 87.12 
L 29.4792 86.4 
L 29.8536 85.68 
L 30.1992 84.96 
L 30.516 84.24 
L 30.804 83.52 
L 31.0632 82.8 
L 31.2936 82.08 
L 31.4952 81.36 
L 31.668 80.64 
L 31.812 79.92 
L 31.9272 79.2 
L 32.0136 78.48 
L 32.0712 77.76 
L 32.1 77.04 
L 32.1 76.32 
L 32.0712 75.6 
L 32.0136 74.88 
L 31.9272 74.16 
L 31.812 73.44 
L 31.668 72.72 
L 31.4952 72 
L 31.2936 71.28 
L 31.0632 70.56 
L 30.804 69.84 
L 30.516 69.12 
L 30.1992 68.4 
L 29.8536 67.68 
L 29.4792 66.96 
L 29.076 66.24 
L 28.644 65.52 
L 28.1832 64.8 
L 27.6936 64.08 
L 27.1752 63.36 
L 26.628 62.64 
L 26.052 61.92 
L 25.4472 61.2 
L 24.8136 60.48 
L 24.1512 59.76 
L 23.46 59.04 
" clip-path="url(#p4281d56288)" style="fill: none; stroke: #000000; stroke-width: 2; stroke-linecap: round"/>
   </g>
   <g id="line2d_16">
    <path d="M 16.26 85.68 
L 29.8536 85.68 
" clip-path="url(#p4281d56288)" style="fill: none; stroke: #000000; stroke-width: 2; stroke-linecap: round"/>
   </g>
   <g id="line2d_17">
    <path d="M 16.26 67.68 
L 29.8536 67.68 
" clip-path="url(#p4281d56288)" style="fill: none; stroke: #000000; stroke-width: 2; stroke-linecap: round"/>
   </g>
   <g id="line2d_18">
    <path d="M 80.7 76.68 
L 84.66 76.68 
" clip-path="url(#p4281d56288)" style="fill: none; stroke: #000000; stroke-width: 2; stroke-linecap: round"/>
   </g>
   <g id="line2d_19">
    <path d="M 90.06 58.68 
L 84.66 58.68 
L 84.66 76.68 
" clip-path="url(#p4281d56288)" style="fill: none; stroke: #000000; stroke-width: 2; stroke-linecap: round"/>
   </g>
   <g id="line2d_20">
    <path d="M 160.26 94.68 
L 156.66 94.68 
L 156.66 49.68 
" clip-path="url(#p4281d56288)" style="fill: none; stroke: #000000; stroke-width: 2; stroke-linecap: round"/>
   </g>
   <g id="line2d_21">
    <path d="M 126.06 175.68 
L 127.213264 175.643017 
L 128.361789 175.53222 
L 129.500855 175.348065 
L 130.625783 175.091308 
L 131.731948 174.763003 
L 132.814806 174.364502 
L 133.869907 173.89744 
L 134.892916 173.363737 
L 135.879628 172.765586 
L 136.82599 172.105445 
L 137.728111 171.386027 
L 138.582286 170.610288 
L 139.385004 169.781416 
L 140.132967 168.902816 
L 140.823101 167.9781 
L 141.45257 167.011066 
L 142.018788 166.005689 
L 142.519427 164.9661 
L 142.952432 163.896571 
L 143.316021 162.801497 
L 143.608702 161.685377 
L 143.829272 160.552798 
L 143.976824 159.408414 
L 144.050752 158.256928 
L 144.050752 157.103072 
L 143.976824 155.951586 
L 143.829272 154.807202 
L 143.608702 153.674623 
L 143.316021 152.558503 
L 142.952432 151.463429 
L 142.519427 150.3939 
L 142.018788 149.354311 
L 141.45257 148.348934 
L 140.823101 147.3819 
L 140.132967 146.457184 
L 139.385004 145.578584 
L 138.582286 144.749712 
L 137.728111 143.973973 
L 136.82599 143.254555 
L 135.879628 142.594414 
L 134.892916 141.996263 
L 133.869907 141.46256 
L 132.814806 140.995498 
L 131.731948 140.596997 
L 130.625783 140.268692 
L 129.500855 140.011935 
L 128.361789 139.82778 
L 127.213264 139.716983 
L 126.06 139.68 
L 126.06 139.68 
L 102.66 139.68 
L 102.66 157.68 
L 102.66 175.68 
L 126.06 175.68 
" clip-path="url(#p4281d56288)" style="fill: none; stroke: #000000; stroke-width: 2; stroke-linecap: round"/>
   </g>
   <g id="line2d_22">
    <path d="M 90.06 166.68 
L 102.66 166.68 
" clip-path="url(#p4281d56288)" style="fill: none; stroke: #000000; stroke-width: 2; stroke-linecap: round"/>
   </g>
   <g id="line2d_23">
    <path d="M 90.06 148.68 
L 102.66 148.68 
" clip-path="url(#p4281d56288)" style="fill: none; stroke: #000000; stroke-width: 2; stroke-linecap: round"/>
   </g>
   <g id="line2d_24">
    <path d="M 144.06 157.68 
L 156.66 157.68 
" clip-path="url(#p4281d56288)" style="fill: none; stroke: #000000; stroke-width: 2; stroke-linecap: round"/>
   </g>
   <g id="line2d_25">
    <path d="M 54.06 148.68 
L 55.213264 148.643017 
L 56.361789 148.53222 
L 57.500855 148.348065 
L 58.625783 148.091308 
L 59.731948 147.763003 
L 60.814806 147.364502 
L 61.869907 146.89744 
L 62.892916 146.363737 
L 63.879628 145.765586 
L 64.82599 145.105445 
L 65.728111 144.386027 
L 66.582286 143.610288 
L 67.385004 142.781416 
L 68.132967 141.902816 
L 68.823101 140.9781 
L 69.45257 140.011066 
L 70.018788 139.005689 
L 70.519427 137.9661 
L 70.952432 136.896571 
L 71.316021 135.801497 
L 71.608702 134.685377 
L 71.829272 133.552798 
L 71.976824 132.408414 
L 72.050752 131.256928 
L 72.050752 130.103072 
L 71.976824 128.951586 
L 71.829272 127.807202 
L 71.608702 126.674623 
L 71.316021 125.558503 
L 70.952432 124.463429 
L 70.519427 123.3939 
L 70.018788 122.354311 
L 69.45257 121.348934 
L 68.823101 120.3819 
L 68.132967 119.457184 
L 67.385004 118.578584 
L 66.582286 117.749712 
L 65.728111 116.973973 
L 64.82599 116.254555 
L 63.879628 115.594414 
L 62.892916 114.996263 
L 61.869907 114.46256 
L 60.814806 113.995498 
L 59.731948 113.596997 
L 58.625783 113.268692 
L 57.500855 113.011935 
L 56.361789 112.82778 
L 55.213264 112.716983 
L 54.06 112.68 
L 54.06 112.68 
L 30.66 112.68 
L 30.66 130.68 
L 30.66 148.68 
L 54.06 148.68 
" clip-path="url(#p4281d56288)" style="fill: none; stroke: #000000; stroke-width: 2; stroke-linecap: round"/>
   </g>
   <g id="line2d_26">
    <path d="M 18.06 139.68 
L 30.66 139.68 
" clip-path="url(#p4281d56288)" style="fill: none; stroke: #000000; stroke-width: 2; stroke-linecap: round"/>
   </g>
   <g id="line2d_27">
    <path d="M 18.06 121.68 
L 30.66 121.68 
" clip-path="url(#p4281d56288)" style="fill: none; stroke: #000000; stroke-width: 2; stroke-linecap: round"/>
   </g>
   <g id="line2d_28">
    <path d="M 80.7 130.68 
L 84.66 130.68 
" clip-path="url(#p4281d56288)" style="fill: none; stroke: #000000; stroke-width: 2; stroke-linecap: round"/>
   </g>
   <g id="line2d_29">
    <path d="M 90.06 148.68 
L 84.66 148.68 
L 84.66 130.68 
" clip-path="url(#p4281d56288)" style="fill: none; stroke: #000000; stroke-width: 2; stroke-linecap: round"/>
   </g>
   <g id="line2d_30">
    <path d="M 54.06 202.68 
L 55.213264 202.643017 
L 56.361789 202.53222 
L 57.500855 202.348065 
L 58.625783 202.091308 
L 59.731948 201.763003 
L 60.814806 201.364502 
L 61.869907 200.89744 
L 62.892916 200.363737 
L 63.879628 199.765586 
L 64.82599 199.105445 
L 65.728111 198.386027 
L 66.582286 197.610288 
L 67.385004 196.781416 
L 68.132967 195.902816 
L 68.823101 194.9781 
L 69.45257 194.011066 
L 70.018788 193.005689 
L 70.519427 191.9661 
L 70.952432 190.896571 
L 71.316021 189.801497 
L 71.608702 188.685377 
L 71.829272 187.552798 
L 71.976824 186.408414 
L 72.050752 185.256928 
L 72.050752 184.103072 
L 71.976824 182.951586 
L 71.829272 181.807202 
L 71.608702 180.674623 
L 71.316021 179.558503 
L 70.952432 178.463429 
L 70.519427 177.3939 
L 70.018788 176.354311 
L 69.45257 175.348934 
L 68.823101 174.3819 
L 68.132967 173.457184 
L 67.385004 172.578584 
L 66.582286 171.749712 
L 65.728111 170.973973 
L 64.82599 170.254555 
L 63.879628 169.594414 
L 62.892916 168.996263 
L 61.869907 168.46256 
L 60.814806 167.995498 
L 59.731948 167.596997 
L 58.625783 167.268692 
L 57.500855 167.011935 
L 56.361789 166.82778 
L 55.213264 166.716983 
L 54.06 166.68 
L 54.06 166.68 
L 30.66 166.68 
L 30.66 184.68 
L 30.66 202.68 
L 54.06 202.68 
" clip-path="url(#p4281d56288)" style="fill: none; stroke: #000000; stroke-width: 2; stroke-linecap: round"/>
   </g>
   <g id="line2d_31">
    <path d="M 18.06 193.68 
L 30.66 193.68 
" clip-path="url(#p4281d56288)" style="fill: none; stroke: #000000; stroke-width: 2; stroke-linecap: round"/>
   </g>
   <g id="line2d_32">
    <path d="M 18.06 175.68 
L 30.66 175.68 
" clip-path="url(#p4281d56288)" style="fill: none; stroke: #000000; stroke-width: 2; stroke-linecap: round"/>
   </g>
   <g id="line2d_33">
    <path d="M 80.7 184.68 
L 84.66 184.68 
" clip-path="url(#p4281d56288)" style="fill: none; stroke: #000000; stroke-width: 2; stroke-linecap: round"/>
   </g>
   <g id="line2d_34">
    <path d="M 90.06 166.68 
L 84.66 166.68 
L 84.66 184.68 
" clip-path="url(#p4281d56288)" style="fill: none; stroke: #000000; stroke-width: 2; stroke-linecap: round"/>
   </g>
   <g id="line2d_35">
    <path d="M 160.26 112.68 
L 156.66 112.68 
L 156.66 157.68 
" clip-path="url(#p4281d56288)" style="fill: none; stroke: #000000; stroke-width: 2; stroke-linecap: round"/>
   </g>
   <g id="text_1">
    <!-- $\text{Output}$ -->
    <g transform="translate(232.26 107.514687) scale(0.14 -0.14)">
     <defs>
      <path id="DejaVuSans-4f" d="M 2522 4238 
Q 1834 4238 1429 3725 
Q 1025 3213 1025 2328 
Q 1025 1447 1429 934 
Q 1834 422 2522 422 
Q 3209 422 3611 934 
Q 4013 1447 4013 2328 
Q 4013 3213 3611 3725 
Q 3209 4238 2522 4238 
z
M 2522 4750 
Q 3503 4750 4090 4092 
Q 4678 3434 4678 2328 
Q 4678 1225 4090 567 
Q 3503 -91 2522 -91 
Q 1538 -91 948 565 
Q 359 1222 359 2328 
Q 359 3434 948 4092 
Q 1538 4750 2522 4750 
z
" transform="scale(0.015625)"/>
      <path id="DejaVuSans-75" d="M 544 1381 
L 544 3500 
L 1119 3500 
L 1119 1403 
Q 1119 906 1312 657 
Q 1506 409 1894 409 
Q 2359 409 2629 706 
Q 2900 1003 2900 1516 
L 2900 3500 
L 3475 3500 
L 3475 0 
L 2900 0 
L 2900 538 
Q 2691 219 2414 64 
Q 2138 -91 1772 -91 
Q 1169 -91 856 284 
Q 544 659 544 1381 
z
M 1991 3584 
L 1991 3584 
z
" transform="scale(0.015625)"/>
      <path id="DejaVuSans-74" d="M 1172 4494 
L 1172 3500 
L 2356 3500 
L 2356 3053 
L 1172 3053 
L 1172 1153 
Q 1172 725 1289 603 
Q 1406 481 1766 481 
L 2356 481 
L 2356 0 
L 1766 0 
Q 1100 0 847 248 
Q 594 497 594 1153 
L 594 3053 
L 172 3053 
L 172 3500 
L 594 3500 
L 594 4494 
L 1172 4494 
z
" transform="scale(0.015625)"/>
      <path id="DejaVuSans-70" d="M 1159 525 
L 1159 -1331 
L 581 -1331 
L 581 3500 
L 1159 3500 
L 1159 2969 
Q 1341 3281 1617 3432 
Q 1894 3584 2278 3584 
Q 2916 3584 3314 3078 
Q 3713 2572 3713 1747 
Q 3713 922 3314 415 
Q 2916 -91 2278 -91 
Q 1894 -91 1617 61 
Q 1341 213 1159 525 
z
M 3116 1747 
Q 3116 2381 2855 2742 
Q 2594 3103 2138 3103 
Q 1681 3103 1420 2742 
Q 1159 2381 1159 1747 
Q 1159 1113 1420 752 
Q 1681 391 2138 391 
Q 2594 391 2855 752 
Q 3116 1113 3116 1747 
z
" transform="scale(0.015625)"/>
     </defs>
     <use xlink:href="#DejaVuSans-4f" transform="translate(0 0.78125)"/>
     <use xlink:href="#DejaVuSans-75" transform="translate(78.710938 0.78125)"/>
     <use xlink:href="#DejaVuSans-74" transform="translate(142.089844 0.78125)"/>
     <use xlink:href="#DejaVuSans-70" transform="translate(181.298828 0.78125)"/>
     <use xlink:href="#DejaVuSans-75" transform="translate(244.775391 0.78125)"/>
     <use xlink:href="#DejaVuSans-74" transform="translate(308.154297 0.78125)"/>
    </g>
   </g>
   <g id="text_2">
    <!-- c -->
    <g transform="translate(6.762187 17.543125) scale(0.14 -0.14)">
     <defs>
      <path id="DejaVuSans-63" d="M 3122 3366 
L 3122 2828 
Q 2878 2963 2633 3030 
Q 2388 3097 2138 3097 
Q 1578 3097 1268 2742 
Q 959 2388 959 1747 
Q 959 1106 1268 751 
Q 1578 397 2138 397 
Q 2388 397 2633 464 
Q 2878 531 3122 666 
L 3122 134 
Q 2881 22 2623 -34 
Q 2366 -91 2075 -91 
Q 1284 -91 818 406 
Q 353 903 353 1747 
Q 353 2603 823 3093 
Q 1294 3584 2113 3584 
Q 2378 3584 2631 3529 
Q 2884 3475 3122 3366 
z
" transform="scale(0.015625)"/>
     </defs>
     <use xlink:href="#DejaVuSans-63"/>
    </g>
   </g>
   <g id="text_3">
    <!-- c -->
    <g transform="translate(6.762187 35.543125) scale(0.14 -0.14)">
     <use xlink:href="#DejaVuSans-63"/>
    </g>
   </g>
   <g id="text_4">
    <!-- c -->
    <g transform="translate(4.962187 71.543125) scale(0.14 -0.14)">
     <use xlink:href="#DejaVuSans-63"/>
    </g>
   </g>
   <g id="text_5">
    <!-- a -->
    <g transform="translate(4.080625 89.543125) scale(0.14 -0.14)">
     <defs>
      <path id="DejaVuSans-61" d="M 2194 1759 
Q 1497 1759 1228 1600 
Q 959 1441 959 1056 
Q 959 750 1161 570 
Q 1363 391 1709 391 
Q 2188 391 2477 730 
Q 2766 1069 2766 1631 
L 2766 1759 
L 2194 1759 
z
M 3341 1997 
L 3341 0 
L 2766 0 
L 2766 531 
Q 2569 213 2275 61 
Q 1981 -91 1556 -91 
Q 1019 -91 701 211 
Q 384 513 384 1019 
Q 384 1609 779 1909 
Q 1175 2209 1959 2209 
L 2766 2209 
L 2766 2266 
Q 2766 2663 2505 2880 
Q 2244 3097 1772 3097 
Q 1472 3097 1187 3025 
Q 903 2953 641 2809 
L 641 3341 
Q 956 3463 1253 3523 
Q 1550 3584 1831 3584 
Q 2591 3584 2966 3190 
Q 3341 2797 3341 1997 
z
" transform="scale(0.015625)"/>
     </defs>
     <use xlink:href="#DejaVuSans-61"/>
    </g>
   </g>
   <g id="text_6">
    <!-- b -->
    <g transform="translate(5.572187 125.543125) scale(0.14 -0.14)">
     <defs>
      <path id="DejaVuSans-62" d="M 3116 1747 
Q 3116 2381 2855 2742 
Q 2594 3103 2138 3103 
Q 1681 3103 1420 2742 
Q 1159 2381 1159 1747 
Q 1159 1113 1420 752 
Q 1681 391 2138 391 
Q 2594 391 2855 752 
Q 3116 1113 3116 1747 
z
M 1159 2969 
Q 1341 3281 1617 3432 
Q 1894 3584 2278 3584 
Q 2916 3584 3314 3078 
Q 3713 2572 3713 1747 
Q 3713 922 3314 415 
Q 2916 -91 2278 -91 
Q 1894 -91 1617 61 
Q 1341 213 1159 525 
L 1159 0 
L 581 0 
L 581 4863 
L 1159 4863 
L 1159 2969 
z
" transform="scale(0.015625)"/>
     </defs>
     <use xlink:href="#DejaVuSans-62"/>
    </g>
   </g>
   <g id="text_7">
    <!-- b -->
    <g transform="translate(5.572187 143.543125) scale(0.14 -0.14)">
     <use xlink:href="#DejaVuSans-62"/>
    </g>
   </g>
   <g id="text_8">
    <!-- b -->
    <g transform="translate(5.572187 179.543125) scale(0.14 -0.14)">
     <use xlink:href="#DejaVuSans-62"/>
    </g>
   </g>
   <g id="text_9">
    <!-- b -->
    <g transform="translate(5.572187 197.543125) scale(0.14 -0.14)">
     <use xlink:href="#DejaVuSans-62"/>
    </g>
   </g>
  </g>
 </g>
 <defs>
  <clipPath id="p4281d56288">
   <rect x="0" y="-0" width="318.84" height="207.36"/>
  </clipPath>
 </defs>
</svg>
