<?xml version="1.0" encoding="utf-8" standalone="no"?>
<!DOCTYPE svg PUBLIC "-//W3C//DTD SVG 1.1//EN"
  "http://www.w3.org/Graphics/SVG/1.1/DTD/svg11.dtd">
<svg xmlns:xlink="http://www.w3.org/1999/xlink" width="246.84pt" height="98.64pt" viewBox="0 0 246.84 98.64" xmlns="http://www.w3.org/2000/svg" version="1.1">
 <metadata>
  <rdf:RDF xmlns:dc="http://purl.org/dc/elements/1.1/" xmlns:cc="http://creativecommons.org/ns#" xmlns:rdf="http://www.w3.org/1999/02/22-rdf-syntax-ns#">
   <cc:Work>
    <dc:type rdf:resource="http://purl.org/dc/dcmitype/StillImage"/>
    <dc:date>2024-08-14T09:22:30.065772</dc:date>
    <dc:format>image/svg+xml</dc:format>
    <dc:creator>
     <cc:Agent>
      <dc:title>Matplotlib v3.9.0, https://matplotlib.org/</dc:title>
     </cc:Agent>
    </dc:creator>
   </cc:Work>
  </rdf:RDF>
 </metadata>
 <defs>
  <style type="text/css">*{stroke-linejoin: round; stroke-linecap: butt}</style>
 </defs>
 <g id="figure_1">
  <g id="patch_1">
   <path d="M 0 98.64 
L 246.84 98.64 
L 246.84 0 
L 0 0 
L 0 98.64 
z
" style="fill: none"/>
  </g>
  <g id="axes_1">
   <g id="patch_2">
    <path d="M 148.38 53.64 
C 149.525677 53.64 150.624585 53.184818 151.434701 52.374701 
C 152.244818 51.564585 152.7 50.465677 152.7 49.32 
C 152.7 48.174323 152.244818 47.075415 151.434701 46.265299 
C 150.624585 45.455182 149.525677 45 148.38 45 
C 147.234323 45 146.135415 45.455182 145.325299 46.265299 
C 144.515182 47.075415 144.06 48.174323 144.06 49.32 
C 144.06 50.465677 144.515182 51.564585 145.325299 52.374701 
C 146.135415 53.184818 147.234323 53.64 148.38 53.64 
L 148.38 53.64 
z
" clip-path="url(#pe433f09824)" style="fill: none; stroke: #000000; stroke-width: 2; stroke-linejoin: miter"/>
   </g>
   <g id="line2d_1">
    <path d="M 100.86 66.96 
L 120.402857 66.893878 
L 122.46 66.6 
L 124.517143 66.07102 
L 126.574286 65.306939 
L 128.631429 64.307755 
L 130.688571 63.073469 
L 132.745714 61.604082 
L 134.802857 59.899592 
L 137.374286 57.438367 
L 139.945714 54.609796 
L 142.517143 51.413878 
L 144.06 49.32 
L 144.06 49.32 
L 141.488571 45.903673 
L 138.917143 42.854694 
L 136.345714 40.173061 
L 133.774286 37.858776 
L 131.717143 36.271837 
L 129.66 34.92 
L 127.602857 33.803265 
L 125.545714 32.921633 
L 123.488571 32.275102 
L 121.431429 31.863673 
L 119.374286 31.687347 
L 118.86 31.68 
L 100.86 31.68 
L 100.86 31.68 
L 102.8472 33.84 
L 104.5752 36 
L 106.044 38.16 
L 107.2536 40.32 
L 108.204 42.48 
L 108.8952 44.64 
L 109.3272 46.8 
L 109.5 48.96 
L 109.4136 51.12 
L 109.068 53.28 
L 108.4632 55.44 
L 107.5992 57.6 
L 106.476 59.76 
L 105.0936 61.92 
L 103.452 64.08 
L 101.5512 66.24 
L 100.86 66.96 
L 100.86 66.96 
" clip-path="url(#pe433f09824)" style="fill: none; stroke: #000000; stroke-width: 2; stroke-linecap: round"/>
   </g>
   <g id="line2d_2">
    <path d="M 88.26 58.32 
L 107.2536 58.32 
" clip-path="url(#pe433f09824)" style="fill: none; stroke: #000000; stroke-width: 2; stroke-linecap: round"/>
   </g>
   <g id="line2d_3">
    <path d="M 88.26 40.32 
L 107.2536 40.32 
" clip-path="url(#pe433f09824)" style="fill: none; stroke: #000000; stroke-width: 2; stroke-linecap: round"/>
   </g>
   <g id="line2d_4">
    <path d="M 152.7 49.32 
L 156.66 49.32 
" clip-path="url(#pe433f09824)" style="fill: none; stroke: #000000; stroke-width: 2; stroke-linecap: round"/>
   </g>
   <g id="line2d_5">
    <path d="M 28.86 39.96 
L 48.402857 39.893878 
L 50.46 39.6 
L 52.517143 39.07102 
L 54.574286 38.306939 
L 56.631429 37.307755 
L 58.688571 36.073469 
L 60.745714 34.604082 
L 62.802857 32.899592 
L 65.374286 30.438367 
L 67.945714 27.609796 
L 70.517143 24.413878 
L 72.06 22.32 
L 72.06 22.32 
L 69.488571 18.903673 
L 66.917143 15.854694 
L 64.345714 13.173061 
L 61.774286 10.858776 
L 59.717143 9.271837 
L 57.66 7.92 
L 55.602857 6.803265 
L 53.545714 5.921633 
L 51.488571 5.275102 
L 49.431429 4.863673 
L 47.374286 4.687347 
L 46.86 4.68 
L 28.86 4.68 
L 28.86 4.68 
L 30.8472 6.84 
L 32.5752 9 
L 34.044 11.16 
L 35.2536 13.32 
L 36.204 15.48 
L 36.8952 17.64 
L 37.3272 19.8 
L 37.5 21.96 
L 37.4136 24.12 
L 37.068 26.28 
L 36.4632 28.44 
L 35.5992 30.6 
L 34.476 32.76 
L 33.0936 34.92 
L 31.452 37.08 
L 29.5512 39.24 
L 28.86 39.96 
L 28.86 39.96 
" clip-path="url(#pe433f09824)" style="fill: none; stroke: #000000; stroke-width: 2; stroke-linecap: round"/>
   </g>
   <g id="line2d_6">
    <path d="M 16.26 31.32 
L 35.2536 31.32 
" clip-path="url(#pe433f09824)" style="fill: none; stroke: #000000; stroke-width: 2; stroke-linecap: round"/>
   </g>
   <g id="line2d_7">
    <path d="M 16.26 13.32 
L 35.2536 13.32 
" clip-path="url(#pe433f09824)" style="fill: none; stroke: #000000; stroke-width: 2; stroke-linecap: round"/>
   </g>
   <g id="line2d_8">
    <path d="M 72.06 22.32 
L 84.66 22.32 
" clip-path="url(#pe433f09824)" style="fill: none; stroke: #000000; stroke-width: 2; stroke-linecap: round"/>
   </g>
   <g id="line2d_9">
    <path d="M 88.26 40.32 
L 84.66 40.32 
L 84.66 22.32 
" clip-path="url(#pe433f09824)" style="fill: none; stroke: #000000; stroke-width: 2; stroke-linecap: round"/>
   </g>
   <g id="line2d_10">
    <path d="M 28.86 93.96 
L 48.402857 93.893878 
L 50.46 93.6 
L 52.517143 93.07102 
L 54.574286 92.306939 
L 56.631429 91.307755 
L 58.688571 90.073469 
L 60.745714 88.604082 
L 62.802857 86.899592 
L 65.374286 84.438367 
L 67.945714 81.609796 
L 70.517143 78.413878 
L 72.06 76.32 
L 72.06 76.32 
L 69.488571 72.903673 
L 66.917143 69.854694 
L 64.345714 67.173061 
L 61.774286 64.858776 
L 59.717143 63.271837 
L 57.66 61.92 
L 55.602857 60.803265 
L 53.545714 59.921633 
L 51.488571 59.275102 
L 49.431429 58.863673 
L 47.374286 58.687347 
L 46.86 58.68 
L 28.86 58.68 
L 28.86 58.68 
L 30.8472 60.84 
L 32.5752 63 
L 34.044 65.16 
L 35.2536 67.32 
L 36.204 69.48 
L 36.8952 71.64 
L 37.3272 73.8 
L 37.5 75.96 
L 37.4136 78.12 
L 37.068 80.28 
L 36.4632 82.44 
L 35.5992 84.6 
L 34.476 86.76 
L 33.0936 88.92 
L 31.452 91.08 
L 29.5512 93.24 
L 28.86 93.96 
L 28.86 93.96 
" clip-path="url(#pe433f09824)" style="fill: none; stroke: #000000; stroke-width: 2; stroke-linecap: round"/>
   </g>
   <g id="line2d_11">
    <path d="M 23.46 93.96 
L 24.1512 93.24 
L 24.8136 92.52 
L 25.4472 91.8 
L 26.052 91.08 
L 26.628 90.36 
L 27.1752 89.64 
L 27.6936 88.92 
L 28.1832 88.2 
L 28.644 87.48 
L 29.076 86.76 
L 29.4792 86.04 
L 29.8536 85.32 
L 30.1992 84.6 
L 30.516 83.88 
L 30.804 83.16 
L 31.0632 82.44 
L 31.2936 81.72 
L 31.4952 81 
L 31.668 80.28 
L 31.812 79.56 
L 31.9272 78.84 
L 32.0136 78.12 
L 32.0712 77.4 
L 32.1 76.68 
L 32.1 75.96 
L 32.0712 75.24 
L 32.0136 74.52 
L 31.9272 73.8 
L 31.812 73.08 
L 31.668 72.36 
L 31.4952 71.64 
L 31.2936 70.92 
L 31.0632 70.2 
L 30.804 69.48 
L 30.516 68.76 
L 30.1992 68.04 
L 29.8536 67.32 
L 29.4792 66.6 
L 29.076 65.88 
L 28.644 65.16 
L 28.1832 64.44 
L 27.6936 63.72 
L 27.1752 63 
L 26.628 62.28 
L 26.052 61.56 
L 25.4472 60.84 
L 24.8136 60.12 
L 24.1512 59.4 
L 23.46 58.68 
" clip-path="url(#pe433f09824)" style="fill: none; stroke: #000000; stroke-width: 2; stroke-linecap: round"/>
   </g>
   <g id="line2d_12">
    <path d="M 16.26 85.32 
L 29.8536 85.32 
" clip-path="url(#pe433f09824)" style="fill: none; stroke: #000000; stroke-width: 2; stroke-linecap: round"/>
   </g>
   <g id="line2d_13">
    <path d="M 16.26 67.32 
L 29.8536 67.32 
" clip-path="url(#pe433f09824)" style="fill: none; stroke: #000000; stroke-width: 2; stroke-linecap: round"/>
   </g>
   <g id="line2d_14">
    <path d="M 72.06 76.32 
L 84.66 76.32 
" clip-path="url(#pe433f09824)" style="fill: none; stroke: #000000; stroke-width: 2; stroke-linecap: round"/>
   </g>
   <g id="line2d_15">
    <path d="M 88.26 58.32 
L 84.66 58.32 
L 84.66 76.32 
" clip-path="url(#pe433f09824)" style="fill: none; stroke: #000000; stroke-width: 2; stroke-linecap: round"/>
   </g>
   <g id="text_1">
    <!-- $\text{Output}$ -->
    <g transform="translate(160.26 53.154688) scale(0.14 -0.14)">
     <defs>
      <path id="DejaVuSans-4f" d="M 2522 4238 
Q 1834 4238 1429 3725 
Q 1025 3213 1025 2328 
Q 1025 1447 1429 934 
Q 1834 422 2522 422 
Q 3209 422 3611 934 
Q 4013 1447 4013 2328 
Q 4013 3213 3611 3725 
Q 3209 4238 2522 4238 
z
M 2522 4750 
Q 3503 4750 4090 4092 
Q 4678 3434 4678 2328 
Q 4678 1225 4090 567 
Q 3503 -91 2522 -91 
Q 1538 -91 948 565 
Q 359 1222 359 2328 
Q 359 3434 948 4092 
Q 1538 4750 2522 4750 
z
" transform="scale(0.015625)"/>
      <path id="DejaVuSans-75" d="M 544 1381 
L 544 3500 
L 1119 3500 
L 1119 1403 
Q 1119 906 1312 657 
Q 1506 409 1894 409 
Q 2359 409 2629 706 
Q 2900 1003 2900 1516 
L 2900 3500 
L 3475 3500 
L 3475 0 
L 2900 0 
L 2900 538 
Q 2691 219 2414 64 
Q 2138 -91 1772 -91 
Q 1169 -91 856 284 
Q 544 659 544 1381 
z
M 1991 3584 
L 1991 3584 
z
" transform="scale(0.015625)"/>
      <path id="DejaVuSans-74" d="M 1172 4494 
L 1172 3500 
L 2356 3500 
L 2356 3053 
L 1172 3053 
L 1172 1153 
Q 1172 725 1289 603 
Q 1406 481 1766 481 
L 2356 481 
L 2356 0 
L 1766 0 
Q 1100 0 847 248 
Q 594 497 594 1153 
L 594 3053 
L 172 3053 
L 172 3500 
L 594 3500 
L 594 4494 
L 1172 4494 
z
" transform="scale(0.015625)"/>
      <path id="DejaVuSans-70" d="M 1159 525 
L 1159 -1331 
L 581 -1331 
L 581 3500 
L 1159 3500 
L 1159 2969 
Q 1341 3281 1617 3432 
Q 1894 3584 2278 3584 
Q 2916 3584 3314 3078 
Q 3713 2572 3713 1747 
Q 3713 922 3314 415 
Q 2916 -91 2278 -91 
Q 1894 -91 1617 61 
Q 1341 213 1159 525 
z
M 3116 1747 
Q 3116 2381 2855 2742 
Q 2594 3103 2138 3103 
Q 1681 3103 1420 2742 
Q 1159 2381 1159 1747 
Q 1159 1113 1420 752 
Q 1681 391 2138 391 
Q 2594 391 2855 752 
Q 3116 1113 3116 1747 
z
" transform="scale(0.015625)"/>
     </defs>
     <use xlink:href="#DejaVuSans-4f" transform="translate(0 0.78125)"/>
     <use xlink:href="#DejaVuSans-75" transform="translate(78.710938 0.78125)"/>
     <use xlink:href="#DejaVuSans-74" transform="translate(142.089844 0.78125)"/>
     <use xlink:href="#DejaVuSans-70" transform="translate(181.298828 0.78125)"/>
     <use xlink:href="#DejaVuSans-75" transform="translate(244.775391 0.78125)"/>
     <use xlink:href="#DejaVuSans-74" transform="translate(308.154297 0.78125)"/>
    </g>
   </g>
   <g id="text_2">
    <!-- c -->
    <g transform="translate(4.962187 17.183125) scale(0.14 -0.14)">
     <defs>
      <path id="DejaVuSans-63" d="M 3122 3366 
L 3122 2828 
Q 2878 2963 2633 3030 
Q 2388 3097 2138 3097 
Q 1578 3097 1268 2742 
Q 959 2388 959 1747 
Q 959 1106 1268 751 
Q 1578 397 2138 397 
Q 2388 397 2633 464 
Q 2878 531 3122 666 
L 3122 134 
Q 2881 22 2623 -34 
Q 2366 -91 2075 -91 
Q 1284 -91 818 406 
Q 353 903 353 1747 
Q 353 2603 823 3093 
Q 1294 3584 2113 3584 
Q 2378 3584 2631 3529 
Q 2884 3475 3122 3366 
z
" transform="scale(0.015625)"/>
     </defs>
     <use xlink:href="#DejaVuSans-63"/>
    </g>
   </g>
   <g id="text_3">
    <!-- c -->
    <g transform="translate(4.962187 35.183125) scale(0.14 -0.14)">
     <use xlink:href="#DejaVuSans-63"/>
    </g>
   </g>
   <g id="text_4">
    <!-- c -->
    <g transform="translate(4.962187 71.183125) scale(0.14 -0.14)">
     <use xlink:href="#DejaVuSans-63"/>
    </g>
   </g>
   <g id="text_5">
    <!-- b -->
    <g transform="translate(3.772187 89.183125) scale(0.14 -0.14)">
     <defs>
      <path id="DejaVuSans-62" d="M 3116 1747 
Q 3116 2381 2855 2742 
Q 2594 3103 2138 3103 
Q 1681 3103 1420 2742 
Q 1159 2381 1159 1747 
Q 1159 1113 1420 752 
Q 1681 391 2138 391 
Q 2594 391 2855 752 
Q 3116 1113 3116 1747 
z
M 1159 2969 
Q 1341 3281 1617 3432 
Q 1894 3584 2278 3584 
Q 2916 3584 3314 3078 
Q 3713 2572 3713 1747 
Q 3713 922 3314 415 
Q 2916 -91 2278 -91 
Q 1894 -91 1617 61 
Q 1341 213 1159 525 
L 1159 0 
L 581 0 
L 581 4863 
L 1159 4863 
L 1159 2969 
z
" transform="scale(0.015625)"/>
     </defs>
     <use xlink:href="#DejaVuSans-62"/>
    </g>
   </g>
  </g>
 </g>
 <defs>
  <clipPath id="pe433f09824">
   <rect x="0" y="0" width="246.84" height="98.64"/>
  </clipPath>
 </defs>
</svg>
